999
dxfrw 0.6.3
  0
SECTION
  2
HEADER
  9
$ACADVER
  1
AC1021
  9
$DWGCODEPAGE
  3
ANSI_1252
  9
$INSBASE
 10
0
 20
0
 30
0
  9
$EXTMIN
 10
7.252678899999998
 20
-17.6908077
 30
0
  9
$EXTMAX
 10
35.82767894677166
 20
2.1417047
 30
0
  9
$LIMMIN
 10
0
 20
0
  9
$LIMMAX
 10
12
 20
9
  9
$ORTHOMODE
 70
    0
  9
$REGENMODE
 70
    1
  9
$FILLMODE
 70
    1
  9
$QTEXTMODE
 70
    0
  9
$MIRRTEXT
 70
    0
  9
$LTSCALE
 40
1
  9
$ATTMODE
 70
    1
  9
$TEXTSIZE
 40
0.2
  9
$TRACEWID
 40
0.05
  9
$TEXTSTYLE
  7
Standard
  9
$CLAYER
  8
0
  9
$CELTYPE
  6
ByLayer
  9
$CECOLOR
 62
  256
  9
$CELTSCALE
 40
1
  9
$DISPSILH
 70
    0
  9
$DIMSCALE
 40
1
  9
$DIMASZ
 40
0.18
  9
$DIMEXO
 40
0.0625
  9
$DIMDLI
 40
0.38
  9
$DIMRND
 40
0
  9
$DIMDLE
 40
0
  9
$DIMEXE
 40
0.18
  9
$DIMTP
 40
0
  9
$DIMTM
 40
0
  9
$DIMTXT
 40
0.18
  9
$DIMCEN
 40
0.09
  9
$DIMTSZ
 40
0
  9
$DIMTOL
 70
    0
  9
$DIMLIM
 70
    0
  9
$DIMTIH
 70
    1
  9
$DIMTOH
 70
    1
  9
$DIMSE1
 70
    0
  9
$DIMSE2
 70
    0
  9
$DIMTAD
 70
    0
  9
$DIMZIN
 70
    0
  9
$DIMBLK
  1

  9
$DIMASO
 70
    1
  9
$DIMSHO
 70
    1
  9
$DIMPOST
  1

  9
$DIMAPOST
  1

  9
$DIMALT
 70
    0
  9
$DIMALTD
 70
    2
  9
$DIMALTF
 40
25.4
  9
$DIMLFAC
 40
1
  9
$DIMTOFL
 70
    0
  9
$DIMTVP
 40
0
  9
$DIMTIX
 70
    0
  9
$DIMSOXD
 70
    0
  9
$DIMSAH
 70
    0
  9
$DIMBLK1
  1

  9
$DIMBLK2
  1

  9
$DIMSTYLE
  2
Standard
  9
$DIMCLRD
 70
    0
  9
$DIMCLRE
 70
    0
  9
$DIMCLRT
 70
    0
  9
$DIMTFAC
 40
1
  9
$DIMGAP
 40
0.09
  9
$DIMJUST
 70
    0
  9
$DIMSD1
 70
    0
  9
$DIMSD2
 70
    0
  9
$DIMTOLJ
 70
    1
  9
$DIMTZIN
 70
    0
  9
$DIMALTZ
 70
    0
  9
$DIMALTTZ
 70
    0
  9
$DIMUPT
 70
    0
  9
$DIMDEC
 70
    4
  9
$DIMTDEC
 70
    4
  9
$DIMALTU
 70
    2
  9
$DIMALTTD
 70
    2
  9
$DIMTXSTY
  7
Standard
  9
$DIMAUNIT
 70
    0
  9
$DIMADEC
 70
    0
  9
$DIMALTRND
 40
0
  9
$DIMAZIN
 70
    0
  9
$DIMDSEP
 70
   46
  9
$DIMATFIT
 70
    3
  9
$DIMFRAC
 70
    0
  9
$DIMLDRBLK
  1

  9
$DIMLUNIT
 70
    2
  9
$DIMLWD
 70
   -2
  9
$DIMLWE
 70
   -2
  9
$DIMTMOVE
 70
    0
  9
$DIMFXL
 40
1
  9
$DIMFXLON
 70
    0
  9
$DIMJOGANG
 40
0.7853981633974483
  9
$DIMTFILL
 70
    0
  9
$DIMTFILLCLR
 70
    0
  9
$DIMARCSYM
 70
    0
  9
$DIMLTYPE
  6

  9
$DIMLTEX1
  6

  9
$DIMLTEX2
  6

  9
$LUNITS
 70
    2
  9
$LUPREC
 70
    4
  9
$SKETCHINC
 40
0.1
  9
$FILLETRAD
 40
0
  9
$AUNITS
 70
    0
  9
$AUPREC
 70
    0
  9
$MENU
  1
.
  9
$ELEVATION
 40
0
  9
$PELEVATION
 40
0
  9
$THICKNESS
 40
0
  9
$LIMCHECK
 70
    0
  9
$CHAMFERA
 40
0
  9
$CHAMFERB
 40
0
  9
$CHAMFERC
 40
0
  9
$CHAMFERD
 40
0
  9
$SKPOLY
 70
    0
  9
$USRTIMER
 70
    1
  9
$ANGBASE
 50
0
  9
$ANGDIR
 70
    0
  9
$PDMODE
 70
    0
  9
$PDSIZE
 40
0
  9
$PLINEWID
 40
0
  9
$SPLFRAME
 70
    0
  9
$SPLINETYPE
 70
    6
  9
$SPLINESEGS
 70
    8
  9
$HANDSEED
  5
20000
  9
$SURFTAB1
 70
    6
  9
$SURFTAB2
 70
    6
  9
$SURFTYPE
 70
    6
  9
$SURFU
 70
    6
  9
$SURFV
 70
    6
  9
$UCSBASE
  2

  9
$UCSNAME
  2

  9
$UCSORG
 10
0
 20
0
 30
0
  9
$UCSXDIR
 10
1
 20
0
 30
0
  9
$UCSYDIR
 10
0
 20
1
 30
0
  9
$UCSORTHOREF
  2

  9
$UCSORTHOVIEW
 70
    0
  9
$UCSORGTOP
 10
0
 20
0
 30
0
  9
$UCSORGBOTTOM
 10
0
 20
0
 30
0
  9
$UCSORGLEFT
 10
0
 20
0
 30
0
  9
$UCSORGRIGHT
 10
0
 20
0
 30
0
  9
$UCSORGFRONT
 10
0
 20
0
 30
0
  9
$UCSORGBACK
 10
0
 20
0
 30
0
  9
$PUCSBASE
  2

  9
$PUCSNAME
  2

  9
$PUCSORG
 10
0
 20
0
 30
0
  9
$PUCSXDIR
 10
1
 20
0
 30
0
  9
$PUCSYDIR
 10
0
 20
1
 30
0
  9
$PUCSORTHOREF
  2

  9
$PUCSORTHOVIEW
 70
    0
  9
$PUCSORGTOP
 10
0
 20
0
 30
0
  9
$PUCSORGBOTTOM
 10
0
 20
0
 30
0
  9
$PUCSORGLEFT
 10
0
 20
0
 30
0
  9
$PUCSORGRIGHT
 10
0
 20
0
 30
0
  9
$PUCSORGFRONT
 10
0
 20
0
 30
0
  9
$PUCSORGBACK
 10
0
 20
0
 30
0
  9
$USERI1
 70
    0
  9
$USERI2
 70
    0
  9
$USERI3
 70
    0
  9
$USERI4
 70
    0
  9
$USERI5
 70
    0
  9
$USERR1
 40
0
  9
$USERR2
 40
0
  9
$USERR3
 40
0
  9
$USERR4
 40
0
  9
$USERR5
 40
0
  9
$WORLDVIEW
 70
    1
  9
$SHADEDGE
 70
    3
  9
$SHADEDIF
 70
   70
  9
$TILEMODE
 70
    1
  9
$MAXACTVP
 70
   64
  9
$PINSBASE
 10
0
 20
0
 30
0
  9
$PLIMCHECK
 70
    0
  9
$PEXTMIN
 10
1e+020
 20
1e+020
 30
1e+020
  9
$PEXTMAX
 10
-1e+020
 20
-1e+020
 30
-1e+020
  9
$GRIDMODE
 70
    0
  9
$SNAPSTYLE
 70
    0
  9
$PLIMMIN
 10
0
 20
0
  9
$PLIMMAX
 10
12
 20
9
  9
$UNITMODE
 70
    0
  9
$VISRETAIN
 70
    1
  9
$PLINEGEN
 70
    0
  9
$PSLTSCALE
 70
    1
  9
$TREEDEPTH
 70
 3020
  9
$CMLSTYLE
  2
Standard
  9
$CMLJUST
 70
    0
  9
$CMLSCALE
 40
1
  9
$PROXYGRAPHICS
 70
    1
  9
$MEASUREMENT
 70
    0
  9
$CELWEIGHT
370
   -1
  9
$ENDCAPS
280
    0
  9
$JOINSTYLE
280
    0
  9
$LWDISPLAY
290
    0
  9
$INSUNITS
 70
    5
  9
$HYPERLINKBASE
  1

  9
$STYLESHEET
  1

  9
$XEDIT
290
    1
  9
$CEPSNTYPE
380
    0
  9
$PSTYLEMODE
290
    1
  9
$EXTNAMES
290
    1
  9
$PSVPSCALE
 40
0
  9
$OLESTARTUP
290
    0
  9
$SORTENTS
280
  127
  9
$INDEXCTL
280
    0
  9
$HIDETEXT
280
    1
  9
$XCLIPFRAME
290
    2
  9
$HALOGAP
280
    0
  9
$OBSCOLOR
 70
  257
  9
$OBSLTYPE
280
    0
  9
$INTERSECTIONDISPLAY
280
    0
  9
$INTERSECTIONCOLOR
 70
  257
  9
$DIMASSOC
280
    2
  9
$PROJECTNAME
  1

  9
$CAMERADISPLAY
290
    0
  9
$LENSLENGTH
 40
50
  9
$CAMERAHEIGHT
 40
0
  9
$STEPSPERSEC
 40
2
  9
$STEPSIZE
 40
6
  9
$3DDWFPREC
 40
2
  9
$PSOLWIDTH
 40
0.25
  9
$PSOLHEIGHT
 40
4
  9
$LOFTANG1
 40
1.570796326794896
  9
$LOFTANG2
 40
1.570796326794896
  9
$LOFTMAG1
 40
0
  9
$LOFTMAG2
 40
0
  9
$LOFTPARAM
 70
    7
  9
$LOFTNORMALS
280
    1
  9
$LATITUDE
 40
37.795
  9
$LONGITUDE
 40
-122.394
  9
$NORTHDIRECTION
 40
0
  9
$TIMEZONE
 70
-8000
  9
$LIGHTGLYPHDISPLAY
280
    1
  9
$TILEMODELIGHTSYNCH
280
    1
  9
$SOLIDHIST
280
    0
  9
$SHOWHIST
280
    1
  9
$DWFFRAME
280
    2
  9
$DGNFRAME
280
    0
  9
$REALWORLDSCALE
290
    1
  9
$INTERFERECOLOR
 62
    1
  9
$CSHADOW
280
    0
  9
$SHADOWPLANELOCATION
 40
0
  0
ENDSEC
  0
SECTION
  2
CLASSES
  0
ENDSEC
  0
SECTION
  2
TABLES
  0
TABLE
  2
VPORT
  5
8
330
0
100
AcDbSymbolTable
 70
    1
  0
VPORT
  5
31
330
2
100
AcDbSymbolTableRecord
100
AcDbViewportTableRecord
  2
*ACTIVE
 70
    0
 10
0
 20
0
 11
1
 21
1
 12
21.41423290090167
 22
-1.374278881558317
 13
0
 23
0
 14
10
 24
10
 15
10
 25
10
 16
0
 26
0
 36
1
 17
0
 27
0
 37
0
 40
23.49823327058869
 41
1.583196046128501
 42
50
 43
0
 44
0
 50
0
 51
0
 71
    0
 72
  100
 73
    1
 74
    3
 75
    0
 76
    0
 77
    0
 78
    0
281
    0
 65
    1
110
0
120
0
130
0
111
1
121
0
131
0
112
0
122
1
132
0
 79
    0
146
0
348
10020
 60
    7
 61
    5
292
1
282
    1
141
0
142
0
 63
  250
421
3358443
  0
ENDTAB
  0
TABLE
  2
LTYPE
  5
5
330
0
100
AcDbSymbolTable
 70
    4
  0
LTYPE
  5
14
330
5
100
AcDbSymbolTableRecord
100
AcDbLinetypeTableRecord
  2
ByBlock
 70
    0
  3

 72
   65
 73
    0
 40
0
  0
LTYPE
  5
15
330
5
100
AcDbSymbolTableRecord
100
AcDbLinetypeTableRecord
  2
ByLayer
 70
    0
  3

 72
   65
 73
    0
 40
0
  0
LTYPE
  5
16
330
5
100
AcDbSymbolTableRecord
100
AcDbLinetypeTableRecord
  2
Continuous
 70
    0
  3
Solid line
 72
   65
 73
    0
 40
0
  0
LTYPE
  5
32
330
5
100
AcDbSymbolTableRecord
100
AcDbLinetypeTableRecord
  2
DOT
 70
    0
  3
Dot . . . . . . . . . . . . . . . . . . . . . .
 72
   65
 73
    2
 40
6.35
 49
0
 74
    0
 49
-6.35
 74
    0
  0
LTYPE
  5
33
330
5
100
AcDbSymbolTableRecord
100
AcDbLinetypeTableRecord
  2
DOTTINY
 70
    0
  3
Dot (.15x) .....................................
 72
   65
 73
    2
 40
0.9525
 49
0
 74
    0
 49
-0.9525
 74
    0
  0
LTYPE
  5
34
330
5
100
AcDbSymbolTableRecord
100
AcDbLinetypeTableRecord
  2
DOT2
 70
    0
  3
Dot (.5x) .....................................
 72
   65
 73
    2
 40
3.175
 49
0
 74
    0
 49
-3.175
 74
    0
  0
LTYPE
  5
35
330
5
100
AcDbSymbolTableRecord
100
AcDbLinetypeTableRecord
  2
DOTX2
 70
    0
  3
Dot (2x) .  .  .  .  .  .  .  .  .  .  .  .  .
 72
   65
 73
    2
 40
12.7
 49
0
 74
    0
 49
-12.7
 74
    0
  0
LTYPE
  5
36
330
5
100
AcDbSymbolTableRecord
100
AcDbLinetypeTableRecord
  2
DASHED
 70
    0
  3
Dashed _ _ _ _ _ _ _ _ _ _ _ _ _ _ _ _ _
 72
   65
 73
    2
 40
19.05
 49
12.7
 74
    0
 49
-6.35
 74
    0
  0
LTYPE
  5
37
330
5
100
AcDbSymbolTableRecord
100
AcDbLinetypeTableRecord
  2
DASHEDTINY
 70
    0
  3
Dashed (.15x) _ _ _ _ _ _ _ _ _ _ _ _ _ _ _ _ _
 72
   65
 73
    2
 40
2.8575
 49
1.905
 74
    0
 49
-0.9525
 74
    0
  0
LTYPE
  5
38
330
5
100
AcDbSymbolTableRecord
100
AcDbLinetypeTableRecord
  2
DASHED2
 70
    0
  3
Dashed (.5x) _ _ _ _ _ _ _ _ _ _ _ _ _ _ _ _ _
 72
   65
 73
    2
 40
9.524999999999999
 49
6.35
 74
    0
 49
-3.175
 74
    0
  0
LTYPE
  5
39
330
5
100
AcDbSymbolTableRecord
100
AcDbLinetypeTableRecord
  2
DASHEDX2
 70
    0
  3
Dashed (2x) ____  ____  ____  ____  ____  ___
 72
   65
 73
    2
 40
38.09999999999999
 49
25.4
 74
    0
 49
-12.7
 74
    0
  0
LTYPE
  5
3A
330
5
100
AcDbSymbolTableRecord
100
AcDbLinetypeTableRecord
  2
DASHDOT
 70
    0
  3
Dash dot __ . __ . __ . __ . __ . __ . __ . __
 72
   65
 73
    4
 40
25.4
 49
12.7
 74
    0
 49
-6.35
 74
    0
 49
0
 74
    0
 49
-6.35
 74
    0
  0
LTYPE
  5
3B
330
5
100
AcDbSymbolTableRecord
100
AcDbLinetypeTableRecord
  2
DASHDOTTINY
 70
    0
  3
Dash dot (.15x) _._._._._._._._._._._._._._._.
 72
   65
 73
    4
 40
3.81
 49
1.905
 74
    0
 49
-0.9525
 74
    0
 49
0
 74
    0
 49
-0.9525
 74
    0
  0
LTYPE
  5
3C
330
5
100
AcDbSymbolTableRecord
100
AcDbLinetypeTableRecord
  2
DASHDOT2
 70
    0
  3
Dash dot (.5x) _._._._._._._._._._._._._._._.
 72
   65
 73
    4
 40
12.7
 49
6.35
 74
    0
 49
-3.175
 74
    0
 49
0
 74
    0
 49
-3.175
 74
    0
  0
LTYPE
  5
3D
330
5
100
AcDbSymbolTableRecord
100
AcDbLinetypeTableRecord
  2
DASHDOTX2
 70
    0
  3
Dash dot (2x) ____  .  ____  .  ____  .  ___
 72
   65
 73
    4
 40
50.8
 49
25.4
 74
    0
 49
-12.7
 74
    0
 49
0
 74
    0
 49
-12.7
 74
    0
  0
LTYPE
  5
3E
330
5
100
AcDbSymbolTableRecord
100
AcDbLinetypeTableRecord
  2
DIVIDE
 70
    0
  3
Divide ____ . . ____ . . ____ . . ____ . . ____
 72
   65
 73
    6
 40
31.75
 49
12.7
 74
    0
 49
-6.35
 74
    0
 49
0
 74
    0
 49
-6.35
 74
    0
 49
0
 74
    0
 49
-6.35
 74
    0
  0
LTYPE
  5
3F
330
5
100
AcDbSymbolTableRecord
100
AcDbLinetypeTableRecord
  2
DIVIDETINY
 70
    0
  3
Divide (.15x) __..__..__..__..__..__..__..__.._
 72
   65
 73
    6
 40
4.7625
 49
1.905
 74
    0
 49
-0.9525
 74
    0
 49
0
 74
    0
 49
-0.9525
 74
    0
 49
0
 74
    0
 49
-0.9525
 74
    0
  0
LTYPE
  5
40
330
5
100
AcDbSymbolTableRecord
100
AcDbLinetypeTableRecord
  2
DIVIDE2
 70
    0
  3
Divide (.5x) __..__..__..__..__..__..__..__.._
 72
   65
 73
    6
 40
15.875
 49
6.35
 74
    0
 49
-3.175
 74
    0
 49
0
 74
    0
 49
-3.175
 74
    0
 49
0
 74
    0
 49
-3.175
 74
    0
  0
LTYPE
  5
41
330
5
100
AcDbSymbolTableRecord
100
AcDbLinetypeTableRecord
  2
DIVIDEX2
 70
    0
  3
Divide (2x) ________  .  .  ________  .  .  _
 72
   65
 73
    6
 40
63.5
 49
25.4
 74
    0
 49
-12.7
 74
    0
 49
0
 74
    0
 49
-12.7
 74
    0
 49
0
 74
    0
 49
-12.7
 74
    0
  0
LTYPE
  5
42
330
5
100
AcDbSymbolTableRecord
100
AcDbLinetypeTableRecord
  2
BORDER
 70
    0
  3
Border __ __ . __ __ . __ __ . __ __ . __ __ .
 72
   65
 73
    6
 40
44.45
 49
12.7
 74
    0
 49
-6.35
 74
    0
 49
12.7
 74
    0
 49
-6.35
 74
    0
 49
0
 74
    0
 49
-6.35
 74
    0
  0
LTYPE
  5
43
330
5
100
AcDbSymbolTableRecord
100
AcDbLinetypeTableRecord
  2
BORDERTINY
 70
    0
  3
Border (.15x) __.__.__.__.__.__.__.__.__.__.__.
 72
   65
 73
    6
 40
6.6675
 49
1.905
 74
    0
 49
-0.9525
 74
    0
 49
1.905
 74
    0
 49
-0.9525
 74
    0
 49
0
 74
    0
 49
-0.9525
 74
    0
  0
LTYPE
  5
44
330
5
100
AcDbSymbolTableRecord
100
AcDbLinetypeTableRecord
  2
BORDER2
 70
    0
  3
Border (.5x) __.__.__.__.__.__.__.__.__.__.__.
 72
   65
 73
    6
 40
22.225
 49
6.35
 74
    0
 49
-3.175
 74
    0
 49
6.35
 74
    0
 49
-3.175
 74
    0
 49
0
 74
    0
 49
-3.175
 74
    0
  0
LTYPE
  5
45
330
5
100
AcDbSymbolTableRecord
100
AcDbLinetypeTableRecord
  2
BORDERX2
 70
    0
  3
Border (2x) ____  ____  .  ____  ____  .  ___
 72
   65
 73
    6
 40
88.89999999999999
 49
25.4
 74
    0
 49
-12.7
 74
    0
 49
25.4
 74
    0
 49
-12.7
 74
    0
 49
0
 74
    0
 49
-12.7
 74
    0
  0
LTYPE
  5
46
330
5
100
AcDbSymbolTableRecord
100
AcDbLinetypeTableRecord
  2
CENTER
 70
    0
  3
Center ____ _ ____ _ ____ _ ____ _ ____ _ ____
 72
   65
 73
    4
 40
50.8
 49
31.75
 74
    0
 49
-6.35
 74
    0
 49
6.35
 74
    0
 49
-6.35
 74
    0
  0
LTYPE
  5
47
330
5
100
AcDbSymbolTableRecord
100
AcDbLinetypeTableRecord
  2
CENTERTINY
 70
    0
  3
Center (.15x) ___ _ ___ _ ___ _ ___ _ ___ _ ___
 72
   65
 73
    4
 40
7.62
 49
4.7625
 74
    0
 49
-0.9525
 74
    0
 49
0.9525
 74
    0
 49
-0.9525
 74
    0
  0
LTYPE
  5
48
330
5
100
AcDbSymbolTableRecord
100
AcDbLinetypeTableRecord
  2
CENTER2
 70
    0
  3
Center (.5x) ___ _ ___ _ ___ _ ___ _ ___ _ ___
 72
   65
 73
    4
 40
28.575
 49
19.05
 74
    0
 49
-3.175
 74
    0
 49
3.175
 74
    0
 49
-3.175
 74
    0
  0
LTYPE
  5
49
330
5
100
AcDbSymbolTableRecord
100
AcDbLinetypeTableRecord
  2
CENTERX2
 70
    0
  3
Center (2x) ________  __  ________  __  _____
 72
   65
 73
    4
 40
101.6
 49
63.5
 74
    0
 49
-12.7
 74
    0
 49
12.7
 74
    0
 49
-12.7
 74
    0
  0
ENDTAB
  0
TABLE
  2
LAYER
  5
2
330
0
100
AcDbSymbolTable
 70
    1
  0
LAYER
  5
10
330
2
100
AcDbSymbolTableRecord
100
AcDbLayerTableRecord
  2
0
 70
    0
 62
    7
  6
CONTINUOUS
370
   -3
390
F
  0
LAYER
  5
4A
330
2
100
AcDbSymbolTableRecord
100
AcDbLayerTableRecord
  2
acoustic-cutouts
 70
    0
 62
    3
  6
CONTINUOUS
370
    0
390
F
  0
LAYER
  5
4B
330
2
100
AcDbSymbolTableRecord
100
AcDbLayerTableRecord
  2
brutal_ansi_fixed v3_0
 70
    0
 62
    7
  6
CONTINUOUS
370
   -3
390
F
  0
LAYER
  5
4C
330
2
100
AcDbSymbolTableRecord
100
AcDbLayerTableRecord
  2
filco-cutouts
 70
    0
 62
    2
  6
CONTINUOUS
370
    0
390
F
  0
ENDTAB
  0
TABLE
  2
STYLE
  5
3
330
0
100
AcDbSymbolTable
 70
    3
  0
STYLE
  5
4D
330
2
100
AcDbSymbolTableRecord
100
AcDbTextStyleTableRecord
  2
Standard
 70
    0
 40
0
 41
1
 50
0
 71
    0
 42
1
  3
txt
  4

  0
ENDTAB
  0
TABLE
  2
VIEW
  5
6
330
0
100
AcDbSymbolTable
 70
    0
  0
ENDTAB
  0
TABLE
  2
UCS
  5
7
330
0
100
AcDbSymbolTable
 70
    0
  0
ENDTAB
  0
TABLE
  2
APPID
  5
9
330
0
100
AcDbSymbolTable
 70
    1
  0
APPID
  5
12
330
9
100
AcDbSymbolTableRecord
100
AcDbRegAppTableRecord
  2
ACAD
 70
    0
  0
APPID
  5
4E
330
9
100
AcDbSymbolTableRecord
100
AcDbRegAppTableRecord
  2
LibreCad
 70
    0
  0
ENDTAB
  0
TABLE
  2
DIMSTYLE
  5
A
330
0
100
AcDbSymbolTable
 70
    1
100
AcDbDimStyleTable
 71
    1
  0
DIMSTYLE
105
4F
330
A
100
AcDbSymbolTableRecord
100
AcDbDimStyleTableRecord
  2
Standard
 70
    0
 40
1
 41
0.18
 42
0.0625
 43
0.38
 44
0.18
 45
0
 46
0
 47
0
 48
0
 49
1
140
0.18
141
0.09
142
0
143
25.4
144
1
145
0
146
1
147
0.09
148
0
 71
    0
 72
    0
 73
    1
 74
    1
 75
    0
 76
    0
 77
    0
 78
    0
 79
    0
170
    0
171
    2
172
    0
173
    0
174
    0
175
    0
176
    0
177
    0
178
    0
179
    0
271
    4
272
    4
273
    2
274
    2
275
    0
276
    0
277
    2
278
   46
279
    0
280
    0
281
    0
282
    0
283
    1
284
    0
285
    0
286
    0
288
    0
289
    3
340
Standard
341

371
   -2
372
   -2
  0
ENDTAB
  0
TABLE
  2
BLOCK_RECORD
  5
1
330
0
100
AcDbSymbolTable
 70
    2
  0
BLOCK_RECORD
  5
1F
330
1
100
AcDbSymbolTableRecord
100
AcDbBlockTableRecord
  2
*Model_Space
 70
    0
280
    1
281
    0
  0
BLOCK_RECORD
  5
1E
330
1
100
AcDbSymbolTableRecord
100
AcDbBlockTableRecord
  2
*Paper_Space
 70
    0
280
    1
281
    0
  0
ENDTAB
  0
ENDSEC
  0
SECTION
  2
BLOCKS
  0
BLOCK
  5
20
330
1F
100
AcDbEntity
  8
0
100
AcDbBlockBegin
  2
*Model_Space
 70
    0
 10
0
 20
0
 30
0
  3
*Model_Space
  1

  0
ENDBLK
  5
21
330
1F
100
AcDbEntity
  8
0
100
AcDbBlockEnd
  0
BLOCK
  5
1C
330
1B
100
AcDbEntity
  8
0
100
AcDbBlockBegin
  2
*Paper_Space
 70
    0
 10
0
 20
0
 30
0
  3
*Paper_Space
  1

  0
ENDBLK
  5
1D
330
1F
100
AcDbEntity
  8
0
100
AcDbBlockEnd
  0
ENDSEC
  0
SECTION
  2
ENTITIES
  0
ARC
  5
50
100
AcDbEntity
  8
brutal_ansi_fixed v3_0
  6
ByLayer
 62
  256
370
   -1
100
AcDbCircle
 10
31.6151789
 20
-17.3308077
 40
0.1999999999999993
100
AcDbArc
 50
89.99999999999797
 51
180.000000000001
  0
ARC
  5
51
100
AcDbEntity
  8
brutal_ansi_fixed v3_0
  6
ByLayer
 62
  256
370
   -1
100
AcDbCircle
 10
20.9901789
 20
-7.405807699999998
 40
0.200000049365002
100
AcDbArc
 50
270.6392907667853
 51
359.9999992869542
  0
LINE
  5
52
100
AcDbEntity
  8
brutal_ansi_fixed v3_0
  6
ByLayer
 62
  256
370
   -1
100
AcDbLine
 10
35.8276789
 20
-7.805795299999999
 11
35.82767894677166
 21
-16.95851080542
  0
LINE
  5
53
100
AcDbEntity
  8
brutal_ansi_fixed v3_0
  6
ByLayer
 62
  256
370
   -1
100
AcDbLine
 10
35.7292568
 20
-17.1307953
 11
35.7276789
 21
-17.1308077
  0
LINE
  5
54
100
AcDbEntity
  8
brutal_ansi_fixed v3_0
  6
ByLayer
 62
  256
370
   -1
100
AcDbLine
 10
11.665178949365
 20
-7.405807702488998
 11
11.6651789
 21
-7.3958077
  0
ARC
  5
55
100
AcDbEntity
  8
brutal_ansi_fixed v3_0
  6
ByLayer
 62
  256
370
   -1
100
AcDbCircle
 10
35.62767889999999
 20
-7.805795300000008
 40
0.2000000000000099
100
AcDbArc
 50
2.59533262007423e-012
 51
89.99999999999795
  0
ARC
  5
56
100
AcDbEntity
  8
brutal_ansi_fixed v3_0
  6
ByLayer
 62
  256
370
   -1
100
AcDbCircle
 10
12.0151789
 20
-17.3408077
 40
0.3499999999999996
100
AcDbArc
 50
-179.9999999999994
 51
5.852220613892871e-013
  0
ARC
  5
57
100
AcDbEntity
  8
brutal_ansi_fixed v3_0
  6
ByLayer
 62
  256
370
   -1
100
AcDbCircle
 10
35.62767890000002
 20
-16.95851079999999
 40
0.2000000467716419
100
AcDbArc
 50
-59.47665552617224
 51
-1.552717890609544e-006
  0
ARC
  5
58
100
AcDbEntity
  8
brutal_ansi_fixed v3_0
  6
ByLayer
 62
  256
370
   -1
100
AcDbCircle
 10
21.5401789
 20
-17.34080769999999
 40
0.3499999999999979
100
AcDbArc
 50
179.9999999999994
 51
-5.852220613892871e-013
  0
LINE
  5
59
100
AcDbEntity
  8
brutal_ansi_fixed v3_0
  6
ByLayer
 62
  256
370
   -1
100
AcDbLine
 10
11.6651789
 20
-17.3408077
 11
11.6651789
 21
-17.3308077
  0
CIRCLE
  5
5A
100
AcDbEntity
  8
brutal_ansi_fixed v3_0
  6
ByLayer
 62
  256
370
   -1
100
AcDbCircle
 10
21.5503306
 20
-7.381881199999998
 40
0.11
  0
CIRCLE
  5
5B
100
AcDbEntity
  8
brutal_ansi_fixed v3_0
  6
ByLayer
 62
  256
370
   -1
100
AcDbCircle
 10
31.07
 20
-17.34
 40
0.11
  0
CIRCLE
  5
5C
100
AcDbEntity
  8
brutal_ansi_fixed v3_0
  6
ByLayer
 62
  256
370
   -1
100
AcDbCircle
 10
12.02
 20
-17.34
 40
0.11
  0
CIRCLE
  5
5D
100
AcDbEntity
  8
brutal_ansi_fixed v3_0
  6
ByLayer
 62
  256
370
   -1
100
AcDbCircle
 10
21.55
 20
-17.34
 40
0.11
  0
LINE
  5
5E
100
AcDbEntity
  8
brutal_ansi_fixed v3_0
  6
ByLayer
 62
  256
370
   -1
100
AcDbLine
 10
12.3651789
 20
-7.3958077
 11
12.3651789
 21
-7.405807699999998
  0
ARC
  5
5F
100
AcDbEntity
  8
brutal_ansi_fixed v3_0
  6
ByLayer
 62
  256
370
   -1
100
AcDbCircle
 10
31.61517889999986
 20
-7.405807699999865
 40
0.1999999999998572
100
AcDbArc
 50
180.0000000000381
 51
269.3607085199352
  0
LINE
  5
60
100
AcDbEntity
  8
brutal_ansi_fixed v3_0
  6
ByLayer
 62
  256
370
   -1
100
AcDbLine
 10
31.4151789
 20
-7.3958077
 11
31.41517890000001
 21
-7.405807699999998
  0
ARC
  5
61
100
AcDbEntity
  8
brutal_ansi_fixed v3_0
  6
ByLayer
 62
  256
370
   -1
100
AcDbCircle
 10
35.62767889999999
 20
-7.805795300000008
 40
0.2000000000000099
100
AcDbArc
 50
2.59533262007423e-012
 51
89.99999999999795
  0
LINE
  5
62
100
AcDbEntity
  8
brutal_ansi_fixed v3_0
  6
ByLayer
 62
  256
370
   -1
100
AcDbLine
 10
35.8276789
 20
-7.805795299999999
 11
35.82767894677166
 21
-16.95851080542
  0
LINE
  5
63
100
AcDbEntity
  8
brutal_ansi_fixed v3_0
  6
ByLayer
 62
  256
370
   -1
100
AcDbLine
 10
11.6651789
 20
-17.3408077
 11
11.6651789
 21
-17.3308077
  0
ARC
  5
64
100
AcDbEntity
  8
brutal_ansi_fixed v3_0
  6
ByLayer
 62
  256
370
   -1
100
AcDbCircle
 10
11.46517889999999
 20
-7.405807699999997
 40
0.200000049365003
100
AcDbArc
 50
270.6392907667874
 51
359.9999992869539
  0
ARC
  5
65
100
AcDbEntity
  8
brutal_ansi_fixed v3_0
  6
ByLayer
 62
  256
370
   -1
100
AcDbCircle
 10
21.5401789
 20
-7.395807700000001
 40
0.3500000000000014
100
AcDbArc
 50
-1.017777498068325e-013
 51
179.9999999999999
  0
ARC
  5
66
100
AcDbEntity
  8
brutal_ansi_fixed v3_0
  6
ByLayer
 62
  256
370
   -1
100
AcDbCircle
 10
20.9901789
 20
-7.405807699999998
 40
0.200000049365002
100
AcDbArc
 50
270.6392907667853
 51
359.9999992869542
  0
LINE
  5
67
100
AcDbEntity
  8
brutal_ansi_fixed v3_0
  6
ByLayer
 62
  256
370
   -1
100
AcDbLine
 10
11.665178949365
 20
-7.405807702488998
 11
11.6651789
 21
-7.3958077
  0
ARC
  5
68
100
AcDbEntity
  8
brutal_ansi_fixed v3_0
  6
ByLayer
 62
  256
370
   -1
100
AcDbCircle
 10
31.6151789
 20
-17.3308077
 40
0.1999999999999993
100
AcDbArc
 50
89.99999999999797
 51
180.000000000001
  0
CIRCLE
  5
69
100
AcDbEntity
  8
brutal_ansi_fixed v3_0
  6
ByLayer
 62
  256
370
   -1
100
AcDbCircle
 10
31.07
 20
-17.34
 40
0.11
  0
ARC
  5
6A
100
AcDbEntity
  8
brutal_ansi_fixed v3_0
  6
ByLayer
 62
  256
370
   -1
100
AcDbCircle
 10
12.56517889999986
 20
-7.405807699999862
 40
0.1999999999998625
100
AcDbArc
 50
180.0000000000389
 51
269.3607085199363
  0
LINE
  5
6B
100
AcDbEntity
  8
brutal_ansi_fixed v3_0
  6
ByLayer
 62
  256
370
   -1
100
AcDbLine
 10
11.4651789
 20
-17.1308077
 11
7.352678899999998
 21
-17.1308077
  0
ARC
  5
6C
100
AcDbEntity
  8
brutal_ansi_fixed v3_0
  6
ByLayer
 62
  256
370
   -1
100
AcDbCircle
 10
12.0151789
 20
-7.395807699999999
 40
0.3499999999999996
100
AcDbArc
 50
2.035554996136651e-013
 51
-179.9999999999998
  0
LINE
  5
6D
100
AcDbEntity
  8
brutal_ansi_fixed v3_0
  6
ByLayer
 62
  256
370
   -1
100
AcDbLine
 10
12.562947398061
 20
-7.605795250609999
 11
20.9924104
 21
-7.605795299999981
  0
CIRCLE
  5
6E
100
AcDbEntity
  8
brutal_ansi_fixed v3_0
  6
ByLayer
 62
  256
370
   -1
100
AcDbCircle
 10
12.02
 20
-17.34
 40
0.11
  0
LINE
  5
6F
100
AcDbEntity
  8
brutal_ansi_fixed v3_0
  6
ByLayer
 62
  256
370
   -1
100
AcDbLine
 10
31.612947398061
 20
-7.605795250609998
 11
35.6276789
 21
-7.605795299999998
  0
LINE
  5
70
100
AcDbEntity
  8
brutal_ansi_fixed v3_0
  6
ByLayer
 62
  256
370
   -1
100
AcDbLine
 10
7.252678899999998
 20
-16.9585108
 11
7.252678899999999
 21
-7.805795299999999
  0
LINE
  5
71
100
AcDbEntity
  8
brutal_ansi_fixed v3_0
  6
ByLayer
 62
  256
370
   -1
100
AcDbLine
 10
21.89017890000001
 20
-7.395807700000002
 11
21.8901789
 21
-7.405807699999998
  0
ARC
  5
72
100
AcDbEntity
  8
brutal_ansi_fixed v3_0
  6
ByLayer
 62
  256
370
   -1
100
AcDbCircle
 10
11.4651789
 20
-17.3308077
 40
0.2000000000000028
100
AcDbArc
 50
0
 51
89.99999999999947
  0
ARC
  5
73
100
AcDbEntity
  8
brutal_ansi_fixed v3_0
  6
ByLayer
 62
  256
370
   -1
100
AcDbCircle
 10
35.62767890000002
 20
-16.95851079999999
 40
0.2000000467716419
100
AcDbArc
 50
-59.47665552617224
 51
-1.552717890609544e-006
  0
LINE
  5
74
100
AcDbEntity
  8
brutal_ansi_fixed v3_0
  6
ByLayer
 62
  256
370
   -1
100
AcDbLine
 10
35.7276789
 20
-17.1308077
 11
31.61517890000001
 21
-17.1308077
  0
CIRCLE
  5
75
100
AcDbEntity
  8
brutal_ansi_fixed v3_0
  6
ByLayer
 62
  256
370
   -1
100
AcDbCircle
 10
31.06
 20
-7.409999999999998
 40
0.11
  0
ARC
  5
76
100
AcDbEntity
  8
brutal_ansi_fixed v3_0
  6
ByLayer
 62
  256
370
   -1
100
AcDbCircle
 10
30.51517890000001
 20
-7.4058077
 40
0.2000000493650003
100
AcDbArc
 50
270.6392907667864
 51
359.9999992869547
  0
ARC
  5
77
100
AcDbEntity
  8
brutal_ansi_fixed v3_0
  6
ByLayer
 62
  256
370
   -1
100
AcDbCircle
 10
7.452678899999997
 20
-7.805795299999998
 40
0.1999999999999984
100
AcDbArc
 50
89.99999999999974
 51
-179.9999999999997
  0
ARC
  5
78
100
AcDbEntity
  8
brutal_ansi_fixed v3_0
  6
ByLayer
 62
  256
370
   -1
100
AcDbCircle
 10
21.5401789
 20
-17.34080769999999
 40
0.3499999999999979
100
AcDbArc
 50
179.9999999999994
 51
-5.852220613892871e-013
  0
CIRCLE
  5
79
100
AcDbEntity
  8
brutal_ansi_fixed v3_0
  6
ByLayer
 62
  256
370
   -1
100
AcDbCircle
 10
21.55
 20
-17.34
 40
0.11
  0
LINE
  5
7A
100
AcDbEntity
  8
brutal_ansi_fixed v3_0
  6
ByLayer
 62
  256
370
   -1
100
AcDbLine
 10
22.087947398061
 20
-7.605795250609998
 11
30.51741040000001
 21
-7.605795299999981
  0
LINE
  5
7B
100
AcDbEntity
  8
brutal_ansi_fixed v3_0
  6
ByLayer
 62
  256
370
   -1
100
AcDbLine
 10
30.7151789
 20
-17.34080769999999
 11
30.7151789
 21
-17.3308077
  0
ARC
  5
7C
100
AcDbEntity
  8
brutal_ansi_fixed v3_0
  6
ByLayer
 62
  256
370
   -1
100
AcDbCircle
 10
7.452678900000004
 20
-16.9585108
 40
0.2000000000000055
100
AcDbArc
 50
180
 51
-120.5233413255362
  0
ARC
  5
7D
100
AcDbEntity
  8
brutal_ansi_fixed v3_0
  6
ByLayer
 62
  256
370
   -1
100
AcDbCircle
 10
22.09017889999986
 20
-7.405807699999862
 40
0.1999999999998607
100
AcDbArc
 50
180.0000000000389
 51
269.3607085199372
  0
ARC
  5
7E
100
AcDbEntity
  8
brutal_ansi_fixed v3_0
  6
ByLayer
 62
  256
370
   -1
100
AcDbCircle
 10
22.09017890000001
 20
-17.33080770000001
 40
0.2000000000000064
100
AcDbArc
 50
90.00000000000205
 51
179.999999999999
  0
LINE
  5
7F
100
AcDbEntity
  8
brutal_ansi_fixed v3_0
  6
ByLayer
 62
  256
370
   -1
100
AcDbLine
 10
12.3651789
 20
-17.3308077
 11
12.3651789
 21
-17.3408077
  0
ARC
  5
80
100
AcDbEntity
  8
brutal_ansi_fixed v3_0
  6
ByLayer
 62
  256
370
   -1
100
AcDbCircle
 10
31.06517890000001
 20
-7.395807699999997
 40
0.3499999999999979
100
AcDbArc
 50
4.071109992273301e-013
 51
-179.9999999999996
  0
LINE
  5
81
100
AcDbEntity
  8
brutal_ansi_fixed v3_0
  6
ByLayer
 62
  256
370
   -1
100
AcDbLine
 10
7.352678899999998
 20
-17.1308077
 11
7.351101033221536
 21
-17.13079526529138
  0
CIRCLE
  5
82
100
AcDbEntity
  8
brutal_ansi_fixed v3_0
  6
ByLayer
 62
  256
370
   -1
100
AcDbCircle
 10
21.5503306
 20
-7.381881199999998
 40
0.11
  0
ARC
  5
83
100
AcDbEntity
  8
brutal_ansi_fixed v3_0
  6
ByLayer
 62
  256
370
   -1
100
AcDbCircle
 10
31.06517890000001
 20
-17.34080769999999
 40
0.350000000000005
100
AcDbArc
 50
179.9999999999994
 51
-5.852220613892871e-013
  0
LINE
  5
84
100
AcDbEntity
  8
brutal_ansi_fixed v3_0
  6
ByLayer
 62
  256
370
   -1
100
AcDbLine
 10
30.71517894936501
 20
-7.405807702488998
 11
30.71517890000001
 21
-7.3958077
  0
ARC
  5
85
100
AcDbEntity
  8
brutal_ansi_fixed v3_0
  6
ByLayer
 62
  256
370
   -1
100
AcDbCircle
 10
20.99017890000001
 20
-17.3308077
 40
0.1999999999999957
100
AcDbArc
 50
359.999999999999
 51
90.00000000000205
  0
LINE
  5
86
100
AcDbEntity
  8
brutal_ansi_fixed v3_0
  6
ByLayer
 62
  256
370
   -1
100
AcDbLine
 10
35.7292568
 20
-17.1307953
 11
35.7276789
 21
-17.1308077
  0
ARC
  5
87
100
AcDbEntity
  8
brutal_ansi_fixed v3_0
  6
ByLayer
 62
  256
370
   -1
100
AcDbCircle
 10
12.0151789
 20
-17.3408077
 40
0.3499999999999996
100
AcDbArc
 50
-179.9999999999994
 51
5.852220613892871e-013
  0
LINE
  5
88
100
AcDbEntity
  8
brutal_ansi_fixed v3_0
  6
ByLayer
 62
  256
370
   -1
100
AcDbLine
 10
21.19017890000001
 20
-17.3408077
 11
21.19017890000001
 21
-17.3308077
  0
CIRCLE
  5
89
100
AcDbEntity
  8
brutal_ansi_fixed v3_0
  6
ByLayer
 62
  256
370
   -1
100
AcDbCircle
 10
12.01
 20
-7.39
 40
0.11
  0
LINE
  5
8A
100
AcDbEntity
  8
brutal_ansi_fixed v3_0
  6
ByLayer
 62
  256
370
   -1
100
AcDbLine
 10
7.452678899999998
 20
-7.6057953
 11
11.4674104
 21
-7.605795299999981
  0
LINE
  5
8B
100
AcDbEntity
  8
brutal_ansi_fixed v3_0
  6
ByLayer
 62
  256
370
   -1
100
AcDbLine
 10
21.19017894936501
 20
-7.405807702488998
 11
21.1901789
 21
-7.3958077
  0
LINE
  5
8C
100
AcDbEntity
  8
brutal_ansi_fixed v3_0
  6
ByLayer
 62
  256
370
   -1
100
AcDbLine
 10
31.4151789
 20
-17.3308077
 11
31.41517890000001
 21
-17.3408077
  0
ARC
  5
8D
100
AcDbEntity
  8
brutal_ansi_fixed v3_0
  6
ByLayer
 62
  256
370
   -1
100
AcDbCircle
 10
12.5651789
 20
-17.3308077
 40
0.2000000000000028
100
AcDbArc
 50
90.00000000000152
 51
179.999999999999
  0
LINE
  5
8E
100
AcDbEntity
  8
brutal_ansi_fixed v3_0
  6
ByLayer
 62
  256
370
   -1
100
AcDbLine
 10
21.8901789
 20
-17.3308077
 11
21.8901789
 21
-17.3408077
  0
LINE
  5
8F
100
AcDbEntity
  8
brutal_ansi_fixed v3_0
  6
ByLayer
 62
  256
370
   -1
100
AcDbLine
 10
30.5151789
 20
-17.1308077
 11
22.0901789
 21
-17.1308077
  0
LINE
  5
90
100
AcDbEntity
  8
brutal_ansi_fixed v3_0
  6
ByLayer
 62
  256
370
   -1
100
AcDbLine
 10
20.9901789
 20
-17.1308077
 11
12.5651789
 21
-17.1308077
  0
ARC
  5
91
100
AcDbEntity
  8
brutal_ansi_fixed v3_0
  6
ByLayer
 62
  256
370
   -1
100
AcDbCircle
 10
30.5151789
 20
-17.3308077
 40
0.1999999999999993
100
AcDbArc
 50
359.999999999999
 51
90
  0
CIRCLE
  5
92
100
AcDbEntity
  8
brutal_ansi_fixed v3_0
  6
ByLayer
 62
  256
370
   -1
100
AcDbCircle
 10
31.06
 20
-7.409999999999998
 40
0.11
  0
CIRCLE
  5
93
100
AcDbEntity
  8
brutal_ansi_fixed v3_0
  6
ByLayer
 62
  256
370
   -1
100
AcDbCircle
 10
12.01
 20
-7.39
 40
0.11
  0
ARC
  5
94
100
AcDbEntity
  8
brutal_ansi_fixed v3_0
  6
ByLayer
 62
  256
370
   -1
100
AcDbCircle
 10
7.452678899999997
 20
-7.805795299999998
 40
0.1999999999999984
100
AcDbArc
 50
89.99999999999974
 51
-179.9999999999997
  0
LINE
  5
95
100
AcDbEntity
  8
brutal_ansi_fixed v3_0
  6
ByLayer
 62
  256
370
   -1
100
AcDbLine
 10
12.3651789
 20
-17.3308077
 11
12.3651789
 21
-17.3408077
  0
LINE
  5
96
100
AcDbEntity
  8
brutal_ansi_fixed v3_0
  6
ByLayer
 62
  256
370
   -1
100
AcDbLine
 10
30.7151789
 20
-17.34080769999999
 11
30.7151789
 21
-17.3308077
  0
LINE
  5
97
100
AcDbEntity
  8
brutal_ansi_fixed v3_0
  6
ByLayer
 62
  256
370
   -1
100
AcDbLine
 10
7.352678899999998
 20
-17.1308077
 11
7.351101033221536
 21
-17.13079526529138
  0
ARC
  5
98
100
AcDbEntity
  8
brutal_ansi_fixed v3_0
  6
ByLayer
 62
  256
370
   -1
100
AcDbCircle
 10
30.51517890000001
 20
-7.4058077
 40
0.2000000493650003
100
AcDbArc
 50
270.6392907667864
 51
359.9999992869547
  0
ARC
  5
99
100
AcDbEntity
  8
brutal_ansi_fixed v3_0
  6
ByLayer
 62
  256
370
   -1
100
AcDbCircle
 10
20.99017890000001
 20
-17.3308077
 40
0.1999999999999957
100
AcDbArc
 50
359.999999999999
 51
90.00000000000205
  0
ARC
  5
9A
100
AcDbEntity
  8
brutal_ansi_fixed v3_0
  6
ByLayer
 62
  256
370
   -1
100
AcDbCircle
 10
21.5401789
 20
-7.395807700000001
 40
0.3500000000000014
100
AcDbArc
 50
-1.017777498068325e-013
 51
179.9999999999999
  0
ARC
  5
9B
100
AcDbEntity
  8
brutal_ansi_fixed v3_0
  6
ByLayer
 62
  256
370
   -1
100
AcDbCircle
 10
22.09017890000001
 20
-17.33080770000001
 40
0.2000000000000064
100
AcDbArc
 50
90.00000000000205
 51
179.999999999999
  0
LINE
  5
9C
100
AcDbEntity
  8
brutal_ansi_fixed v3_0
  6
ByLayer
 62
  256
370
   -1
100
AcDbLine
 10
21.8901789
 20
-17.3308077
 11
21.8901789
 21
-17.3408077
  0
LINE
  5
9D
100
AcDbEntity
  8
brutal_ansi_fixed v3_0
  6
ByLayer
 62
  256
370
   -1
100
AcDbLine
 10
31.4151789
 20
-17.3308077
 11
31.41517890000001
 21
-17.3408077
  0
ARC
  5
9E
100
AcDbEntity
  8
brutal_ansi_fixed v3_0
  6
ByLayer
 62
  256
370
   -1
100
AcDbCircle
 10
11.46517889999999
 20
-7.405807699999997
 40
0.200000049365003
100
AcDbArc
 50
270.6392907667874
 51
359.9999992869539
  0
LINE
  5
9F
100
AcDbEntity
  8
brutal_ansi_fixed v3_0
  6
ByLayer
 62
  256
370
   -1
100
AcDbLine
 10
30.71517894936501
 20
-7.405807702488998
 11
30.71517890000001
 21
-7.3958077
  0
ARC
  5
A0
100
AcDbEntity
  8
brutal_ansi_fixed v3_0
  6
ByLayer
 62
  256
370
   -1
100
AcDbCircle
 10
12.0151789
 20
-7.395807699999999
 40
0.3499999999999996
100
AcDbArc
 50
2.035554996136651e-013
 51
-179.9999999999998
  0
ARC
  5
A1
100
AcDbEntity
  8
brutal_ansi_fixed v3_0
  6
ByLayer
 62
  256
370
   -1
100
AcDbCircle
 10
7.452678899999998
 20
-16.9585108
 40
0.1999999999999993
100
AcDbArc
 50
179.999999999999
 51
-120.5233413255352
  0
LINE
  5
A2
100
AcDbEntity
  8
brutal_ansi_fixed v3_0
  6
ByLayer
 62
  256
370
   -1
100
AcDbLine
 10
21.19017894936501
 20
-7.405807702488998
 11
21.1901789
 21
-7.3958077
  0
LINE
  5
A3
100
AcDbEntity
  8
brutal_ansi_fixed v3_0
  6
ByLayer
 62
  256
370
   -1
100
AcDbLine
 10
7.252678899999998
 20
-16.9585108
 11
7.252678899999999
 21
-7.805795299999999
  0
ARC
  5
A4
100
AcDbEntity
  8
brutal_ansi_fixed v3_0
  6
ByLayer
 62
  256
370
   -1
100
AcDbCircle
 10
31.61517889999986
 20
-7.405807699999865
 40
0.1999999999998572
100
AcDbArc
 50
180.0000000000381
 51
269.3607085199352
  0
LINE
  5
A5
100
AcDbEntity
  8
brutal_ansi_fixed v3_0
  6
ByLayer
 62
  256
370
   -1
100
AcDbLine
 10
30.5151789
 20
-17.1308077
 11
22.0901789
 21
-17.1308077
  0
LINE
  5
A6
100
AcDbEntity
  8
brutal_ansi_fixed v3_0
  6
ByLayer
 62
  256
370
   -1
100
AcDbLine
 10
7.452678899999998
 20
-7.6057953
 11
11.4674104
 21
-7.605795299999981
  0
LINE
  5
A7
100
AcDbEntity
  8
brutal_ansi_fixed v3_0
  6
ByLayer
 62
  256
370
   -1
100
AcDbLine
 10
21.19017890000001
 20
-17.3408077
 11
21.19017890000001
 21
-17.3308077
  0
ARC
  5
A8
100
AcDbEntity
  8
brutal_ansi_fixed v3_0
  6
ByLayer
 62
  256
370
   -1
100
AcDbCircle
 10
11.4651789
 20
-17.3308077
 40
0.2000000000000028
100
AcDbArc
 50
0
 51
89.99999999999947
  0
LINE
  5
A9
100
AcDbEntity
  8
brutal_ansi_fixed v3_0
  6
ByLayer
 62
  256
370
   -1
100
AcDbLine
 10
22.087947398061
 20
-7.605795250609998
 11
30.51741040000001
 21
-7.605795299999981
  0
ARC
  5
AA
100
AcDbEntity
  8
brutal_ansi_fixed v3_0
  6
ByLayer
 62
  256
370
   -1
100
AcDbCircle
 10
31.06517890000001
 20
-17.34080769999999
 40
0.350000000000005
100
AcDbArc
 50
179.9999999999994
 51
-5.852220613892871e-013
  0
LINE
  5
AB
100
AcDbEntity
  8
brutal_ansi_fixed v3_0
  6
ByLayer
 62
  256
370
   -1
100
AcDbLine
 10
31.4151789
 20
-7.3958077
 11
31.41517890000001
 21
-7.405807699999998
  0
LINE
  5
AC
100
AcDbEntity
  8
brutal_ansi_fixed v3_0
  6
ByLayer
 62
  256
370
   -1
100
AcDbLine
 10
31.612947398061
 20
-7.605795250609998
 11
35.6276789
 21
-7.605795299999998
  0
ARC
  5
AD
100
AcDbEntity
  8
brutal_ansi_fixed v3_0
  6
ByLayer
 62
  256
370
   -1
100
AcDbCircle
 10
30.5151789
 20
-17.3308077
 40
0.1999999999999993
100
AcDbArc
 50
359.999999999999
 51
90
  0
LINE
  5
AE
100
AcDbEntity
  8
brutal_ansi_fixed v3_0
  6
ByLayer
 62
  256
370
   -1
100
AcDbLine
 10
35.7276789
 20
-17.1308077
 11
31.61517890000001
 21
-17.1308077
  0
LINE
  5
AF
100
AcDbEntity
  8
brutal_ansi_fixed v3_0
  6
ByLayer
 62
  256
370
   -1
100
AcDbLine
 10
11.4651789
 20
-17.1308077
 11
7.352678899999998
 21
-17.1308077
  0
LINE
  5
B0
100
AcDbEntity
  8
brutal_ansi_fixed v3_0
  6
ByLayer
 62
  256
370
   -1
100
AcDbLine
 10
21.89017890000001
 20
-7.395807700000002
 11
21.8901789
 21
-7.405807699999998
  0
ARC
  5
B1
100
AcDbEntity
  8
brutal_ansi_fixed v3_0
  6
ByLayer
 62
  256
370
   -1
100
AcDbCircle
 10
22.09017889999986
 20
-7.405807699999862
 40
0.1999999999998607
100
AcDbArc
 50
180.0000000000389
 51
269.3607085199372
  0
LINE
  5
B2
100
AcDbEntity
  8
brutal_ansi_fixed v3_0
  6
ByLayer
 62
  256
370
   -1
100
AcDbLine
 10
20.9901789
 20
-17.1308077
 11
12.5651789
 21
-17.1308077
  0
ARC
  5
B3
100
AcDbEntity
  8
brutal_ansi_fixed v3_0
  6
ByLayer
 62
  256
370
   -1
100
AcDbCircle
 10
31.06517890000001
 20
-7.395807699999997
 40
0.3499999999999979
100
AcDbArc
 50
4.071109992273301e-013
 51
-179.9999999999996
  0
ARC
  5
B4
100
AcDbEntity
  8
brutal_ansi_fixed v3_0
  6
ByLayer
 62
  256
370
   -1
100
AcDbCircle
 10
12.56517889999986
 20
-7.405807699999862
 40
0.1999999999998625
100
AcDbArc
 50
180.0000000000389
 51
269.3607085199363
  0
LINE
  5
B5
100
AcDbEntity
  8
brutal_ansi_fixed v3_0
  6
ByLayer
 62
  256
370
   -1
100
AcDbLine
 10
12.3651789
 20
-7.3958077
 11
12.3651789
 21
-7.405807699999998
  0
ARC
  5
B6
100
AcDbEntity
  8
brutal_ansi_fixed v3_0
  6
ByLayer
 62
  256
370
   -1
100
AcDbCircle
 10
12.5651789
 20
-17.3308077
 40
0.2000000000000028
100
AcDbArc
 50
90.00000000000152
 51
179.999999999999
  0
LINE
  5
B7
100
AcDbEntity
  8
acoustic-cutouts
  6
ByLayer
 62
  256
370
   -1
100
AcDbLine
 10
9.979553900000001
 20
-13.0182953
 11
9.979553900000001
 21
-11.7182953
  0
LINE
  5
B8
100
AcDbEntity
  8
acoustic-cutouts
  6
ByLayer
 62
  256
370
   -1
100
AcDbLine
 10
10.0295539
 20
-11.6682953
 11
10.1295539
 21
-11.6682953
  0
ARC
  5
B9
100
AcDbEntity
  8
acoustic-cutouts
  6
ByLayer
 62
  256
370
   -1
100
AcDbCircle
 10
10.0295539
 20
-11.7182953
 40
0.0499999999999989
100
AcDbArc
 50
89.99999999999594
 51
180
  0
ARC
  5
BA
100
AcDbEntity
  8
acoustic-cutouts
  6
ByLayer
 62
  256
370
   -1
100
AcDbCircle
 10
9.791428899999998
 20
-9.813295299999997
 40
0.0499999999999972
100
AcDbArc
 50
89.99999999999797
 51
180.000000000004
  0
ARC
  5
BB
100
AcDbEntity
  8
acoustic-cutouts
  6
ByLayer
 62
  256
370
   -1
100
AcDbCircle
 10
7.471428899999999
 20
-11.1132953
 40
0.0500000000000007
100
AcDbArc
 50
180
 51
-90.00000000000102
  0
LINE
  5
BC
100
AcDbEntity
  8
acoustic-cutouts
  6
ByLayer
 62
  256
370
   -1
100
AcDbLine
 10
9.7914289
 20
-11.1632953
 11
9.891428900000001
 21
-11.1632953
  0
ARC
  5
BD
100
AcDbEntity
  8
acoustic-cutouts
  6
ByLayer
 62
  256
370
   -1
100
AcDbCircle
 10
10.1295539
 20
-13.0182953
 40
0.0500000000000007
100
AcDbArc
 50
-89.99999999999801
 51
0
  0
ARC
  5
BE
100
AcDbEntity
  8
acoustic-cutouts
  6
ByLayer
 62
  256
370
   -1
100
AcDbCircle
 10
7.571428899999997
 20
-9.8132953
 40
0.0500000000000007
100
AcDbArc
 50
0
 51
89.99999999999898
  0
LINE
  5
BF
100
AcDbEntity
  8
acoustic-cutouts
  6
ByLayer
 62
  256
370
   -1
100
AcDbLine
 10
10.1795539
 20
-11.7182953
 11
10.1795539
 21
-13.0182953
  0
ARC
  5
C0
100
AcDbEntity
  8
acoustic-cutouts
  6
ByLayer
 62
  256
370
   -1
100
AcDbCircle
 10
10.1295539
 20
-11.7182953
 40
0.0499999999999989
100
AcDbArc
 50
-1.984666121233234e-012
 51
90
  0
ARC
  5
C1
100
AcDbEntity
  8
acoustic-cutouts
  6
ByLayer
 62
  256
370
   -1
100
AcDbCircle
 10
9.891428900000005
 20
-9.813295299999997
 40
0.0499999999999954
100
AcDbArc
 50
359.9999999999959
 51
90.00000000000406
  0
ARC
  5
C2
100
AcDbEntity
  8
acoustic-cutouts
  6
ByLayer
 62
  256
370
   -1
100
AcDbCircle
 10
7.471428899999999
 20
-9.8132953
 40
0.0500000000000007
100
AcDbArc
 50
90.00000000000102
 51
180
  0
ARC
  5
C3
100
AcDbEntity
  8
acoustic-cutouts
  6
ByLayer
 62
  256
370
   -1
100
AcDbCircle
 10
9.891428900000003
 20
-11.1132953
 40
0.0499999999999972
100
AcDbArc
 50
269.999999999998
 51
4.0711e-012
  0
LINE
  5
C4
100
AcDbEntity
  8
acoustic-cutouts
  6
ByLayer
 62
  256
370
   -1
100
AcDbLine
 10
7.621428899999997
 20
-9.8132953
 11
7.621428899999999
 21
-11.1132953
  0
LINE
  5
C5
100
AcDbEntity
  8
acoustic-cutouts
  6
ByLayer
 62
  256
370
   -1
100
AcDbLine
 10
9.9414289
 20
-11.1132953
 11
9.9414289
 21
-9.8132953
  0
LINE
  5
C6
100
AcDbEntity
  8
acoustic-cutouts
  6
ByLayer
 62
  256
370
   -1
100
AcDbLine
 10
10.1295539
 20
-13.0682953
 11
10.0295539
 21
-13.0682953
  0
LINE
  5
C7
100
AcDbEntity
  8
acoustic-cutouts
  6
ByLayer
 62
  256
370
   -1
100
AcDbLine
 10
9.741428900000001
 20
-9.8132953
 11
9.741428900000001
 21
-11.1132953
  0
LINE
  5
C8
100
AcDbEntity
  8
acoustic-cutouts
  6
ByLayer
 62
  256
370
   -1
100
AcDbLine
 10
7.421428899999998
 20
-11.1132953
 11
7.421428899999998
 21
-9.8132953
  0
LINE
  5
C9
100
AcDbEntity
  8
acoustic-cutouts
  6
ByLayer
 62
  256
370
   -1
100
AcDbLine
 10
9.891428900000001
 20
-9.763295300000001
 11
9.7914289
 21
-9.763295299999999
  0
ARC
  5
CA
100
AcDbEntity
  8
acoustic-cutouts
  6
ByLayer
 62
  256
370
   -1
100
AcDbCircle
 10
10.0295539
 20
-13.0182953
 40
0.0500000000000007
100
AcDbArc
 50
180
 51
-89.99999999999592
  0
LINE
  5
CB
100
AcDbEntity
  8
acoustic-cutouts
  6
ByLayer
 62
  256
370
   -1
100
AcDbLine
 10
7.571428899999998
 20
-11.1632953
 11
7.471428899999998
 21
-11.1632953
  0
ARC
  5
CC
100
AcDbEntity
  8
acoustic-cutouts
  6
ByLayer
 62
  256
370
   -1
100
AcDbCircle
 10
9.791428899999998
 20
-11.1132953
 40
0.0499999999999972
100
AcDbArc
 50
179.9999999999959
 51
270.0000000000021
  0
LINE
  5
CD
100
AcDbEntity
  8
acoustic-cutouts
  6
ByLayer
 62
  256
370
   -1
100
AcDbLine
 10
7.471428899999998
 20
-9.763295299999999
 11
7.571428899999998
 21
-9.763295299999999
  0
ARC
  5
CE
100
AcDbEntity
  8
acoustic-cutouts
  6
ByLayer
 62
  256
370
   -1
100
AcDbCircle
 10
7.571428899999999
 20
-11.1132953
 40
0.0499999999999998
100
AcDbArc
 50
-90.00000000000209
 51
0
  0
ARC
  5
CF
100
AcDbEntity
  8
acoustic-cutouts
  6
ByLayer
 62
  256
370
   -1
100
AcDbCircle
 10
33.2889289
 20
-9.813295300000007
 40
0.0500000000000114
100
AcDbArc
 50
1.01778e-011
 51
89.99999999999186
  0
LINE
  5
D0
100
AcDbEntity
  8
acoustic-cutouts
  6
ByLayer
 62
  256
370
   -1
100
AcDbLine
 10
35.5089289
 20
-11.1632953
 11
35.6089289
 21
-11.1632953
  0
LINE
  5
D1
100
AcDbEntity
  8
acoustic-cutouts
  6
ByLayer
 62
  256
370
   -1
100
AcDbLine
 10
33.2889289
 20
-9.763295300000001
 11
33.1889289
 21
-9.763295299999999
  0
ARC
  5
D2
100
AcDbEntity
  8
acoustic-cutouts
  6
ByLayer
 62
  256
370
   -1
100
AcDbCircle
 10
33.28892890000002
 20
-11.11329530000001
 40
0.0499999999999865
100
AcDbArc
 50
269.9999999999838
 51
1.62844e-011
  0
LINE
  5
D3
100
AcDbEntity
  8
acoustic-cutouts
  6
ByLayer
 62
  256
370
   -1
100
AcDbLine
 10
33.33892890000001
 20
-11.1132953
 11
33.33892890000001
 21
-9.8132953
  0
LINE
  5
D4
100
AcDbEntity
  8
acoustic-cutouts
  6
ByLayer
 62
  256
370
   -1
100
AcDbLine
 10
35.6089289
 20
-9.763295300000001
 11
35.5089289
 21
-9.763295300000001
  0
ARC
  5
D5
100
AcDbEntity
  8
acoustic-cutouts
  6
ByLayer
 62
  256
370
   -1
100
AcDbCircle
 10
35.5089289
 20
-11.1132953
 40
0.0499999999999972
100
AcDbArc
 50
179.9999999999939
 51
270
  0
ARC
  5
D6
100
AcDbEntity
  8
acoustic-cutouts
  6
ByLayer
 62
  256
370
   -1
100
AcDbCircle
 10
33.18892889999999
 20
-9.813295299999988
 40
0.0499999999999883
100
AcDbArc
 50
89.99999999999186
 51
180.0000000000142
  0
LINE
  5
D7
100
AcDbEntity
  8
acoustic-cutouts
  6
ByLayer
 62
  256
370
   -1
100
AcDbLine
 10
33.1389289
 20
-9.8132953
 11
33.1389289
 21
-11.1132953
  0
ARC
  5
D8
100
AcDbEntity
  8
acoustic-cutouts
  6
ByLayer
 62
  256
370
   -1
100
AcDbCircle
 10
33.18892889999999
 20
-11.11329530000001
 40
0.0499999999999901
100
AcDbArc
 50
179.9999999999857
 51
270.0000000000081
  0
LINE
  5
D9
100
AcDbEntity
  8
acoustic-cutouts
  6
ByLayer
 62
  256
370
   -1
100
AcDbLine
 10
33.1889289
 20
-11.1632953
 11
33.2889289
 21
-11.1632953
  0
LINE
  5
DA
100
AcDbEntity
  8
acoustic-cutouts
  6
ByLayer
 62
  256
370
   -1
100
AcDbLine
 10
33.1389289
 20
-9.8132953
 11
33.1389289
 21
-11.1132953
  0
ARC
  5
DB
100
AcDbEntity
  8
acoustic-cutouts
  6
ByLayer
 62
  256
370
   -1
100
AcDbCircle
 10
33.18892889999999
 20
-11.11329530000001
 40
0.0499999999999901
100
AcDbArc
 50
179.9999999999857
 51
270.0000000000081
  0
LINE
  5
DC
100
AcDbEntity
  8
acoustic-cutouts
  6
ByLayer
 62
  256
370
   -1
100
AcDbLine
 10
33.1889289
 20
-11.1632953
 11
33.2889289
 21
-11.1632953
  0
ARC
  5
DD
100
AcDbEntity
  8
acoustic-cutouts
  6
ByLayer
 62
  256
370
   -1
100
AcDbCircle
 10
35.60892890000001
 20
-11.11329530000001
 40
0.0499999999999883
100
AcDbArc
 50
269.9999999999919
 51
1.42489e-011
  0
ARC
  5
DE
100
AcDbEntity
  8
acoustic-cutouts
  6
ByLayer
 62
  256
370
   -1
100
AcDbCircle
 10
35.6089289
 20
-9.813295300000007
 40
0.0500000000000043
100
AcDbArc
 50
8.142200000000001e-012
 51
89.99999999999186
  0
LINE
  5
DF
100
AcDbEntity
  8
acoustic-cutouts
  6
ByLayer
 62
  256
370
   -1
100
AcDbLine
 10
35.45892890000001
 20
-9.8132953
 11
35.45892890000001
 21
-11.1132953
  0
ARC
  5
E0
100
AcDbEntity
  8
acoustic-cutouts
  6
ByLayer
 62
  256
370
   -1
100
AcDbCircle
 10
35.5089289
 20
-9.813295299999995
 40
0.0499999999999936
100
AcDbArc
 50
90
 51
180.0000000000061
  0
LINE
  5
E1
100
AcDbEntity
  8
acoustic-cutouts
  6
ByLayer
 62
  256
370
   -1
100
AcDbLine
 10
35.6589289
 20
-11.1132953
 11
35.6589289
 21
-9.8132953
  0
ARC
  5
E2
100
AcDbEntity
  8
acoustic-cutouts
  6
ByLayer
 62
  256
370
   -1
100
AcDbCircle
 10
35.5089289
 20
-9.813295299999995
 40
0.0499999999999936
100
AcDbArc
 50
90
 51
180.0000000000061
  0
ARC
  5
E3
100
AcDbEntity
  8
acoustic-cutouts
  6
ByLayer
 62
  256
370
   -1
100
AcDbCircle
 10
33.28892890000002
 20
-11.11329530000001
 40
0.0499999999999865
100
AcDbArc
 50
269.9999999999838
 51
1.62844e-011
  0
LINE
  5
E4
100
AcDbEntity
  8
acoustic-cutouts
  6
ByLayer
 62
  256
370
   -1
100
AcDbLine
 10
35.45892890000001
 20
-9.8132953
 11
35.45892890000001
 21
-11.1132953
  0
LINE
  5
E5
100
AcDbEntity
  8
acoustic-cutouts
  6
ByLayer
 62
  256
370
   -1
100
AcDbLine
 10
35.5089289
 20
-11.1632953
 11
35.6089289
 21
-11.1632953
  0
ARC
  5
E6
100
AcDbEntity
  8
acoustic-cutouts
  6
ByLayer
 62
  256
370
   -1
100
AcDbCircle
 10
35.6089289
 20
-9.813295300000007
 40
0.0500000000000043
100
AcDbArc
 50
8.142200000000001e-012
 51
89.99999999999186
  0
ARC
  5
E7
100
AcDbEntity
  8
acoustic-cutouts
  6
ByLayer
 62
  256
370
   -1
100
AcDbCircle
 10
35.5089289
 20
-11.1132953
 40
0.0499999999999972
100
AcDbArc
 50
179.9999999999939
 51
270
  0
ARC
  5
E8
100
AcDbEntity
  8
acoustic-cutouts
  6
ByLayer
 62
  256
370
   -1
100
AcDbCircle
 10
33.18892889999999
 20
-9.813295299999988
 40
0.0499999999999883
100
AcDbArc
 50
89.99999999999186
 51
180.0000000000142
  0
LINE
  5
E9
100
AcDbEntity
  8
acoustic-cutouts
  6
ByLayer
 62
  256
370
   -1
100
AcDbLine
 10
35.6589289
 20
-11.1132953
 11
35.6589289
 21
-9.8132953
  0
ARC
  5
EA
100
AcDbEntity
  8
acoustic-cutouts
  6
ByLayer
 62
  256
370
   -1
100
AcDbCircle
 10
35.60892890000001
 20
-11.11329530000001
 40
0.0499999999999883
100
AcDbArc
 50
269.9999999999919
 51
1.42489e-011
  0
LINE
  5
EB
100
AcDbEntity
  8
acoustic-cutouts
  6
ByLayer
 62
  256
370
   -1
100
AcDbLine
 10
35.6089289
 20
-9.763295300000001
 11
35.5089289
 21
-9.763295300000001
  0
LINE
  5
EC
100
AcDbEntity
  8
acoustic-cutouts
  6
ByLayer
 62
  256
370
   -1
100
AcDbLine
 10
10.1295539
 20
-13.0682953
 11
10.0295539
 21
-13.0682953
  0
ARC
  5
ED
100
AcDbEntity
  8
acoustic-cutouts
  6
ByLayer
 62
  256
370
   -1
100
AcDbCircle
 10
10.0295539
 20
-13.0182953
 40
0.0500000000000007
100
AcDbArc
 50
180
 51
-89.99999999999592
  0
ARC
  5
EE
100
AcDbEntity
  8
acoustic-cutouts
  6
ByLayer
 62
  256
370
   -1
100
AcDbCircle
 10
7.571428899999997
 20
-9.8132953
 40
0.0500000000000007
100
AcDbArc
 50
0
 51
89.99999999999898
  0
LINE
  5
EF
100
AcDbEntity
  8
acoustic-cutouts
  6
ByLayer
 62
  256
370
   -1
100
AcDbLine
 10
9.9414289
 20
-11.1132953
 11
9.9414289
 21
-9.8132953
  0
LINE
  5
F0
100
AcDbEntity
  8
acoustic-cutouts
  6
ByLayer
 62
  256
370
   -1
100
AcDbLine
 10
10.0295539
 20
-11.6682953
 11
10.1295539
 21
-11.6682953
  0
LINE
  5
F1
100
AcDbEntity
  8
acoustic-cutouts
  6
ByLayer
 62
  256
370
   -1
100
AcDbLine
 10
7.471428899999998
 20
-9.763295299999999
 11
7.571428899999998
 21
-9.763295299999999
  0
ARC
  5
F2
100
AcDbEntity
  8
acoustic-cutouts
  6
ByLayer
 62
  256
370
   -1
100
AcDbCircle
 10
7.471428899999999
 20
-11.1132953
 40
0.0500000000000007
100
AcDbArc
 50
180
 51
-90.00000000000102
  0
ARC
  5
F3
100
AcDbEntity
  8
acoustic-cutouts
  6
ByLayer
 62
  256
370
   -1
100
AcDbCircle
 10
10.0295539
 20
-11.7182953
 40
0.0499999999999989
100
AcDbArc
 50
89.99999999999594
 51
180
  0
ARC
  5
F4
100
AcDbEntity
  8
acoustic-cutouts
  6
ByLayer
 62
  256
370
   -1
100
AcDbCircle
 10
10.1295539
 20
-11.7182953
 40
0.0499999999999989
100
AcDbArc
 50
-1.984666121233234e-012
 51
90
  0
ARC
  5
F5
100
AcDbEntity
  8
acoustic-cutouts
  6
ByLayer
 62
  256
370
   -1
100
AcDbCircle
 10
7.571428899999999
 20
-11.1132953
 40
0.0499999999999998
100
AcDbArc
 50
-90.00000000000209
 51
0
  0
LINE
  5
F6
100
AcDbEntity
  8
acoustic-cutouts
  6
ByLayer
 62
  256
370
   -1
100
AcDbLine
 10
10.1795539
 20
-11.7182953
 11
10.1795539
 21
-13.0182953
  0
LINE
  5
F7
100
AcDbEntity
  8
acoustic-cutouts
  6
ByLayer
 62
  256
370
   -1
100
AcDbLine
 10
7.621428899999997
 20
-9.8132953
 11
7.621428899999999
 21
-11.1132953
  0
ARC
  5
F8
100
AcDbEntity
  8
acoustic-cutouts
  6
ByLayer
 62
  256
370
   -1
100
AcDbCircle
 10
10.1295539
 20
-13.0182953
 40
0.0500000000000007
100
AcDbArc
 50
-89.99999999999801
 51
0
  0
ARC
  5
F9
100
AcDbEntity
  8
acoustic-cutouts
  6
ByLayer
 62
  256
370
   -1
100
AcDbCircle
 10
7.471428899999999
 20
-9.8132953
 40
0.0500000000000007
100
AcDbArc
 50
90.00000000000102
 51
180
  0
LINE
  5
FA
100
AcDbEntity
  8
acoustic-cutouts
  6
ByLayer
 62
  256
370
   -1
100
AcDbLine
 10
9.979553900000001
 20
-13.0182953
 11
9.979553900000001
 21
-11.7182953
  0
LINE
  5
FB
100
AcDbEntity
  8
acoustic-cutouts
  6
ByLayer
 62
  256
370
   -1
100
AcDbLine
 10
9.891428900000001
 20
-9.763295300000001
 11
9.7914289
 21
-9.763295299999999
  0
LINE
  5
FC
100
AcDbEntity
  8
acoustic-cutouts
  6
ByLayer
 62
  256
370
   -1
100
AcDbLine
 10
7.421428899999998
 20
-11.1132953
 11
7.421428899999998
 21
-9.8132953
  0
ARC
  5
FD
100
AcDbEntity
  8
acoustic-cutouts
  6
ByLayer
 62
  256
370
   -1
100
AcDbCircle
 10
9.891428900000003
 20
-11.1132953
 40
0.0499999999999972
100
AcDbArc
 50
269.999999999998
 51
4.0711e-012
  0
ARC
  5
FE
100
AcDbEntity
  8
acoustic-cutouts
  6
ByLayer
 62
  256
370
   -1
100
AcDbCircle
 10
9.891428900000005
 20
-9.813295299999997
 40
0.0499999999999954
100
AcDbArc
 50
359.9999999999959
 51
90.00000000000406
  0
LINE
  5
FF
100
AcDbEntity
  8
acoustic-cutouts
  6
ByLayer
 62
  256
370
   -1
100
AcDbLine
 10
7.571428899999998
 20
-11.1632953
 11
7.471428899999998
 21
-11.1632953
  0
ARC
  5
100
100
AcDbEntity
  8
acoustic-cutouts
  6
ByLayer
 62
  256
370
   -1
100
AcDbCircle
 10
9.791428899999998
 20
-11.1132953
 40
0.0499999999999972
100
AcDbArc
 50
179.9999999999959
 51
270.0000000000021
  0
LINE
  5
101
100
AcDbEntity
  8
acoustic-cutouts
  6
ByLayer
 62
  256
370
   -1
100
AcDbLine
 10
9.741428900000001
 20
-9.8132953
 11
9.741428900000001
 21
-11.1132953
  0
ARC
  5
102
100
AcDbEntity
  8
acoustic-cutouts
  6
ByLayer
 62
  256
370
   -1
100
AcDbCircle
 10
9.791428899999998
 20
-9.813295299999997
 40
0.0499999999999972
100
AcDbArc
 50
89.99999999999797
 51
180.000000000004
  0
LINE
  5
103
100
AcDbEntity
  8
acoustic-cutouts
  6
ByLayer
 62
  256
370
   -1
100
AcDbLine
 10
9.7914289
 20
-11.1632953
 11
9.891428900000001
 21
-11.1632953
  0
LINE
  5
104
100
AcDbEntity
  8
acoustic-cutouts
  6
ByLayer
 62
  256
370
   -1
100
AcDbLine
 10
33.33892890000001
 20
-11.1132953
 11
33.33892890000001
 21
-9.8132953
  0
ARC
  5
105
100
AcDbEntity
  8
acoustic-cutouts
  6
ByLayer
 62
  256
370
   -1
100
AcDbCircle
 10
33.2889289
 20
-9.813295300000007
 40
0.0500000000000114
100
AcDbArc
 50
1.01778e-011
 51
89.99999999999186
  0
LINE
  5
106
100
AcDbEntity
  8
acoustic-cutouts
  6
ByLayer
 62
  256
370
   -1
100
AcDbLine
 10
33.2889289
 20
-9.763295300000001
 11
33.1889289
 21
-9.763295299999999
  0
LINE
  5
107
100
AcDbEntity
  8
filco-cutouts
  6
ByLayer
 62
    2
370
   -1
100
AcDbLine
 10
16.5539564
 20
-15.4783303
 11
16.5539564
 21
-15.9483803
  0
LINE
  5
108
100
AcDbEntity
  8
filco-cutouts
  6
ByLayer
 62
    2
370
   -1
100
AcDbLine
 10
16.5539564
 20
-15.9483803
 11
15.6870464
 21
-15.9483803
  0
LINE
  5
109
100
AcDbEntity
  8
filco-cutouts
  6
ByLayer
 62
    2
370
   -1
100
AcDbLine
 10
15.6870464
 20
-15.9483803
 11
15.6870464
 21
-15.6253603
  0
LINE
  5
10A
100
AcDbEntity
  8
filco-cutouts
  6
ByLayer
 62
    2
370
   -1
100
AcDbLine
 10
15.6870464
 20
-15.6253603
 11
15.0113664
 21
-15.6253603
  0
LINE
  5
10B
100
AcDbEntity
  8
filco-cutouts
  6
ByLayer
 62
    2
370
   -1
100
AcDbLine
 10
15.0113664
 20
-15.6253603
 11
15.0113664
 21
-15.9483803
  0
LINE
  5
10C
100
AcDbEntity
  8
filco-cutouts
  6
ByLayer
 62
    2
370
   -1
100
AcDbLine
 10
15.0113664
 20
-15.9483803
 11
14.9288164
 21
-15.9483803
  0
LINE
  5
10D
100
AcDbEntity
  8
filco-cutouts
  6
ByLayer
 62
    2
370
   -1
100
AcDbLine
 10
14.9288164
 20
-15.9483803
 11
14.9288164
 21
-16.2282563
  0
LINE
  5
10E
100
AcDbEntity
  8
filco-cutouts
  6
ByLayer
 62
    2
370
   -1
100
AcDbLine
 10
14.9288164
 20
-16.2282563
 11
15.0113664
 21
-16.2282563
  0
LINE
  5
10F
100
AcDbEntity
  8
filco-cutouts
  6
ByLayer
 62
    2
370
   -1
100
AcDbLine
 10
15.0113664
 20
-16.2282563
 11
15.0113664
 21
-16.8552633
  0
LINE
  5
110
100
AcDbEntity
  8
filco-cutouts
  6
ByLayer
 62
    2
370
   -1
100
AcDbLine
 10
15.0113664
 20
-16.8552633
 11
15.1839064
 21
-16.8552633
  0
LINE
  5
111
100
AcDbEntity
  8
filco-cutouts
  6
ByLayer
 62
    2
370
   -1
100
AcDbLine
 10
15.1839064
 20
-16.8552633
 11
15.1839064
 21
-16.9752903
  0
LINE
  5
112
100
AcDbEntity
  8
filco-cutouts
  6
ByLayer
 62
    2
370
   -1
100
AcDbLine
 10
15.1839064
 20
-16.9752903
 11
15.5144964
 21
-16.9752903
  0
LINE
  5
113
100
AcDbEntity
  8
filco-cutouts
  6
ByLayer
 62
    2
370
   -1
100
AcDbLine
 10
15.5144964
 20
-16.9752903
 11
15.5144964
 21
-16.8552633
  0
LINE
  5
114
100
AcDbEntity
  8
filco-cutouts
  6
ByLayer
 62
    2
370
   -1
100
AcDbLine
 10
15.5144964
 20
-16.8552633
 11
15.6870464
 21
-16.8552633
  0
LINE
  5
115
100
AcDbEntity
  8
filco-cutouts
  6
ByLayer
 62
    2
370
   -1
100
AcDbLine
 10
15.6870464
 20
-16.8552633
 11
15.6870464
 21
-16.4082293
  0
LINE
  5
116
100
AcDbEntity
  8
filco-cutouts
  6
ByLayer
 62
    2
370
   -1
100
AcDbLine
 10
15.6870464
 20
-16.4082293
 11
16.5539564
 21
-16.4082293
  0
LINE
  5
117
100
AcDbEntity
  8
filco-cutouts
  6
ByLayer
 62
    2
370
   -1
100
AcDbLine
 10
16.5539564
 20
-16.4082293
 11
16.5539564
 21
-16.8782763
  0
LINE
  5
118
100
AcDbEntity
  8
filco-cutouts
  6
ByLayer
 62
    2
370
   -1
100
AcDbLine
 10
16.5539564
 20
-16.8782763
 11
17.9539364
 21
-16.8782763
  0
LINE
  5
119
100
AcDbEntity
  8
filco-cutouts
  6
ByLayer
 62
    2
370
   -1
100
AcDbLine
 10
17.9539364
 20
-16.8782763
 11
17.9539364
 21
-16.4082293
  0
LINE
  5
11A
100
AcDbEntity
  8
filco-cutouts
  6
ByLayer
 62
    2
370
   -1
100
AcDbLine
 10
17.9539364
 20
-16.4082293
 11
18.8213364
 21
-16.4082293
  0
LINE
  5
11B
100
AcDbEntity
  8
filco-cutouts
  6
ByLayer
 62
    2
370
   -1
100
AcDbLine
 10
18.8213364
 20
-16.4082293
 11
18.8213364
 21
-16.8552633
  0
LINE
  5
11C
100
AcDbEntity
  8
filco-cutouts
  6
ByLayer
 62
    2
370
   -1
100
AcDbLine
 10
18.8213364
 20
-16.8552633
 11
18.9939364
 21
-16.8552633
  0
LINE
  5
11D
100
AcDbEntity
  8
filco-cutouts
  6
ByLayer
 62
    2
370
   -1
100
AcDbLine
 10
18.9939364
 20
-16.8552633
 11
18.9939364
 21
-16.9752903
  0
LINE
  5
11E
100
AcDbEntity
  8
filco-cutouts
  6
ByLayer
 62
    2
370
   -1
100
AcDbLine
 10
18.9939364
 20
-16.9752903
 11
19.3239364
 21
-16.9752903
  0
LINE
  5
11F
100
AcDbEntity
  8
filco-cutouts
  6
ByLayer
 62
    2
370
   -1
100
AcDbLine
 10
19.3239364
 20
-16.9752903
 11
19.3239364
 21
-16.8552633
  0
LINE
  5
120
100
AcDbEntity
  8
filco-cutouts
  6
ByLayer
 62
    2
370
   -1
100
AcDbLine
 10
19.3239364
 20
-16.8552633
 11
19.4963364
 21
-16.8552633
  0
LINE
  5
121
100
AcDbEntity
  8
filco-cutouts
  6
ByLayer
 62
    2
370
   -1
100
AcDbLine
 10
19.4963364
 20
-16.8552633
 11
19.4963364
 21
-16.4082293
  0
LINE
  5
122
100
AcDbEntity
  8
filco-cutouts
  6
ByLayer
 62
    2
370
   -1
100
AcDbLine
 10
19.4963364
 20
-16.4082293
 11
19.6494364
 21
-16.4082293
  0
LINE
  5
123
100
AcDbEntity
  8
filco-cutouts
  6
ByLayer
 62
    2
370
   -1
100
AcDbLine
 10
19.6494364
 20
-16.4082293
 11
19.6494364
 21
-16.8782763
  0
LINE
  5
124
100
AcDbEntity
  8
filco-cutouts
  6
ByLayer
 62
    2
370
   -1
100
AcDbLine
 10
19.6494364
 20
-16.8782763
 11
21.0495364
 21
-16.8782763
  0
LINE
  5
125
100
AcDbEntity
  8
filco-cutouts
  6
ByLayer
 62
    2
370
   -1
100
AcDbLine
 10
21.0495364
 20
-16.8782763
 11
21.0495364
 21
-16.4082293
  0
LINE
  5
126
100
AcDbEntity
  8
filco-cutouts
  6
ByLayer
 62
    2
370
   -1
100
AcDbLine
 10
21.0495364
 20
-16.4082293
 11
22.5069364
 21
-16.4082293
  0
LINE
  5
127
100
AcDbEntity
  8
filco-cutouts
  6
ByLayer
 62
    2
370
   -1
100
AcDbLine
 10
22.5069364
 20
-16.4082293
 11
22.5069364
 21
-16.8782763
  0
LINE
  5
128
100
AcDbEntity
  8
filco-cutouts
  6
ByLayer
 62
    2
370
   -1
100
AcDbLine
 10
22.5069364
 20
-16.8782763
 11
23.9070364
 21
-16.8782763
  0
LINE
  5
129
100
AcDbEntity
  8
filco-cutouts
  6
ByLayer
 62
    2
370
   -1
100
AcDbLine
 10
23.9070364
 20
-16.8782763
 11
23.9070364
 21
-16.4082293
  0
LINE
  5
12A
100
AcDbEntity
  8
filco-cutouts
  6
ByLayer
 62
    2
370
   -1
100
AcDbLine
 10
23.9070364
 20
-16.4082293
 11
25.0119364
 21
-16.4082293
  0
LINE
  5
12B
100
AcDbEntity
  8
filco-cutouts
  6
ByLayer
 62
    2
370
   -1
100
AcDbLine
 10
25.0119364
 20
-16.4082293
 11
25.0119364
 21
-16.8552633
  0
LINE
  5
12C
100
AcDbEntity
  8
filco-cutouts
  6
ByLayer
 62
    2
370
   -1
100
AcDbLine
 10
25.0119364
 20
-16.8552633
 11
25.1844364
 21
-16.8552633
  0
LINE
  5
12D
100
AcDbEntity
  8
filco-cutouts
  6
ByLayer
 62
    2
370
   -1
100
AcDbLine
 10
25.1844364
 20
-16.8552633
 11
25.1844364
 21
-16.9752903
  0
LINE
  5
12E
100
AcDbEntity
  8
filco-cutouts
  6
ByLayer
 62
    2
370
   -1
100
AcDbLine
 10
25.1844364
 20
-16.9752903
 11
25.5145364
 21
-16.9752903
  0
LINE
  5
12F
100
AcDbEntity
  8
filco-cutouts
  6
ByLayer
 62
    2
370
   -1
100
AcDbLine
 10
25.5145364
 20
-16.9752903
 11
25.5145364
 21
-16.8552633
  0
LINE
  5
130
100
AcDbEntity
  8
filco-cutouts
  6
ByLayer
 62
    2
370
   -1
100
AcDbLine
 10
25.5145364
 20
-16.8552633
 11
25.6870364
 21
-16.8552633
  0
LINE
  5
131
100
AcDbEntity
  8
filco-cutouts
  6
ByLayer
 62
    2
370
   -1
100
AcDbLine
 10
25.6870364
 20
-16.8552633
 11
25.6870364
 21
-16.2282563
  0
LINE
  5
132
100
AcDbEntity
  8
filco-cutouts
  6
ByLayer
 62
    2
370
   -1
100
AcDbLine
 10
25.6870364
 20
-16.2282563
 11
25.7694364
 21
-16.2282563
  0
LINE
  5
133
100
AcDbEntity
  8
filco-cutouts
  6
ByLayer
 62
    2
370
   -1
100
AcDbLine
 10
25.7694364
 20
-16.2282563
 11
25.7694364
 21
-15.9483803
  0
LINE
  5
134
100
AcDbEntity
  8
filco-cutouts
  6
ByLayer
 62
    2
370
   -1
100
AcDbLine
 10
25.7694364
 20
-15.9483803
 11
25.6870364
 21
-15.9483803
  0
LINE
  5
135
100
AcDbEntity
  8
filco-cutouts
  6
ByLayer
 62
    2
370
   -1
100
AcDbLine
 10
25.6870364
 20
-15.9483803
 11
25.6870364
 21
-15.6253603
  0
LINE
  5
136
100
AcDbEntity
  8
filco-cutouts
  6
ByLayer
 62
    2
370
   -1
100
AcDbLine
 10
25.6870364
 20
-15.6253603
 11
25.0119364
 21
-15.6253603
  0
LINE
  5
137
100
AcDbEntity
  8
filco-cutouts
  6
ByLayer
 62
    2
370
   -1
100
AcDbLine
 10
25.0119364
 20
-15.6253603
 11
25.0119364
 21
-15.9483803
  0
LINE
  5
138
100
AcDbEntity
  8
filco-cutouts
  6
ByLayer
 62
    2
370
   -1
100
AcDbLine
 10
25.0119364
 20
-15.9483803
 11
23.9070364
 21
-15.9483803
  0
LINE
  5
139
100
AcDbEntity
  8
filco-cutouts
  6
ByLayer
 62
    2
370
   -1
100
AcDbLine
 10
23.9070364
 20
-15.9483803
 11
23.9070364
 21
-15.4783303
  0
LINE
  5
13A
100
AcDbEntity
  8
filco-cutouts
  6
ByLayer
 62
    2
370
   -1
100
AcDbLine
 10
23.9070364
 20
-15.4783303
 11
22.5069364
 21
-15.4783303
  0
LINE
  5
13B
100
AcDbEntity
  8
filco-cutouts
  6
ByLayer
 62
    2
370
   -1
100
AcDbLine
 10
22.5069364
 20
-15.4783303
 11
22.5069364
 21
-15.9483803
  0
LINE
  5
13C
100
AcDbEntity
  8
filco-cutouts
  6
ByLayer
 62
    2
370
   -1
100
AcDbLine
 10
22.5069364
 20
-15.9483803
 11
21.0495364
 21
-15.9483803
  0
LINE
  5
13D
100
AcDbEntity
  8
filco-cutouts
  6
ByLayer
 62
    2
370
   -1
100
AcDbLine
 10
21.0495364
 20
-15.9483803
 11
21.0495364
 21
-15.4783303
  0
LINE
  5
13E
100
AcDbEntity
  8
filco-cutouts
  6
ByLayer
 62
    2
370
   -1
100
AcDbLine
 10
21.0495364
 20
-15.4783303
 11
19.6494364
 21
-15.4783303
  0
LINE
  5
13F
100
AcDbEntity
  8
filco-cutouts
  6
ByLayer
 62
    2
370
   -1
100
AcDbLine
 10
19.6494364
 20
-15.4783303
 11
19.6494364
 21
-15.9483803
  0
LINE
  5
140
100
AcDbEntity
  8
filco-cutouts
  6
ByLayer
 62
    2
370
   -1
100
AcDbLine
 10
19.6494364
 20
-15.9483803
 11
19.4963364
 21
-15.9483803
  0
LINE
  5
141
100
AcDbEntity
  8
filco-cutouts
  6
ByLayer
 62
    2
370
   -1
100
AcDbLine
 10
19.4963364
 20
-15.9483803
 11
19.4963364
 21
-15.6253603
  0
LINE
  5
142
100
AcDbEntity
  8
filco-cutouts
  6
ByLayer
 62
    2
370
   -1
100
AcDbLine
 10
19.4963364
 20
-15.6253603
 11
18.8213364
 21
-15.6253603
  0
LINE
  5
143
100
AcDbEntity
  8
filco-cutouts
  6
ByLayer
 62
    2
370
   -1
100
AcDbLine
 10
18.8213364
 20
-15.6253603
 11
18.8213364
 21
-15.9483803
  0
LINE
  5
144
100
AcDbEntity
  8
filco-cutouts
  6
ByLayer
 62
    2
370
   -1
100
AcDbLine
 10
18.8213364
 20
-15.9483803
 11
17.9539364
 21
-15.9483803
  0
LINE
  5
145
100
AcDbEntity
  8
filco-cutouts
  6
ByLayer
 62
    2
370
   -1
100
AcDbLine
 10
17.9539364
 20
-15.9483803
 11
17.9539364
 21
-15.4783303
  0
LINE
  5
146
100
AcDbEntity
  8
filco-cutouts
  6
ByLayer
 62
    2
370
   -1
100
AcDbLine
 10
17.9539364
 20
-15.4783303
 11
16.5539564
 21
-15.4783303
  0
LINE
  5
147
100
AcDbEntity
  8
filco-cutouts
  6
ByLayer
 62
    2
370
   -1
100
AcDbLine
 10
34.1752364
 20
-15.4783303
 11
35.57513640000001
 21
-15.4783303
  0
LINE
  5
148
100
AcDbEntity
  8
filco-cutouts
  6
ByLayer
 62
    2
370
   -1
100
AcDbLine
 10
35.57513640000001
 20
-15.4783303
 11
35.57513640000001
 21
-16.8782763
  0
LINE
  5
149
100
AcDbEntity
  8
filco-cutouts
  6
ByLayer
 62
    2
370
   -1
100
AcDbLine
 10
35.57513640000001
 20
-16.8782763
 11
34.1752364
 21
-16.8782763
  0
LINE
  5
14A
100
AcDbEntity
  8
filco-cutouts
  6
ByLayer
 62
    2
370
   -1
100
AcDbLine
 10
34.1752364
 20
-16.8782763
 11
34.1752364
 21
-15.4783303
  0
LINE
  5
14B
100
AcDbEntity
  8
filco-cutouts
  6
ByLayer
 62
    2
370
   -1
100
AcDbLine
 10
32.2702364
 20
-15.4783303
 11
33.6701364
 21
-15.4783303
  0
LINE
  5
14C
100
AcDbEntity
  8
filco-cutouts
  6
ByLayer
 62
    2
370
   -1
100
AcDbLine
 10
33.6701364
 20
-15.4783303
 11
33.6701364
 21
-16.8782763
  0
LINE
  5
14D
100
AcDbEntity
  8
filco-cutouts
  6
ByLayer
 62
    2
370
   -1
100
AcDbLine
 10
33.6701364
 20
-16.8782763
 11
32.2702364
 21
-16.8782763
  0
LINE
  5
14E
100
AcDbEntity
  8
filco-cutouts
  6
ByLayer
 62
    2
370
   -1
100
AcDbLine
 10
32.2702364
 20
-16.8782763
 11
32.2702364
 21
-15.4783303
  0
LINE
  5
14F
100
AcDbEntity
  8
filco-cutouts
  6
ByLayer
 62
    2
370
   -1
100
AcDbLine
 10
30.3652364
 20
-15.4783303
 11
31.7651364
 21
-15.4783303
  0
LINE
  5
150
100
AcDbEntity
  8
filco-cutouts
  6
ByLayer
 62
    2
370
   -1
100
AcDbLine
 10
31.7651364
 20
-15.4783303
 11
31.7651364
 21
-16.8782763
  0
LINE
  5
151
100
AcDbEntity
  8
filco-cutouts
  6
ByLayer
 62
    2
370
   -1
100
AcDbLine
 10
31.7651364
 20
-16.8782763
 11
30.3652364
 21
-16.8782763
  0
LINE
  5
152
100
AcDbEntity
  8
filco-cutouts
  6
ByLayer
 62
    2
370
   -1
100
AcDbLine
 10
30.3652364
 20
-16.8782763
 11
30.3652364
 21
-15.4783303
  0
LINE
  5
153
100
AcDbEntity
  8
filco-cutouts
  6
ByLayer
 62
    2
370
   -1
100
AcDbLine
 10
28.4602364
 20
-15.4783303
 11
29.8601364
 21
-15.4783303
  0
LINE
  5
154
100
AcDbEntity
  8
filco-cutouts
  6
ByLayer
 62
    2
370
   -1
100
AcDbLine
 10
29.8601364
 20
-15.4783303
 11
29.8601364
 21
-16.8782763
  0
LINE
  5
155
100
AcDbEntity
  8
filco-cutouts
  6
ByLayer
 62
    2
370
   -1
100
AcDbLine
 10
29.8601364
 20
-16.8782763
 11
28.4602364
 21
-16.8782763
  0
LINE
  5
156
100
AcDbEntity
  8
filco-cutouts
  6
ByLayer
 62
    2
370
   -1
100
AcDbLine
 10
28.4602364
 20
-16.8782763
 11
28.4602364
 21
-15.4783303
  0
LINE
  5
157
100
AcDbEntity
  8
filco-cutouts
  6
ByLayer
 62
    2
370
   -1
100
AcDbLine
 10
26.5550364
 20
-15.4783303
 11
27.9551364
 21
-15.4783303
  0
LINE
  5
158
100
AcDbEntity
  8
filco-cutouts
  6
ByLayer
 62
    2
370
   -1
100
AcDbLine
 10
27.9551364
 20
-15.4783303
 11
27.9551364
 21
-16.8782763
  0
LINE
  5
159
100
AcDbEntity
  8
filco-cutouts
  6
ByLayer
 62
    2
370
   -1
100
AcDbLine
 10
27.9551364
 20
-16.8782763
 11
26.5550364
 21
-16.8782763
  0
LINE
  5
15A
100
AcDbEntity
  8
filco-cutouts
  6
ByLayer
 62
    2
370
   -1
100
AcDbLine
 10
26.5550364
 20
-16.8782763
 11
26.5550364
 21
-15.4783303
  0
LINE
  5
15B
100
AcDbEntity
  8
filco-cutouts
  6
ByLayer
 62
    2
370
   -1
100
AcDbLine
 10
12.5058364
 20
-15.4783303
 11
13.9057664
 21
-15.4783303
  0
LINE
  5
15C
100
AcDbEntity
  8
filco-cutouts
  6
ByLayer
 62
    2
370
   -1
100
AcDbLine
 10
13.9057664
 20
-15.4783303
 11
13.9057664
 21
-16.8782763
  0
LINE
  5
15D
100
AcDbEntity
  8
filco-cutouts
  6
ByLayer
 62
    2
370
   -1
100
AcDbLine
 10
13.9057664
 20
-16.8782763
 11
12.5058364
 21
-16.8782763
  0
LINE
  5
15E
100
AcDbEntity
  8
filco-cutouts
  6
ByLayer
 62
    2
370
   -1
100
AcDbLine
 10
12.5058364
 20
-16.8782763
 11
12.5058364
 21
-15.4783303
  0
LINE
  5
15F
100
AcDbEntity
  8
filco-cutouts
  6
ByLayer
 62
    2
370
   -1
100
AcDbLine
 10
10.1244364
 20
-15.4783303
 11
11.5245164
 21
-15.4783303
  0
LINE
  5
160
100
AcDbEntity
  8
filco-cutouts
  6
ByLayer
 62
    2
370
   -1
100
AcDbLine
 10
11.5245164
 20
-15.4783303
 11
11.5245164
 21
-16.8782763
  0
LINE
  5
161
100
AcDbEntity
  8
filco-cutouts
  6
ByLayer
 62
    2
370
   -1
100
AcDbLine
 10
11.5245164
 20
-16.8782763
 11
10.1244364
 21
-16.8782763
  0
LINE
  5
162
100
AcDbEntity
  8
filco-cutouts
  6
ByLayer
 62
    2
370
   -1
100
AcDbLine
 10
10.1244364
 20
-16.8782763
 11
10.1244364
 21
-15.4783303
  0
LINE
  5
163
100
AcDbEntity
  8
filco-cutouts
  6
ByLayer
 62
    2
370
   -1
100
AcDbLine
 10
7.7433274
 20
-15.4783303
 11
9.1432764
 21
-15.4783303
  0
LINE
  5
164
100
AcDbEntity
  8
filco-cutouts
  6
ByLayer
 62
    2
370
   -1
100
AcDbLine
 10
9.1432764
 20
-15.4783303
 11
9.1432764
 21
-16.8782763
  0
LINE
  5
165
100
AcDbEntity
  8
filco-cutouts
  6
ByLayer
 62
    2
370
   -1
100
AcDbLine
 10
9.1432764
 20
-16.8782763
 11
7.7433274
 21
-16.8782763
  0
LINE
  5
166
100
AcDbEntity
  8
filco-cutouts
  6
ByLayer
 62
    2
370
   -1
100
AcDbLine
 10
7.7433274
 20
-16.8782763
 11
7.7433274
 21
-15.4783303
  0
LINE
  5
167
100
AcDbEntity
  8
filco-cutouts
  6
ByLayer
 62
    2
370
   -1
100
AcDbLine
 10
8.457706399999999
 20
-13.5733403
 11
8.457706399999999
 21
-14.0433803
  0
LINE
  5
168
100
AcDbEntity
  8
filco-cutouts
  6
ByLayer
 62
    2
370
   -1
100
AcDbLine
 10
8.457706399999999
 20
-14.0433803
 11
8.3051564
 21
-14.0433803
  0
LINE
  5
169
100
AcDbEntity
  8
filco-cutouts
  6
ByLayer
 62
    2
370
   -1
100
AcDbLine
 10
8.3051564
 20
-14.0433803
 11
8.3051564
 21
-13.7203603
  0
LINE
  5
16A
100
AcDbEntity
  8
filco-cutouts
  6
ByLayer
 62
    2
370
   -1
100
AcDbLine
 10
8.3051564
 20
-13.7203603
 11
7.6301914
 21
-13.7203603
  0
LINE
  5
16B
100
AcDbEntity
  8
filco-cutouts
  6
ByLayer
 62
    2
370
   -1
100
AcDbLine
 10
7.6301914
 20
-13.7203603
 11
7.6301914
 21
-14.0433803
  0
LINE
  5
16C
100
AcDbEntity
  8
filco-cutouts
  6
ByLayer
 62
    2
370
   -1
100
AcDbLine
 10
7.6301914
 20
-14.0433803
 11
7.5476454
 21
-14.0433803
  0
LINE
  5
16D
100
AcDbEntity
  8
filco-cutouts
  6
ByLayer
 62
    2
370
   -1
100
AcDbLine
 10
7.5476454
 20
-14.0433803
 11
7.5476454
 21
-14.3232603
  0
LINE
  5
16E
100
AcDbEntity
  8
filco-cutouts
  6
ByLayer
 62
    2
370
   -1
100
AcDbLine
 10
7.5476454
 20
-14.3232603
 11
7.6301914
 21
-14.3232603
  0
LINE
  5
16F
100
AcDbEntity
  8
filco-cutouts
  6
ByLayer
 62
    2
370
   -1
100
AcDbLine
 10
7.6301914
 20
-14.3232603
 11
7.6301914
 21
-14.9502603
  0
LINE
  5
170
100
AcDbEntity
  8
filco-cutouts
  6
ByLayer
 62
    2
370
   -1
100
AcDbLine
 10
7.6301914
 20
-14.9502603
 11
7.8027204
 21
-14.9502603
  0
LINE
  5
171
100
AcDbEntity
  8
filco-cutouts
  6
ByLayer
 62
    2
370
   -1
100
AcDbLine
 10
7.8027204
 20
-14.9502603
 11
7.8027204
 21
-15.0702903
  0
LINE
  5
172
100
AcDbEntity
  8
filco-cutouts
  6
ByLayer
 62
    2
370
   -1
100
AcDbLine
 10
7.8027204
 20
-15.0702903
 11
8.1326214
 21
-15.0702903
  0
LINE
  5
173
100
AcDbEntity
  8
filco-cutouts
  6
ByLayer
 62
    2
370
   -1
100
AcDbLine
 10
8.1326214
 20
-15.0702903
 11
8.1326214
 21
-14.9502603
  0
LINE
  5
174
100
AcDbEntity
  8
filco-cutouts
  6
ByLayer
 62
    2
370
   -1
100
AcDbLine
 10
8.1326214
 20
-14.9502603
 11
8.3051564
 21
-14.9502603
  0
LINE
  5
175
100
AcDbEntity
  8
filco-cutouts
  6
ByLayer
 62
    2
370
   -1
100
AcDbLine
 10
8.3051564
 20
-14.9502603
 11
8.3051564
 21
-14.5033703
  0
LINE
  5
176
100
AcDbEntity
  8
filco-cutouts
  6
ByLayer
 62
    2
370
   -1
100
AcDbLine
 10
8.3051564
 20
-14.5033703
 11
8.457706399999999
 21
-14.5033703
  0
LINE
  5
177
100
AcDbEntity
  8
filco-cutouts
  6
ByLayer
 62
    2
370
   -1
100
AcDbLine
 10
8.457706399999999
 20
-14.5033703
 11
8.457706399999999
 21
-14.9732803
  0
LINE
  5
178
100
AcDbEntity
  8
filco-cutouts
  6
ByLayer
 62
    2
370
   -1
100
AcDbLine
 10
8.457706399999999
 20
-14.9732803
 11
9.8576464
 21
-14.9732803
  0
LINE
  5
179
100
AcDbEntity
  8
filco-cutouts
  6
ByLayer
 62
    2
370
   -1
100
AcDbLine
 10
9.8576464
 20
-14.9732803
 11
9.8576464
 21
-14.5033703
  0
LINE
  5
17A
100
AcDbEntity
  8
filco-cutouts
  6
ByLayer
 62
    2
370
   -1
100
AcDbLine
 10
9.8576464
 20
-14.5033703
 11
10.0101964
 21
-14.5033703
  0
LINE
  5
17B
100
AcDbEntity
  8
filco-cutouts
  6
ByLayer
 62
    2
370
   -1
100
AcDbLine
 10
10.0101964
 20
-14.5033703
 11
10.0101964
 21
-14.9502603
  0
LINE
  5
17C
100
AcDbEntity
  8
filco-cutouts
  6
ByLayer
 62
    2
370
   -1
100
AcDbLine
 10
10.0101964
 20
-14.9502603
 11
10.1827264
 21
-14.9502603
  0
LINE
  5
17D
100
AcDbEntity
  8
filco-cutouts
  6
ByLayer
 62
    2
370
   -1
100
AcDbLine
 10
10.1827264
 20
-14.9502603
 11
10.1827264
 21
-15.0702903
  0
LINE
  5
17E
100
AcDbEntity
  8
filco-cutouts
  6
ByLayer
 62
    2
370
   -1
100
AcDbLine
 10
10.1827264
 20
-15.0702903
 11
10.5126364
 21
-15.0702903
  0
LINE
  5
17F
100
AcDbEntity
  8
filco-cutouts
  6
ByLayer
 62
    2
370
   -1
100
AcDbLine
 10
10.5126364
 20
-15.0702903
 11
10.5126364
 21
-14.9502603
  0
LINE
  5
180
100
AcDbEntity
  8
filco-cutouts
  6
ByLayer
 62
    2
370
   -1
100
AcDbLine
 10
10.5126364
 20
-14.9502603
 11
10.6851664
 21
-14.9502603
  0
LINE
  5
181
100
AcDbEntity
  8
filco-cutouts
  6
ByLayer
 62
    2
370
   -1
100
AcDbLine
 10
10.6851664
 20
-14.9502603
 11
10.6851664
 21
-14.3232603
  0
LINE
  5
182
100
AcDbEntity
  8
filco-cutouts
  6
ByLayer
 62
    2
370
   -1
100
AcDbLine
 10
10.6851664
 20
-14.3232603
 11
10.7677064
 21
-14.3232603
  0
LINE
  5
183
100
AcDbEntity
  8
filco-cutouts
  6
ByLayer
 62
    2
370
   -1
100
AcDbLine
 10
10.7677064
 20
-14.3232603
 11
10.7677064
 21
-14.0433803
  0
LINE
  5
184
100
AcDbEntity
  8
filco-cutouts
  6
ByLayer
 62
    2
370
   -1
100
AcDbLine
 10
10.7677064
 20
-14.0433803
 11
10.6851664
 21
-14.0433803
  0
LINE
  5
185
100
AcDbEntity
  8
filco-cutouts
  6
ByLayer
 62
    2
370
   -1
100
AcDbLine
 10
10.6851664
 20
-14.0433803
 11
10.6851664
 21
-13.7203603
  0
LINE
  5
186
100
AcDbEntity
  8
filco-cutouts
  6
ByLayer
 62
    2
370
   -1
100
AcDbLine
 10
10.6851664
 20
-13.7203603
 11
10.0101964
 21
-13.7203603
  0
LINE
  5
187
100
AcDbEntity
  8
filco-cutouts
  6
ByLayer
 62
    2
370
   -1
100
AcDbLine
 10
10.0101964
 20
-13.7203603
 11
10.0101964
 21
-14.0433803
  0
LINE
  5
188
100
AcDbEntity
  8
filco-cutouts
  6
ByLayer
 62
    2
370
   -1
100
AcDbLine
 10
10.0101964
 20
-14.0433803
 11
9.8576464
 21
-14.0433803
  0
LINE
  5
189
100
AcDbEntity
  8
filco-cutouts
  6
ByLayer
 62
    2
370
   -1
100
AcDbLine
 10
9.8576464
 20
-14.0433803
 11
9.8576464
 21
-13.5733403
  0
LINE
  5
18A
100
AcDbEntity
  8
filco-cutouts
  6
ByLayer
 62
    2
370
   -1
100
AcDbLine
 10
9.8576464
 20
-13.5733403
 11
8.457706399999999
 21
-13.5733403
  0
LINE
  5
18B
100
AcDbEntity
  8
filco-cutouts
  6
ByLayer
 62
    2
370
   -1
100
AcDbLine
 10
34.1752364
 20
-13.5733403
 11
35.57513640000001
 21
-13.5733403
  0
LINE
  5
18C
100
AcDbEntity
  8
filco-cutouts
  6
ByLayer
 62
    2
370
   -1
100
AcDbLine
 10
35.57513640000001
 20
-13.5733403
 11
35.57513640000001
 21
-14.9732803
  0
LINE
  5
18D
100
AcDbEntity
  8
filco-cutouts
  6
ByLayer
 62
    2
370
   -1
100
AcDbLine
 10
35.57513640000001
 20
-14.9732803
 11
34.1752364
 21
-14.9732803
  0
LINE
  5
18E
100
AcDbEntity
  8
filco-cutouts
  6
ByLayer
 62
    2
370
   -1
100
AcDbLine
 10
34.1752364
 20
-14.9732803
 11
34.1752364
 21
-13.5733403
  0
LINE
  5
18F
100
AcDbEntity
  8
filco-cutouts
  6
ByLayer
 62
    2
370
   -1
100
AcDbLine
 10
32.2702364
 20
-13.5733403
 11
33.6701364
 21
-13.5733403
  0
LINE
  5
190
100
AcDbEntity
  8
filco-cutouts
  6
ByLayer
 62
    2
370
   -1
100
AcDbLine
 10
33.6701364
 20
-13.5733403
 11
33.6701364
 21
-14.9732803
  0
LINE
  5
191
100
AcDbEntity
  8
filco-cutouts
  6
ByLayer
 62
    2
370
   -1
100
AcDbLine
 10
33.6701364
 20
-14.9732803
 11
32.2702364
 21
-14.9732803
  0
LINE
  5
192
100
AcDbEntity
  8
filco-cutouts
  6
ByLayer
 62
    2
370
   -1
100
AcDbLine
 10
32.2702364
 20
-14.9732803
 11
32.2702364
 21
-13.5733403
  0
LINE
  5
193
100
AcDbEntity
  8
filco-cutouts
  6
ByLayer
 62
    2
370
   -1
100
AcDbLine
 10
30.3652364
 20
-13.5733403
 11
31.7651364
 21
-13.5733403
  0
LINE
  5
194
100
AcDbEntity
  8
filco-cutouts
  6
ByLayer
 62
    2
370
   -1
100
AcDbLine
 10
31.7651364
 20
-13.5733403
 11
31.7651364
 21
-14.9732803
  0
LINE
  5
195
100
AcDbEntity
  8
filco-cutouts
  6
ByLayer
 62
    2
370
   -1
100
AcDbLine
 10
31.7651364
 20
-14.9732803
 11
30.3652364
 21
-14.9732803
  0
LINE
  5
196
100
AcDbEntity
  8
filco-cutouts
  6
ByLayer
 62
    2
370
   -1
100
AcDbLine
 10
30.3652364
 20
-14.9732803
 11
30.3652364
 21
-13.5733403
  0
LINE
  5
197
100
AcDbEntity
  8
filco-cutouts
  6
ByLayer
 62
    2
370
   -1
100
AcDbLine
 10
28.4602364
 20
-13.5733403
 11
29.8601364
 21
-13.5733403
  0
LINE
  5
198
100
AcDbEntity
  8
filco-cutouts
  6
ByLayer
 62
    2
370
   -1
100
AcDbLine
 10
29.8601364
 20
-13.5733403
 11
29.8601364
 21
-14.9732803
  0
LINE
  5
199
100
AcDbEntity
  8
filco-cutouts
  6
ByLayer
 62
    2
370
   -1
100
AcDbLine
 10
29.8601364
 20
-14.9732803
 11
28.4602364
 21
-14.9732803
  0
LINE
  5
19A
100
AcDbEntity
  8
filco-cutouts
  6
ByLayer
 62
    2
370
   -1
100
AcDbLine
 10
28.4602364
 20
-14.9732803
 11
28.4602364
 21
-13.5733403
  0
LINE
  5
19B
100
AcDbEntity
  8
filco-cutouts
  6
ByLayer
 62
    2
370
   -1
100
AcDbLine
 10
26.5552364
 20
-13.5733403
 11
27.9551364
 21
-13.5733403
  0
LINE
  5
19C
100
AcDbEntity
  8
filco-cutouts
  6
ByLayer
 62
    2
370
   -1
100
AcDbLine
 10
27.9551364
 20
-13.5733403
 11
27.9551364
 21
-14.9732803
  0
LINE
  5
19D
100
AcDbEntity
  8
filco-cutouts
  6
ByLayer
 62
    2
370
   -1
100
AcDbLine
 10
27.9551364
 20
-14.9732803
 11
26.5552364
 21
-14.9732803
  0
LINE
  5
19E
100
AcDbEntity
  8
filco-cutouts
  6
ByLayer
 62
    2
370
   -1
100
AcDbLine
 10
26.5552364
 20
-14.9732803
 11
26.5552364
 21
-13.5733403
  0
LINE
  5
19F
100
AcDbEntity
  8
filco-cutouts
  6
ByLayer
 62
    2
370
   -1
100
AcDbLine
 10
24.6502364
 20
-13.5733403
 11
26.0501364
 21
-13.5733403
  0
LINE
  5
1A0
100
AcDbEntity
  8
filco-cutouts
  6
ByLayer
 62
    2
370
   -1
100
AcDbLine
 10
26.0501364
 20
-13.5733403
 11
26.0501364
 21
-14.9732803
  0
LINE
  5
1A1
100
AcDbEntity
  8
filco-cutouts
  6
ByLayer
 62
    2
370
   -1
100
AcDbLine
 10
26.0501364
 20
-14.9732803
 11
24.6502364
 21
-14.9732803
  0
LINE
  5
1A2
100
AcDbEntity
  8
filco-cutouts
  6
ByLayer
 62
    2
370
   -1
100
AcDbLine
 10
24.6502364
 20
-14.9732803
 11
24.6502364
 21
-13.5733403
  0
LINE
  5
1A3
100
AcDbEntity
  8
filco-cutouts
  6
ByLayer
 62
    2
370
   -1
100
AcDbLine
 10
22.7452364
 20
-13.5733403
 11
24.1451364
 21
-13.5733403
  0
LINE
  5
1A4
100
AcDbEntity
  8
filco-cutouts
  6
ByLayer
 62
    2
370
   -1
100
AcDbLine
 10
24.1451364
 20
-13.5733403
 11
24.1451364
 21
-14.9732803
  0
LINE
  5
1A5
100
AcDbEntity
  8
filco-cutouts
  6
ByLayer
 62
    2
370
   -1
100
AcDbLine
 10
24.1451364
 20
-14.9732803
 11
22.7452364
 21
-14.9732803
  0
LINE
  5
1A6
100
AcDbEntity
  8
filco-cutouts
  6
ByLayer
 62
    2
370
   -1
100
AcDbLine
 10
22.7452364
 20
-14.9732803
 11
22.7452364
 21
-13.5733403
  0
LINE
  5
1A7
100
AcDbEntity
  8
filco-cutouts
  6
ByLayer
 62
    2
370
   -1
100
AcDbLine
 10
20.8402364
 20
-13.5733403
 11
22.2401364
 21
-13.5733403
  0
LINE
  5
1A8
100
AcDbEntity
  8
filco-cutouts
  6
ByLayer
 62
    2
370
   -1
100
AcDbLine
 10
22.2401364
 20
-13.5733403
 11
22.2401364
 21
-14.9732803
  0
LINE
  5
1A9
100
AcDbEntity
  8
filco-cutouts
  6
ByLayer
 62
    2
370
   -1
100
AcDbLine
 10
22.2401364
 20
-14.9732803
 11
20.8402364
 21
-14.9732803
  0
LINE
  5
1AA
100
AcDbEntity
  8
filco-cutouts
  6
ByLayer
 62
    2
370
   -1
100
AcDbLine
 10
20.8402364
 20
-14.9732803
 11
20.8402364
 21
-13.5733403
  0
LINE
  5
1AB
100
AcDbEntity
  8
filco-cutouts
  6
ByLayer
 62
    2
370
   -1
100
AcDbLine
 10
18.9350364
 20
-13.5733403
 11
20.3351364
 21
-13.5733403
  0
LINE
  5
1AC
100
AcDbEntity
  8
filco-cutouts
  6
ByLayer
 62
    2
370
   -1
100
AcDbLine
 10
20.3351364
 20
-13.5733403
 11
20.3351364
 21
-14.9732803
  0
LINE
  5
1AD
100
AcDbEntity
  8
filco-cutouts
  6
ByLayer
 62
    2
370
   -1
100
AcDbLine
 10
20.3351364
 20
-14.9732803
 11
18.9350364
 21
-14.9732803
  0
LINE
  5
1AE
100
AcDbEntity
  8
filco-cutouts
  6
ByLayer
 62
    2
370
   -1
100
AcDbLine
 10
18.9350364
 20
-14.9732803
 11
18.9350364
 21
-13.5733403
  0
LINE
  5
1AF
100
AcDbEntity
  8
filco-cutouts
  6
ByLayer
 62
    2
370
   -1
100
AcDbLine
 10
17.0300664
 20
-13.5733403
 11
18.4301364
 21
-13.5733403
  0
LINE
  5
1B0
100
AcDbEntity
  8
filco-cutouts
  6
ByLayer
 62
    2
370
   -1
100
AcDbLine
 10
18.4301364
 20
-13.5733403
 11
18.4301364
 21
-14.9732803
  0
LINE
  5
1B1
100
AcDbEntity
  8
filco-cutouts
  6
ByLayer
 62
    2
370
   -1
100
AcDbLine
 10
18.4301364
 20
-14.9732803
 11
17.0300664
 21
-14.9732803
  0
LINE
  5
1B2
100
AcDbEntity
  8
filco-cutouts
  6
ByLayer
 62
    2
370
   -1
100
AcDbLine
 10
17.0300664
 20
-14.9732803
 11
17.0300664
 21
-13.5733403
  0
LINE
  5
1B3
100
AcDbEntity
  8
filco-cutouts
  6
ByLayer
 62
    2
370
   -1
100
AcDbLine
 10
15.1252064
 20
-13.5733403
 11
16.5251364
 21
-13.5733403
  0
LINE
  5
1B4
100
AcDbEntity
  8
filco-cutouts
  6
ByLayer
 62
    2
370
   -1
100
AcDbLine
 10
16.5251364
 20
-13.5733403
 11
16.5251364
 21
-14.9732803
  0
LINE
  5
1B5
100
AcDbEntity
  8
filco-cutouts
  6
ByLayer
 62
    2
370
   -1
100
AcDbLine
 10
16.5251364
 20
-14.9732803
 11
15.1252064
 21
-14.9732803
  0
LINE
  5
1B6
100
AcDbEntity
  8
filco-cutouts
  6
ByLayer
 62
    2
370
   -1
100
AcDbLine
 10
15.1252064
 20
-14.9732803
 11
15.1252064
 21
-13.5733403
  0
LINE
  5
1B7
100
AcDbEntity
  8
filco-cutouts
  6
ByLayer
 62
    2
370
   -1
100
AcDbLine
 10
13.2202064
 20
-13.5733403
 11
14.6201364
 21
-13.5733403
  0
LINE
  5
1B8
100
AcDbEntity
  8
filco-cutouts
  6
ByLayer
 62
    2
370
   -1
100
AcDbLine
 10
14.6201364
 20
-13.5733403
 11
14.6201364
 21
-14.9732803
  0
LINE
  5
1B9
100
AcDbEntity
  8
filco-cutouts
  6
ByLayer
 62
    2
370
   -1
100
AcDbLine
 10
14.6201364
 20
-14.9732803
 11
13.2202064
 21
-14.9732803
  0
LINE
  5
1BA
100
AcDbEntity
  8
filco-cutouts
  6
ByLayer
 62
    2
370
   -1
100
AcDbLine
 10
13.2202064
 20
-14.9732803
 11
13.2202064
 21
-13.5733403
  0
LINE
  5
1BB
100
AcDbEntity
  8
filco-cutouts
  6
ByLayer
 62
    2
370
   -1
100
AcDbLine
 10
11.3152064
 20
-13.5733403
 11
12.7151364
 21
-13.5733403
  0
LINE
  5
1BC
100
AcDbEntity
  8
filco-cutouts
  6
ByLayer
 62
    2
370
   -1
100
AcDbLine
 10
12.7151364
 20
-13.5733403
 11
12.7151364
 21
-14.9732803
  0
LINE
  5
1BD
100
AcDbEntity
  8
filco-cutouts
  6
ByLayer
 62
    2
370
   -1
100
AcDbLine
 10
12.7151364
 20
-14.9732803
 11
11.3152064
 21
-14.9732803
  0
LINE
  5
1BE
100
AcDbEntity
  8
filco-cutouts
  6
ByLayer
 62
    2
370
   -1
100
AcDbLine
 10
11.3152064
 20
-14.9732803
 11
11.3152064
 21
-13.5733403
  0
LINE
  5
1BF
100
AcDbEntity
  8
filco-cutouts
  6
ByLayer
 62
    2
370
   -1
100
AcDbLine
 10
32.9844364
 20
-11.6683303
 11
32.9844364
 21
-12.1383803
  0
LINE
  5
1C0
100
AcDbEntity
  8
filco-cutouts
  6
ByLayer
 62
    2
370
   -1
100
AcDbLine
 10
32.9844364
 20
-12.1383803
 11
32.8320364
 21
-12.1383803
  0
LINE
  5
1C1
100
AcDbEntity
  8
filco-cutouts
  6
ByLayer
 62
    2
370
   -1
100
AcDbLine
 10
32.8320364
 20
-12.1383803
 11
32.8320364
 21
-11.8153703
  0
LINE
  5
1C2
100
AcDbEntity
  8
filco-cutouts
  6
ByLayer
 62
    2
370
   -1
100
AcDbLine
 10
32.8320364
 20
-11.8153703
 11
32.1569364
 21
-11.8153703
  0
LINE
  5
1C3
100
AcDbEntity
  8
filco-cutouts
  6
ByLayer
 62
    2
370
   -1
100
AcDbLine
 10
32.1569364
 20
-11.8153703
 11
32.1569364
 21
-12.1383803
  0
LINE
  5
1C4
100
AcDbEntity
  8
filco-cutouts
  6
ByLayer
 62
    2
370
   -1
100
AcDbLine
 10
32.1569364
 20
-12.1383803
 11
32.0745364
 21
-12.1383803
  0
LINE
  5
1C5
100
AcDbEntity
  8
filco-cutouts
  6
ByLayer
 62
    2
370
   -1
100
AcDbLine
 10
32.0745364
 20
-12.1383803
 11
32.0745364
 21
-12.4182703
  0
LINE
  5
1C6
100
AcDbEntity
  8
filco-cutouts
  6
ByLayer
 62
    2
370
   -1
100
AcDbLine
 10
32.0745364
 20
-12.4182703
 11
32.1569364
 21
-12.4182703
  0
LINE
  5
1C7
100
AcDbEntity
  8
filco-cutouts
  6
ByLayer
 62
    2
370
   -1
100
AcDbLine
 10
32.1569364
 20
-12.4182703
 11
32.1569364
 21
-13.0452603
  0
LINE
  5
1C8
100
AcDbEntity
  8
filco-cutouts
  6
ByLayer
 62
    2
370
   -1
100
AcDbLine
 10
32.1569364
 20
-13.0452603
 11
32.3294364
 21
-13.0452603
  0
LINE
  5
1C9
100
AcDbEntity
  8
filco-cutouts
  6
ByLayer
 62
    2
370
   -1
100
AcDbLine
 10
32.3294364
 20
-13.0452603
 11
32.3294364
 21
-13.1652803
  0
LINE
  5
1CA
100
AcDbEntity
  8
filco-cutouts
  6
ByLayer
 62
    2
370
   -1
100
AcDbLine
 10
32.3294364
 20
-13.1652803
 11
32.6593364
 21
-13.1652803
  0
LINE
  5
1CB
100
AcDbEntity
  8
filco-cutouts
  6
ByLayer
 62
    2
370
   -1
100
AcDbLine
 10
32.6593364
 20
-13.1652803
 11
32.6593364
 21
-13.0452603
  0
LINE
  5
1CC
100
AcDbEntity
  8
filco-cutouts
  6
ByLayer
 62
    2
370
   -1
100
AcDbLine
 10
32.6593364
 20
-13.0452603
 11
32.8320364
 21
-13.0452603
  0
LINE
  5
1CD
100
AcDbEntity
  8
filco-cutouts
  6
ByLayer
 62
    2
370
   -1
100
AcDbLine
 10
32.8320364
 20
-13.0452603
 11
32.8320364
 21
-12.5983603
  0
LINE
  5
1CE
100
AcDbEntity
  8
filco-cutouts
  6
ByLayer
 62
    2
370
   -1
100
AcDbLine
 10
32.8320364
 20
-12.5983603
 11
32.9844364
 21
-12.5983603
  0
LINE
  5
1CF
100
AcDbEntity
  8
filco-cutouts
  6
ByLayer
 62
    2
370
   -1
100
AcDbLine
 10
32.9844364
 20
-12.5983603
 11
32.9844364
 21
-13.0682603
  0
LINE
  5
1D0
100
AcDbEntity
  8
filco-cutouts
  6
ByLayer
 62
    2
370
   -1
100
AcDbLine
 10
32.9844364
 20
-13.0682603
 11
34.3845364
 21
-13.0682603
  0
LINE
  5
1D1
100
AcDbEntity
  8
filco-cutouts
  6
ByLayer
 62
    2
370
   -1
100
AcDbLine
 10
34.3845364
 20
-13.0682603
 11
34.3845364
 21
-12.5983603
  0
LINE
  5
1D2
100
AcDbEntity
  8
filco-cutouts
  6
ByLayer
 62
    2
370
   -1
100
AcDbLine
 10
34.3845364
 20
-12.5983603
 11
34.5369364
 21
-12.5983603
  0
LINE
  5
1D3
100
AcDbEntity
  8
filco-cutouts
  6
ByLayer
 62
    2
370
   -1
100
AcDbLine
 10
34.5369364
 20
-12.5983603
 11
34.5369364
 21
-13.0452603
  0
LINE
  5
1D4
100
AcDbEntity
  8
filco-cutouts
  6
ByLayer
 62
    2
370
   -1
100
AcDbLine
 10
34.5369364
 20
-13.0452603
 11
34.7094364
 21
-13.0452603
  0
LINE
  5
1D5
100
AcDbEntity
  8
filco-cutouts
  6
ByLayer
 62
    2
370
   -1
100
AcDbLine
 10
34.7094364
 20
-13.0452603
 11
34.7094364
 21
-13.1652803
  0
LINE
  5
1D6
100
AcDbEntity
  8
filco-cutouts
  6
ByLayer
 62
    2
370
   -1
100
AcDbLine
 10
34.7094364
 20
-13.1652803
 11
35.0395364
 21
-13.1652803
  0
LINE
  5
1D7
100
AcDbEntity
  8
filco-cutouts
  6
ByLayer
 62
    2
370
   -1
100
AcDbLine
 10
35.0395364
 20
-13.1652803
 11
35.0395364
 21
-13.0452603
  0
LINE
  5
1D8
100
AcDbEntity
  8
filco-cutouts
  6
ByLayer
 62
    2
370
   -1
100
AcDbLine
 10
35.0395364
 20
-13.0452603
 11
35.2120364
 21
-13.0452603
  0
LINE
  5
1D9
100
AcDbEntity
  8
filco-cutouts
  6
ByLayer
 62
    2
370
   -1
100
AcDbLine
 10
35.2120364
 20
-13.0452603
 11
35.2120364
 21
-12.4182703
  0
LINE
  5
1DA
100
AcDbEntity
  8
filco-cutouts
  6
ByLayer
 62
    2
370
   -1
100
AcDbLine
 10
35.2120364
 20
-12.4182703
 11
35.2944364
 21
-12.4182703
  0
LINE
  5
1DB
100
AcDbEntity
  8
filco-cutouts
  6
ByLayer
 62
    2
370
   -1
100
AcDbLine
 10
35.2944364
 20
-12.4182703
 11
35.2944364
 21
-12.1383803
  0
LINE
  5
1DC
100
AcDbEntity
  8
filco-cutouts
  6
ByLayer
 62
    2
370
   -1
100
AcDbLine
 10
35.2944364
 20
-12.1383803
 11
35.2120364
 21
-12.1383803
  0
LINE
  5
1DD
100
AcDbEntity
  8
filco-cutouts
  6
ByLayer
 62
    2
370
   -1
100
AcDbLine
 10
35.2120364
 20
-12.1383803
 11
35.2120364
 21
-11.8153703
  0
LINE
  5
1DE
100
AcDbEntity
  8
filco-cutouts
  6
ByLayer
 62
    2
370
   -1
100
AcDbLine
 10
35.2120364
 20
-11.8153703
 11
34.5369364
 21
-11.8153703
  0
LINE
  5
1DF
100
AcDbEntity
  8
filco-cutouts
  6
ByLayer
 62
    2
370
   -1
100
AcDbLine
 10
34.5369364
 20
-11.8153703
 11
34.5369364
 21
-12.1383803
  0
LINE
  5
1E0
100
AcDbEntity
  8
filco-cutouts
  6
ByLayer
 62
    2
370
   -1
100
AcDbLine
 10
34.5369364
 20
-12.1383803
 11
34.3845364
 21
-12.1383803
  0
LINE
  5
1E1
100
AcDbEntity
  8
filco-cutouts
  6
ByLayer
 62
    2
370
   -1
100
AcDbLine
 10
34.3845364
 20
-12.1383803
 11
34.3845364
 21
-11.6683303
  0
LINE
  5
1E2
100
AcDbEntity
  8
filco-cutouts
  6
ByLayer
 62
    2
370
   -1
100
AcDbLine
 10
34.3845364
 20
-11.6683303
 11
32.9844364
 21
-11.6683303
  0
LINE
  5
1E3
100
AcDbEntity
  8
filco-cutouts
  6
ByLayer
 62
    2
370
   -1
100
AcDbLine
 10
29.8889364
 20
-11.6683303
 11
31.2889364
 21
-11.6683303
  0
LINE
  5
1E4
100
AcDbEntity
  8
filco-cutouts
  6
ByLayer
 62
    2
370
   -1
100
AcDbLine
 10
31.2889364
 20
-11.6683303
 11
31.2889364
 21
-13.0682603
  0
LINE
  5
1E5
100
AcDbEntity
  8
filco-cutouts
  6
ByLayer
 62
    2
370
   -1
100
AcDbLine
 10
31.2889364
 20
-13.0682603
 11
29.8889364
 21
-13.0682603
  0
LINE
  5
1E6
100
AcDbEntity
  8
filco-cutouts
  6
ByLayer
 62
    2
370
   -1
100
AcDbLine
 10
29.8889364
 20
-13.0682603
 11
29.8889364
 21
-11.6683303
  0
LINE
  5
1E7
100
AcDbEntity
  8
filco-cutouts
  6
ByLayer
 62
    2
370
   -1
100
AcDbLine
 10
27.9839364
 20
-11.6683303
 11
29.3839364
 21
-11.6683303
  0
LINE
  5
1E8
100
AcDbEntity
  8
filco-cutouts
  6
ByLayer
 62
    2
370
   -1
100
AcDbLine
 10
29.3839364
 20
-11.6683303
 11
29.3839364
 21
-13.0682603
  0
LINE
  5
1E9
100
AcDbEntity
  8
filco-cutouts
  6
ByLayer
 62
    2
370
   -1
100
AcDbLine
 10
29.3839364
 20
-13.0682603
 11
27.9839364
 21
-13.0682603
  0
LINE
  5
1EA
100
AcDbEntity
  8
filco-cutouts
  6
ByLayer
 62
    2
370
   -1
100
AcDbLine
 10
27.9839364
 20
-13.0682603
 11
27.9839364
 21
-11.6683303
  0
LINE
  5
1EB
100
AcDbEntity
  8
filco-cutouts
  6
ByLayer
 62
    2
370
   -1
100
AcDbLine
 10
26.0789364
 20
-11.6683303
 11
27.4789364
 21
-11.6683303
  0
LINE
  5
1EC
100
AcDbEntity
  8
filco-cutouts
  6
ByLayer
 62
    2
370
   -1
100
AcDbLine
 10
27.4789364
 20
-11.6683303
 11
27.4789364
 21
-13.0682603
  0
LINE
  5
1ED
100
AcDbEntity
  8
filco-cutouts
  6
ByLayer
 62
    2
370
   -1
100
AcDbLine
 10
27.4789364
 20
-13.0682603
 11
26.0789364
 21
-13.0682603
  0
LINE
  5
1EE
100
AcDbEntity
  8
filco-cutouts
  6
ByLayer
 62
    2
370
   -1
100
AcDbLine
 10
26.0789364
 20
-13.0682603
 11
26.0789364
 21
-11.6683303
  0
LINE
  5
1EF
100
AcDbEntity
  8
filco-cutouts
  6
ByLayer
 62
    2
370
   -1
100
AcDbLine
 10
24.1739364
 20
-11.6683303
 11
25.5739364
 21
-11.6683303
  0
LINE
  5
1F0
100
AcDbEntity
  8
filco-cutouts
  6
ByLayer
 62
    2
370
   -1
100
AcDbLine
 10
25.5739364
 20
-11.6683303
 11
25.5739364
 21
-13.0682603
  0
LINE
  5
1F1
100
AcDbEntity
  8
filco-cutouts
  6
ByLayer
 62
    2
370
   -1
100
AcDbLine
 10
25.5739364
 20
-13.0682603
 11
24.1739364
 21
-13.0682603
  0
LINE
  5
1F2
100
AcDbEntity
  8
filco-cutouts
  6
ByLayer
 62
    2
370
   -1
100
AcDbLine
 10
24.1739364
 20
-13.0682603
 11
24.1739364
 21
-11.6683303
  0
LINE
  5
1F3
100
AcDbEntity
  8
filco-cutouts
  6
ByLayer
 62
    2
370
   -1
100
AcDbLine
 10
22.2689364
 20
-11.6683303
 11
23.6689364
 21
-11.6683303
  0
LINE
  5
1F4
100
AcDbEntity
  8
filco-cutouts
  6
ByLayer
 62
    2
370
   -1
100
AcDbLine
 10
23.6689364
 20
-11.6683303
 11
23.6689364
 21
-13.0682603
  0
LINE
  5
1F5
100
AcDbEntity
  8
filco-cutouts
  6
ByLayer
 62
    2
370
   -1
100
AcDbLine
 10
23.6689364
 20
-13.0682603
 11
22.2689364
 21
-13.0682603
  0
LINE
  5
1F6
100
AcDbEntity
  8
filco-cutouts
  6
ByLayer
 62
    2
370
   -1
100
AcDbLine
 10
22.2689364
 20
-13.0682603
 11
22.2689364
 21
-11.6683303
  0
LINE
  5
1F7
100
AcDbEntity
  8
filco-cutouts
  6
ByLayer
 62
    2
370
   -1
100
AcDbLine
 10
20.3639364
 20
-11.6683303
 11
21.7639364
 21
-11.6683303
  0
LINE
  5
1F8
100
AcDbEntity
  8
filco-cutouts
  6
ByLayer
 62
    2
370
   -1
100
AcDbLine
 10
21.7639364
 20
-11.6683303
 11
21.7639364
 21
-13.0682603
  0
LINE
  5
1F9
100
AcDbEntity
  8
filco-cutouts
  6
ByLayer
 62
    2
370
   -1
100
AcDbLine
 10
21.7639364
 20
-13.0682603
 11
20.3639364
 21
-13.0682603
  0
LINE
  5
1FA
100
AcDbEntity
  8
filco-cutouts
  6
ByLayer
 62
    2
370
   -1
100
AcDbLine
 10
20.3639364
 20
-13.0682603
 11
20.3639364
 21
-11.6683303
  0
LINE
  5
1FB
100
AcDbEntity
  8
filco-cutouts
  6
ByLayer
 62
    2
370
   -1
100
AcDbLine
 10
18.4589364
 20
-11.6683303
 11
19.8589364
 21
-11.6683303
  0
LINE
  5
1FC
100
AcDbEntity
  8
filco-cutouts
  6
ByLayer
 62
    2
370
   -1
100
AcDbLine
 10
19.8589364
 20
-11.6683303
 11
19.8589364
 21
-13.0682603
  0
LINE
  5
1FD
100
AcDbEntity
  8
filco-cutouts
  6
ByLayer
 62
    2
370
   -1
100
AcDbLine
 10
19.8589364
 20
-13.0682603
 11
18.4589364
 21
-13.0682603
  0
LINE
  5
1FE
100
AcDbEntity
  8
filco-cutouts
  6
ByLayer
 62
    2
370
   -1
100
AcDbLine
 10
18.4589364
 20
-13.0682603
 11
18.4589364
 21
-11.6683303
  0
LINE
  5
1FF
100
AcDbEntity
  8
filco-cutouts
  6
ByLayer
 62
    2
370
   -1
100
AcDbLine
 10
16.5539564
 20
-11.6683303
 11
17.9539364
 21
-11.6683303
  0
LINE
  5
200
100
AcDbEntity
  8
filco-cutouts
  6
ByLayer
 62
    2
370
   -1
100
AcDbLine
 10
17.9539364
 20
-11.6683303
 11
17.9539364
 21
-13.0682603
  0
LINE
  5
201
100
AcDbEntity
  8
filco-cutouts
  6
ByLayer
 62
    2
370
   -1
100
AcDbLine
 10
17.9539364
 20
-13.0682603
 11
16.5539564
 21
-13.0682603
  0
LINE
  5
202
100
AcDbEntity
  8
filco-cutouts
  6
ByLayer
 62
    2
370
   -1
100
AcDbLine
 10
16.5539564
 20
-13.0682603
 11
16.5539564
 21
-11.6683303
  0
LINE
  5
203
100
AcDbEntity
  8
filco-cutouts
  6
ByLayer
 62
    2
370
   -1
100
AcDbLine
 10
14.6489564
 20
-11.6683303
 11
16.0488864
 21
-11.6683303
  0
LINE
  5
204
100
AcDbEntity
  8
filco-cutouts
  6
ByLayer
 62
    2
370
   -1
100
AcDbLine
 10
16.0488864
 20
-11.6683303
 11
16.0488864
 21
-13.0682603
  0
LINE
  5
205
100
AcDbEntity
  8
filco-cutouts
  6
ByLayer
 62
    2
370
   -1
100
AcDbLine
 10
16.0488864
 20
-13.0682603
 11
14.6489564
 21
-13.0682603
  0
LINE
  5
206
100
AcDbEntity
  8
filco-cutouts
  6
ByLayer
 62
    2
370
   -1
100
AcDbLine
 10
14.6489564
 20
-13.0682603
 11
14.6489564
 21
-11.6683303
  0
LINE
  5
207
100
AcDbEntity
  8
filco-cutouts
  6
ByLayer
 62
    2
370
   -1
100
AcDbLine
 10
12.7439564
 20
-11.6683303
 11
14.1438864
 21
-11.6683303
  0
LINE
  5
208
100
AcDbEntity
  8
filco-cutouts
  6
ByLayer
 62
    2
370
   -1
100
AcDbLine
 10
14.1438864
 20
-11.6683303
 11
14.1438864
 21
-13.0682603
  0
LINE
  5
209
100
AcDbEntity
  8
filco-cutouts
  6
ByLayer
 62
    2
370
   -1
100
AcDbLine
 10
14.1438864
 20
-13.0682603
 11
12.7439564
 21
-13.0682603
  0
LINE
  5
20A
100
AcDbEntity
  8
filco-cutouts
  6
ByLayer
 62
    2
370
   -1
100
AcDbLine
 10
12.7439564
 20
-13.0682603
 11
12.7439564
 21
-11.6683303
  0
LINE
  5
20B
100
AcDbEntity
  8
filco-cutouts
  6
ByLayer
 62
    2
370
   -1
100
AcDbLine
 10
10.8389564
 20
-11.6683303
 11
12.2388864
 21
-11.6683303
  0
LINE
  5
20C
100
AcDbEntity
  8
filco-cutouts
  6
ByLayer
 62
    2
370
   -1
100
AcDbLine
 10
12.2388864
 20
-11.6683303
 11
12.2388864
 21
-13.0682603
  0
LINE
  5
20D
100
AcDbEntity
  8
filco-cutouts
  6
ByLayer
 62
    2
370
   -1
100
AcDbLine
 10
12.2388864
 20
-13.0682603
 11
10.8389564
 21
-13.0682603
  0
LINE
  5
20E
100
AcDbEntity
  8
filco-cutouts
  6
ByLayer
 62
    2
370
   -1
100
AcDbLine
 10
10.8389564
 20
-13.0682603
 11
10.8389564
 21
-11.6683303
  0
LINE
  5
20F
100
AcDbEntity
  8
filco-cutouts
  6
ByLayer
 62
    2
370
   -1
100
AcDbLine
 10
8.219439400000001
 20
-11.6683303
 11
9.6195264
 21
-11.6683303
  0
LINE
  5
210
100
AcDbEntity
  8
filco-cutouts
  6
ByLayer
 62
    2
370
   -1
100
AcDbLine
 10
9.6195264
 20
-11.6683303
 11
9.6195264
 21
-13.0682603
  0
LINE
  5
211
100
AcDbEntity
  8
filco-cutouts
  6
ByLayer
 62
    2
370
   -1
100
AcDbLine
 10
9.6195264
 20
-13.0682603
 11
8.219439400000001
 21
-13.0682603
  0
LINE
  5
212
100
AcDbEntity
  8
filco-cutouts
  6
ByLayer
 62
    2
370
   -1
100
AcDbLine
 10
8.219439400000001
 20
-13.0682603
 11
8.219439400000001
 21
-11.6683303
  0
LINE
  5
213
100
AcDbEntity
  8
filco-cutouts
  6
ByLayer
 62
    2
370
   -1
100
AcDbLine
 10
33.6989364
 20
-9.763330300000002
 11
35.09893640000001
 21
-9.763330300000002
  0
LINE
  5
214
100
AcDbEntity
  8
filco-cutouts
  6
ByLayer
 62
    2
370
   -1
100
AcDbLine
 10
35.09893640000001
 20
-9.763330300000002
 11
35.09893640000001
 21
-11.1632603
  0
LINE
  5
215
100
AcDbEntity
  8
filco-cutouts
  6
ByLayer
 62
    2
370
   -1
100
AcDbLine
 10
35.09893640000001
 20
-11.1632603
 11
33.6989364
 21
-11.1632603
  0
LINE
  5
216
100
AcDbEntity
  8
filco-cutouts
  6
ByLayer
 62
    2
370
   -1
100
AcDbLine
 10
33.6989364
 20
-11.1632603
 11
33.6989364
 21
-9.763330300000002
  0
LINE
  5
217
100
AcDbEntity
  8
filco-cutouts
  6
ByLayer
 62
    2
370
   -1
100
AcDbLine
 10
31.3177364
 20
-9.763330300000002
 11
32.7176364
 21
-9.763330300000002
  0
LINE
  5
218
100
AcDbEntity
  8
filco-cutouts
  6
ByLayer
 62
    2
370
   -1
100
AcDbLine
 10
32.7176364
 20
-9.763330300000002
 11
32.7176364
 21
-11.1632603
  0
LINE
  5
219
100
AcDbEntity
  8
filco-cutouts
  6
ByLayer
 62
    2
370
   -1
100
AcDbLine
 10
32.7176364
 20
-11.1632603
 11
31.3177364
 21
-11.1632603
  0
LINE
  5
21A
100
AcDbEntity
  8
filco-cutouts
  6
ByLayer
 62
    2
370
   -1
100
AcDbLine
 10
31.3177364
 20
-11.1632603
 11
31.3177364
 21
-9.763330300000002
  0
LINE
  5
21B
100
AcDbEntity
  8
filco-cutouts
  6
ByLayer
 62
    2
370
   -1
100
AcDbLine
 10
29.4127364
 20
-9.763330300000002
 11
30.8126364
 21
-9.763330300000002
  0
LINE
  5
21C
100
AcDbEntity
  8
filco-cutouts
  6
ByLayer
 62
    2
370
   -1
100
AcDbLine
 10
30.8126364
 20
-9.763330300000002
 11
30.8126364
 21
-11.1632603
  0
LINE
  5
21D
100
AcDbEntity
  8
filco-cutouts
  6
ByLayer
 62
    2
370
   -1
100
AcDbLine
 10
30.8126364
 20
-11.1632603
 11
29.4127364
 21
-11.1632603
  0
LINE
  5
21E
100
AcDbEntity
  8
filco-cutouts
  6
ByLayer
 62
    2
370
   -1
100
AcDbLine
 10
29.4127364
 20
-11.1632603
 11
29.4127364
 21
-9.763330300000002
  0
LINE
  5
21F
100
AcDbEntity
  8
filco-cutouts
  6
ByLayer
 62
    2
370
   -1
100
AcDbLine
 10
27.5077364
 20
-9.763330300000002
 11
28.9076364
 21
-9.763330300000002
  0
LINE
  5
220
100
AcDbEntity
  8
filco-cutouts
  6
ByLayer
 62
    2
370
   -1
100
AcDbLine
 10
28.9076364
 20
-9.763330300000002
 11
28.9076364
 21
-11.1632603
  0
LINE
  5
221
100
AcDbEntity
  8
filco-cutouts
  6
ByLayer
 62
    2
370
   -1
100
AcDbLine
 10
28.9076364
 20
-11.1632603
 11
27.5077364
 21
-11.1632603
  0
LINE
  5
222
100
AcDbEntity
  8
filco-cutouts
  6
ByLayer
 62
    2
370
   -1
100
AcDbLine
 10
27.5077364
 20
-11.1632603
 11
27.5077364
 21
-9.763330300000002
  0
LINE
  5
223
100
AcDbEntity
  8
filco-cutouts
  6
ByLayer
 62
    2
370
   -1
100
AcDbLine
 10
25.6027364
 20
-9.763330300000002
 11
27.0026364
 21
-9.763330300000002
  0
LINE
  5
224
100
AcDbEntity
  8
filco-cutouts
  6
ByLayer
 62
    2
370
   -1
100
AcDbLine
 10
27.0026364
 20
-9.763330300000002
 11
27.0026364
 21
-11.1632603
  0
LINE
  5
225
100
AcDbEntity
  8
filco-cutouts
  6
ByLayer
 62
    2
370
   -1
100
AcDbLine
 10
27.0026364
 20
-11.1632603
 11
25.6027364
 21
-11.1632603
  0
LINE
  5
226
100
AcDbEntity
  8
filco-cutouts
  6
ByLayer
 62
    2
370
   -1
100
AcDbLine
 10
25.6027364
 20
-11.1632603
 11
25.6027364
 21
-9.763330300000002
  0
LINE
  5
227
100
AcDbEntity
  8
filco-cutouts
  6
ByLayer
 62
    2
370
   -1
100
AcDbLine
 10
23.6977364
 20
-9.763330300000002
 11
25.0976364
 21
-9.763330300000002
  0
LINE
  5
228
100
AcDbEntity
  8
filco-cutouts
  6
ByLayer
 62
    2
370
   -1
100
AcDbLine
 10
25.0976364
 20
-9.763330300000002
 11
25.0976364
 21
-11.1632603
  0
LINE
  5
229
100
AcDbEntity
  8
filco-cutouts
  6
ByLayer
 62
    2
370
   -1
100
AcDbLine
 10
25.0976364
 20
-11.1632603
 11
23.6977364
 21
-11.1632603
  0
LINE
  5
22A
100
AcDbEntity
  8
filco-cutouts
  6
ByLayer
 62
    2
370
   -1
100
AcDbLine
 10
23.6977364
 20
-11.1632603
 11
23.6977364
 21
-9.763330300000002
  0
LINE
  5
22B
100
AcDbEntity
  8
filco-cutouts
  6
ByLayer
 62
    2
370
   -1
100
AcDbLine
 10
21.7927364
 20
-9.763330300000002
 11
23.1926364
 21
-9.763330300000002
  0
LINE
  5
22C
100
AcDbEntity
  8
filco-cutouts
  6
ByLayer
 62
    2
370
   -1
100
AcDbLine
 10
23.1926364
 20
-9.763330300000002
 11
23.1926364
 21
-11.1632603
  0
LINE
  5
22D
100
AcDbEntity
  8
filco-cutouts
  6
ByLayer
 62
    2
370
   -1
100
AcDbLine
 10
23.1926364
 20
-11.1632603
 11
21.7927364
 21
-11.1632603
  0
LINE
  5
22E
100
AcDbEntity
  8
filco-cutouts
  6
ByLayer
 62
    2
370
   -1
100
AcDbLine
 10
21.7927364
 20
-11.1632603
 11
21.7927364
 21
-9.763330300000002
  0
LINE
  5
22F
100
AcDbEntity
  8
filco-cutouts
  6
ByLayer
 62
    2
370
   -1
100
AcDbLine
 10
19.8877364
 20
-9.763330300000002
 11
21.2876364
 21
-9.763330300000002
  0
LINE
  5
230
100
AcDbEntity
  8
filco-cutouts
  6
ByLayer
 62
    2
370
   -1
100
AcDbLine
 10
21.2876364
 20
-9.763330300000002
 11
21.2876364
 21
-11.1632603
  0
LINE
  5
231
100
AcDbEntity
  8
filco-cutouts
  6
ByLayer
 62
    2
370
   -1
100
AcDbLine
 10
21.2876364
 20
-11.1632603
 11
19.8877364
 21
-11.1632603
  0
LINE
  5
232
100
AcDbEntity
  8
filco-cutouts
  6
ByLayer
 62
    2
370
   -1
100
AcDbLine
 10
19.8877364
 20
-11.1632603
 11
19.8877364
 21
-9.763330300000002
  0
LINE
  5
233
100
AcDbEntity
  8
filco-cutouts
  6
ByLayer
 62
    2
370
   -1
100
AcDbLine
 10
17.9827364
 20
-9.763330300000002
 11
19.3826364
 21
-9.763330300000002
  0
LINE
  5
234
100
AcDbEntity
  8
filco-cutouts
  6
ByLayer
 62
    2
370
   -1
100
AcDbLine
 10
19.3826364
 20
-9.763330300000002
 11
19.3826364
 21
-11.1632603
  0
LINE
  5
235
100
AcDbEntity
  8
filco-cutouts
  6
ByLayer
 62
    2
370
   -1
100
AcDbLine
 10
19.3826364
 20
-11.1632603
 11
17.9827364
 21
-11.1632603
  0
LINE
  5
236
100
AcDbEntity
  8
filco-cutouts
  6
ByLayer
 62
    2
370
   -1
100
AcDbLine
 10
17.9827364
 20
-11.1632603
 11
17.9827364
 21
-9.763330300000002
  0
LINE
  5
237
100
AcDbEntity
  8
filco-cutouts
  6
ByLayer
 62
    2
370
   -1
100
AcDbLine
 10
16.0777064
 20
-9.763330300000002
 11
17.4776364
 21
-9.763330300000002
  0
LINE
  5
238
100
AcDbEntity
  8
filco-cutouts
  6
ByLayer
 62
    2
370
   -1
100
AcDbLine
 10
17.4776364
 20
-9.763330300000002
 11
17.4776364
 21
-11.1632603
  0
LINE
  5
239
100
AcDbEntity
  8
filco-cutouts
  6
ByLayer
 62
    2
370
   -1
100
AcDbLine
 10
17.4776364
 20
-11.1632603
 11
16.0777064
 21
-11.1632603
  0
LINE
  5
23A
100
AcDbEntity
  8
filco-cutouts
  6
ByLayer
 62
    2
370
   -1
100
AcDbLine
 10
16.0777064
 20
-11.1632603
 11
16.0777064
 21
-9.763330300000002
  0
LINE
  5
23B
100
AcDbEntity
  8
filco-cutouts
  6
ByLayer
 62
    2
370
   -1
100
AcDbLine
 10
14.1727064
 20
-9.763330300000002
 11
15.5726364
 21
-9.763330300000002
  0
LINE
  5
23C
100
AcDbEntity
  8
filco-cutouts
  6
ByLayer
 62
    2
370
   -1
100
AcDbLine
 10
15.5726364
 20
-9.763330300000002
 11
15.5726364
 21
-11.1632603
  0
LINE
  5
23D
100
AcDbEntity
  8
filco-cutouts
  6
ByLayer
 62
    2
370
   -1
100
AcDbLine
 10
15.5726364
 20
-11.1632603
 11
14.1727064
 21
-11.1632603
  0
LINE
  5
23E
100
AcDbEntity
  8
filco-cutouts
  6
ByLayer
 62
    2
370
   -1
100
AcDbLine
 10
14.1727064
 20
-11.1632603
 11
14.1727064
 21
-9.763330300000002
  0
LINE
  5
23F
100
AcDbEntity
  8
filco-cutouts
  6
ByLayer
 62
    2
370
   -1
100
AcDbLine
 10
12.2677064
 20
-9.763330300000002
 11
13.6676364
 21
-9.763330300000002
  0
LINE
  5
240
100
AcDbEntity
  8
filco-cutouts
  6
ByLayer
 62
    2
370
   -1
100
AcDbLine
 10
13.6676364
 20
-9.763330300000002
 11
13.6676364
 21
-11.1632603
  0
LINE
  5
241
100
AcDbEntity
  8
filco-cutouts
  6
ByLayer
 62
    2
370
   -1
100
AcDbLine
 10
13.6676364
 20
-11.1632603
 11
12.2677064
 21
-11.1632603
  0
LINE
  5
242
100
AcDbEntity
  8
filco-cutouts
  6
ByLayer
 62
    2
370
   -1
100
AcDbLine
 10
12.2677064
 20
-11.1632603
 11
12.2677064
 21
-9.763330300000002
  0
LINE
  5
243
100
AcDbEntity
  8
filco-cutouts
  6
ByLayer
 62
    2
370
   -1
100
AcDbLine
 10
10.3627064
 20
-9.763330300000002
 11
11.7626364
 21
-9.763330300000002
  0
LINE
  5
244
100
AcDbEntity
  8
filco-cutouts
  6
ByLayer
 62
    2
370
   -1
100
AcDbLine
 10
11.7626364
 20
-9.763330300000002
 11
11.7626364
 21
-11.1632603
  0
LINE
  5
245
100
AcDbEntity
  8
filco-cutouts
  6
ByLayer
 62
    2
370
   -1
100
AcDbLine
 10
11.7626364
 20
-11.1632603
 11
10.3627064
 21
-11.1632603
  0
LINE
  5
246
100
AcDbEntity
  8
filco-cutouts
  6
ByLayer
 62
    2
370
   -1
100
AcDbLine
 10
10.3627064
 20
-11.1632603
 11
10.3627064
 21
-9.763330300000002
  0
LINE
  5
247
100
AcDbEntity
  8
filco-cutouts
  6
ByLayer
 62
    2
370
   -1
100
AcDbLine
 10
7.9814524
 20
-9.763330300000002
 11
9.381406399999999
 21
-9.763330300000002
  0
LINE
  5
248
100
AcDbEntity
  8
filco-cutouts
  6
ByLayer
 62
    2
370
   -1
100
AcDbLine
 10
9.381406399999999
 20
-9.763330300000002
 11
9.381406399999999
 21
-11.1632603
  0
LINE
  5
249
100
AcDbEntity
  8
filco-cutouts
  6
ByLayer
 62
    2
370
   -1
100
AcDbLine
 10
9.381406399999999
 20
-11.1632603
 11
7.9814524
 21
-11.1632603
  0
LINE
  5
24A
100
AcDbEntity
  8
filco-cutouts
  6
ByLayer
 62
    2
370
   -1
100
AcDbLine
 10
7.9814524
 20
-11.1632603
 11
7.9814524
 21
-9.763330300000002
  0
LINE
  5
24B
100
AcDbEntity
  8
filco-cutouts
  6
ByLayer
 62
    2
370
   -1
100
AcDbLine
 10
33.2227364
 20
-7.858330300000002
 11
33.2227364
 21
-8.328380300000001
  0
LINE
  5
24C
100
AcDbEntity
  8
filco-cutouts
  6
ByLayer
 62
    2
370
   -1
100
AcDbLine
 10
33.2227364
 20
-8.328380300000001
 11
33.0701364
 21
-8.328380300000001
  0
LINE
  5
24D
100
AcDbEntity
  8
filco-cutouts
  6
ByLayer
 62
    2
370
   -1
100
AcDbLine
 10
33.0701364
 20
-8.328380300000001
 11
33.0701364
 21
-8.005370300000003
  0
LINE
  5
24E
100
AcDbEntity
  8
filco-cutouts
  6
ByLayer
 62
    2
370
   -1
100
AcDbLine
 10
33.0701364
 20
-8.005370300000003
 11
32.3952364
 21
-8.005370300000003
  0
LINE
  5
24F
100
AcDbEntity
  8
filco-cutouts
  6
ByLayer
 62
    2
370
   -1
100
AcDbLine
 10
32.3952364
 20
-8.005370300000003
 11
32.3952364
 21
-8.328380300000001
  0
LINE
  5
250
100
AcDbEntity
  8
filco-cutouts
  6
ByLayer
 62
    2
370
   -1
100
AcDbLine
 10
32.3952364
 20
-8.328380300000001
 11
32.3126364
 21
-8.328380300000001
  0
LINE
  5
251
100
AcDbEntity
  8
filco-cutouts
  6
ByLayer
 62
    2
370
   -1
100
AcDbLine
 10
32.3126364
 20
-8.328380300000001
 11
32.3126364
 21
-8.608270300000001
  0
LINE
  5
252
100
AcDbEntity
  8
filco-cutouts
  6
ByLayer
 62
    2
370
   -1
100
AcDbLine
 10
32.3126364
 20
-8.608270300000001
 11
32.3952364
 21
-8.608270300000001
  0
LINE
  5
253
100
AcDbEntity
  8
filco-cutouts
  6
ByLayer
 62
    2
370
   -1
100
AcDbLine
 10
32.3952364
 20
-8.608270300000001
 11
32.3952364
 21
-9.2352603
  0
LINE
  5
254
100
AcDbEntity
  8
filco-cutouts
  6
ByLayer
 62
    2
370
   -1
100
AcDbLine
 10
32.3952364
 20
-9.2352603
 11
32.5675364
 21
-9.2352603
  0
LINE
  5
255
100
AcDbEntity
  8
filco-cutouts
  6
ByLayer
 62
    2
370
   -1
100
AcDbLine
 10
32.5675364
 20
-9.2352603
 11
32.5675364
 21
-9.355280300000002
  0
LINE
  5
256
100
AcDbEntity
  8
filco-cutouts
  6
ByLayer
 62
    2
370
   -1
100
AcDbLine
 10
32.5675364
 20
-9.355280300000002
 11
32.8976364
 21
-9.355280300000002
  0
LINE
  5
257
100
AcDbEntity
  8
filco-cutouts
  6
ByLayer
 62
    2
370
   -1
100
AcDbLine
 10
32.8976364
 20
-9.355280300000002
 11
32.8976364
 21
-9.2352603
  0
LINE
  5
258
100
AcDbEntity
  8
filco-cutouts
  6
ByLayer
 62
    2
370
   -1
100
AcDbLine
 10
32.8976364
 20
-9.2352603
 11
33.0701364
 21
-9.2352603
  0
LINE
  5
259
100
AcDbEntity
  8
filco-cutouts
  6
ByLayer
 62
    2
370
   -1
100
AcDbLine
 10
33.0701364
 20
-9.2352603
 11
33.0701364
 21
-8.788360300000001
  0
LINE
  5
25A
100
AcDbEntity
  8
filco-cutouts
  6
ByLayer
 62
    2
370
   -1
100
AcDbLine
 10
33.0701364
 20
-8.788360300000001
 11
33.2227364
 21
-8.788360300000001
  0
LINE
  5
25B
100
AcDbEntity
  8
filco-cutouts
  6
ByLayer
 62
    2
370
   -1
100
AcDbLine
 10
33.2227364
 20
-8.788360300000001
 11
33.2227364
 21
-9.258260300000002
  0
LINE
  5
25C
100
AcDbEntity
  8
filco-cutouts
  6
ByLayer
 62
    2
370
   -1
100
AcDbLine
 10
33.2227364
 20
-9.258260300000002
 11
34.6226364
 21
-9.258260300000002
  0
LINE
  5
25D
100
AcDbEntity
  8
filco-cutouts
  6
ByLayer
 62
    2
370
   -1
100
AcDbLine
 10
34.6226364
 20
-9.258260300000002
 11
34.6226364
 21
-8.788360300000001
  0
LINE
  5
25E
100
AcDbEntity
  8
filco-cutouts
  6
ByLayer
 62
    2
370
   -1
100
AcDbLine
 10
34.6226364
 20
-8.788360300000001
 11
34.7752364
 21
-8.788360300000001
  0
LINE
  5
25F
100
AcDbEntity
  8
filco-cutouts
  6
ByLayer
 62
    2
370
   -1
100
AcDbLine
 10
34.7752364
 20
-8.788360300000001
 11
34.7752364
 21
-9.2352603
  0
LINE
  5
260
100
AcDbEntity
  8
filco-cutouts
  6
ByLayer
 62
    2
370
   -1
100
AcDbLine
 10
34.7752364
 20
-9.2352603
 11
34.9477364
 21
-9.2352603
  0
LINE
  5
261
100
AcDbEntity
  8
filco-cutouts
  6
ByLayer
 62
    2
370
   -1
100
AcDbLine
 10
34.9477364
 20
-9.2352603
 11
34.9477364
 21
-9.355280300000002
  0
LINE
  5
262
100
AcDbEntity
  8
filco-cutouts
  6
ByLayer
 62
    2
370
   -1
100
AcDbLine
 10
34.9477364
 20
-9.355280300000002
 11
35.27763640000001
 21
-9.355280300000002
  0
LINE
  5
263
100
AcDbEntity
  8
filco-cutouts
  6
ByLayer
 62
    2
370
   -1
100
AcDbLine
 10
35.27763640000001
 20
-9.355280300000002
 11
35.27763640000001
 21
-9.2352603
  0
LINE
  5
264
100
AcDbEntity
  8
filco-cutouts
  6
ByLayer
 62
    2
370
   -1
100
AcDbLine
 10
35.27763640000001
 20
-9.2352603
 11
35.45013640000001
 21
-9.2352603
  0
LINE
  5
265
100
AcDbEntity
  8
filco-cutouts
  6
ByLayer
 62
    2
370
   -1
100
AcDbLine
 10
35.45013640000001
 20
-9.2352603
 11
35.45013640000001
 21
-8.608270300000001
  0
LINE
  5
266
100
AcDbEntity
  8
filco-cutouts
  6
ByLayer
 62
    2
370
   -1
100
AcDbLine
 10
35.45013640000001
 20
-8.608270300000001
 11
35.5327364
 21
-8.608270300000001
  0
LINE
  5
267
100
AcDbEntity
  8
filco-cutouts
  6
ByLayer
 62
    2
370
   -1
100
AcDbLine
 10
35.5327364
 20
-8.608270300000001
 11
35.5327364
 21
-8.328380300000001
  0
LINE
  5
268
100
AcDbEntity
  8
filco-cutouts
  6
ByLayer
 62
    2
370
   -1
100
AcDbLine
 10
35.5327364
 20
-8.328380300000001
 11
35.45013640000001
 21
-8.328380300000001
  0
LINE
  5
269
100
AcDbEntity
  8
filco-cutouts
  6
ByLayer
 62
    2
370
   -1
100
AcDbLine
 10
35.45013640000001
 20
-8.328380300000001
 11
35.45013640000001
 21
-8.005370300000003
  0
LINE
  5
26A
100
AcDbEntity
  8
filco-cutouts
  6
ByLayer
 62
    2
370
   -1
100
AcDbLine
 10
35.45013640000001
 20
-8.005370300000003
 11
34.7752364
 21
-8.005370300000003
  0
LINE
  5
26B
100
AcDbEntity
  8
filco-cutouts
  6
ByLayer
 62
    2
370
   -1
100
AcDbLine
 10
34.7752364
 20
-8.005370300000003
 11
34.7752364
 21
-8.328380300000001
  0
LINE
  5
26C
100
AcDbEntity
  8
filco-cutouts
  6
ByLayer
 62
    2
370
   -1
100
AcDbLine
 10
34.7752364
 20
-8.328380300000001
 11
34.6226364
 21
-8.328380300000001
  0
LINE
  5
26D
100
AcDbEntity
  8
filco-cutouts
  6
ByLayer
 62
    2
370
   -1
100
AcDbLine
 10
34.6226364
 20
-8.328380300000001
 11
34.6226364
 21
-7.858330300000002
  0
LINE
  5
26E
100
AcDbEntity
  8
filco-cutouts
  6
ByLayer
 62
    2
370
   -1
100
AcDbLine
 10
34.6226364
 20
-7.858330300000002
 11
33.2227364
 21
-7.858330300000002
  0
LINE
  5
26F
100
AcDbEntity
  8
filco-cutouts
  6
ByLayer
 62
    2
370
   -1
100
AcDbLine
 10
30.3652364
 20
-7.858330300000002
 11
31.7651364
 21
-7.858330300000002
  0
LINE
  5
270
100
AcDbEntity
  8
filco-cutouts
  6
ByLayer
 62
    2
370
   -1
100
AcDbLine
 10
31.7651364
 20
-7.858330300000002
 11
31.7651364
 21
-9.258260300000002
  0
LINE
  5
271
100
AcDbEntity
  8
filco-cutouts
  6
ByLayer
 62
    2
370
   -1
100
AcDbLine
 10
31.7651364
 20
-9.258260300000002
 11
30.3652364
 21
-9.258260300000002
  0
LINE
  5
272
100
AcDbEntity
  8
filco-cutouts
  6
ByLayer
 62
    2
370
   -1
100
AcDbLine
 10
30.3652364
 20
-9.258260300000002
 11
30.3652364
 21
-7.858330300000002
  0
LINE
  5
273
100
AcDbEntity
  8
filco-cutouts
  6
ByLayer
 62
    2
370
   -1
100
AcDbLine
 10
28.4602364
 20
-7.858330300000002
 11
29.8601364
 21
-7.858330300000002
  0
LINE
  5
274
100
AcDbEntity
  8
filco-cutouts
  6
ByLayer
 62
    2
370
   -1
100
AcDbLine
 10
29.8601364
 20
-7.858330300000002
 11
29.8601364
 21
-9.258260300000002
  0
LINE
  5
275
100
AcDbEntity
  8
filco-cutouts
  6
ByLayer
 62
    2
370
   -1
100
AcDbLine
 10
29.8601364
 20
-9.258260300000002
 11
28.4602364
 21
-9.258260300000002
  0
LINE
  5
276
100
AcDbEntity
  8
filco-cutouts
  6
ByLayer
 62
    2
370
   -1
100
AcDbLine
 10
28.4602364
 20
-9.258260300000002
 11
28.4602364
 21
-7.858330300000002
  0
LINE
  5
277
100
AcDbEntity
  8
filco-cutouts
  6
ByLayer
 62
    2
370
   -1
100
AcDbLine
 10
26.5552364
 20
-7.858330300000002
 11
27.9551364
 21
-7.858330300000002
  0
LINE
  5
278
100
AcDbEntity
  8
filco-cutouts
  6
ByLayer
 62
    2
370
   -1
100
AcDbLine
 10
27.9551364
 20
-7.858330300000002
 11
27.9551364
 21
-9.258260300000002
  0
LINE
  5
279
100
AcDbEntity
  8
filco-cutouts
  6
ByLayer
 62
    2
370
   -1
100
AcDbLine
 10
27.9551364
 20
-9.258260300000002
 11
26.5552364
 21
-9.258260300000002
  0
LINE
  5
27A
100
AcDbEntity
  8
filco-cutouts
  6
ByLayer
 62
    2
370
   -1
100
AcDbLine
 10
26.5552364
 20
-9.258260300000002
 11
26.5552364
 21
-7.858330300000002
  0
LINE
  5
27B
100
AcDbEntity
  8
filco-cutouts
  6
ByLayer
 62
    2
370
   -1
100
AcDbLine
 10
24.6502364
 20
-7.858330300000002
 11
26.0501364
 21
-7.858330300000002
  0
LINE
  5
27C
100
AcDbEntity
  8
filco-cutouts
  6
ByLayer
 62
    2
370
   -1
100
AcDbLine
 10
26.0501364
 20
-7.858330300000002
 11
26.0501364
 21
-9.258260300000002
  0
LINE
  5
27D
100
AcDbEntity
  8
filco-cutouts
  6
ByLayer
 62
    2
370
   -1
100
AcDbLine
 10
26.0501364
 20
-9.258260300000002
 11
24.6502364
 21
-9.258260300000002
  0
LINE
  5
27E
100
AcDbEntity
  8
filco-cutouts
  6
ByLayer
 62
    2
370
   -1
100
AcDbLine
 10
24.6502364
 20
-9.258260300000002
 11
24.6502364
 21
-7.858330300000002
  0
LINE
  5
27F
100
AcDbEntity
  8
filco-cutouts
  6
ByLayer
 62
    2
370
   -1
100
AcDbLine
 10
22.7452364
 20
-7.858330300000002
 11
24.1451364
 21
-7.858330300000002
  0
LINE
  5
280
100
AcDbEntity
  8
filco-cutouts
  6
ByLayer
 62
    2
370
   -1
100
AcDbLine
 10
24.1451364
 20
-7.858330300000002
 11
24.1451364
 21
-9.258260300000002
  0
LINE
  5
281
100
AcDbEntity
  8
filco-cutouts
  6
ByLayer
 62
    2
370
   -1
100
AcDbLine
 10
24.1451364
 20
-9.258260300000002
 11
22.7452364
 21
-9.258260300000002
  0
LINE
  5
282
100
AcDbEntity
  8
filco-cutouts
  6
ByLayer
 62
    2
370
   -1
100
AcDbLine
 10
22.7452364
 20
-9.258260300000002
 11
22.7452364
 21
-7.858330300000002
  0
LINE
  5
283
100
AcDbEntity
  8
filco-cutouts
  6
ByLayer
 62
    2
370
   -1
100
AcDbLine
 10
20.8402364
 20
-7.858330300000002
 11
22.2401364
 21
-7.858330300000002
  0
LINE
  5
284
100
AcDbEntity
  8
filco-cutouts
  6
ByLayer
 62
    2
370
   -1
100
AcDbLine
 10
22.2401364
 20
-7.858330300000002
 11
22.2401364
 21
-9.258260300000002
  0
LINE
  5
285
100
AcDbEntity
  8
filco-cutouts
  6
ByLayer
 62
    2
370
   -1
100
AcDbLine
 10
22.2401364
 20
-9.258260300000002
 11
20.8402364
 21
-9.258260300000002
  0
LINE
  5
286
100
AcDbEntity
  8
filco-cutouts
  6
ByLayer
 62
    2
370
   -1
100
AcDbLine
 10
20.8402364
 20
-9.258260300000002
 11
20.8402364
 21
-7.858330300000002
  0
LINE
  5
287
100
AcDbEntity
  8
filco-cutouts
  6
ByLayer
 62
    2
370
   -1
100
AcDbLine
 10
18.9350364
 20
-7.858330300000002
 11
20.3351364
 21
-7.858330300000002
  0
LINE
  5
288
100
AcDbEntity
  8
filco-cutouts
  6
ByLayer
 62
    2
370
   -1
100
AcDbLine
 10
20.3351364
 20
-7.858330300000002
 11
20.3351364
 21
-9.258260300000002
  0
LINE
  5
289
100
AcDbEntity
  8
filco-cutouts
  6
ByLayer
 62
    2
370
   -1
100
AcDbLine
 10
20.3351364
 20
-9.258260300000002
 11
18.9350364
 21
-9.258260300000002
  0
LINE
  5
28A
100
AcDbEntity
  8
filco-cutouts
  6
ByLayer
 62
    2
370
   -1
100
AcDbLine
 10
18.9350364
 20
-9.258260300000002
 11
18.9350364
 21
-7.858330300000002
  0
LINE
  5
28B
100
AcDbEntity
  8
filco-cutouts
  6
ByLayer
 62
    2
370
   -1
100
AcDbLine
 10
17.0300664
 20
-7.858330300000002
 11
18.4301364
 21
-7.858330300000002
  0
LINE
  5
28C
100
AcDbEntity
  8
filco-cutouts
  6
ByLayer
 62
    2
370
   -1
100
AcDbLine
 10
18.4301364
 20
-7.858330300000002
 11
18.4301364
 21
-9.258260300000002
  0
LINE
  5
28D
100
AcDbEntity
  8
filco-cutouts
  6
ByLayer
 62
    2
370
   -1
100
AcDbLine
 10
18.4301364
 20
-9.258260300000002
 11
17.0300664
 21
-9.258260300000002
  0
LINE
  5
28E
100
AcDbEntity
  8
filco-cutouts
  6
ByLayer
 62
    2
370
   -1
100
AcDbLine
 10
17.0300664
 20
-9.258260300000002
 11
17.0300664
 21
-7.858330300000002
  0
LINE
  5
28F
100
AcDbEntity
  8
filco-cutouts
  6
ByLayer
 62
    2
370
   -1
100
AcDbLine
 10
15.1252064
 20
-7.858330300000002
 11
16.5251364
 21
-7.858330300000002
  0
LINE
  5
290
100
AcDbEntity
  8
filco-cutouts
  6
ByLayer
 62
    2
370
   -1
100
AcDbLine
 10
16.5251364
 20
-7.858330300000002
 11
16.5251364
 21
-9.258260300000002
  0
LINE
  5
291
100
AcDbEntity
  8
filco-cutouts
  6
ByLayer
 62
    2
370
   -1
100
AcDbLine
 10
16.5251364
 20
-9.258260300000002
 11
15.1252064
 21
-9.258260300000002
  0
LINE
  5
292
100
AcDbEntity
  8
filco-cutouts
  6
ByLayer
 62
    2
370
   -1
100
AcDbLine
 10
15.1252064
 20
-9.258260300000002
 11
15.1252064
 21
-7.858330300000002
  0
LINE
  5
293
100
AcDbEntity
  8
filco-cutouts
  6
ByLayer
 62
    2
370
   -1
100
AcDbLine
 10
13.2202064
 20
-7.858330300000002
 11
14.6201364
 21
-7.858330300000002
  0
LINE
  5
294
100
AcDbEntity
  8
filco-cutouts
  6
ByLayer
 62
    2
370
   -1
100
AcDbLine
 10
14.6201364
 20
-7.858330300000002
 11
14.6201364
 21
-9.258260300000002
  0
LINE
  5
295
100
AcDbEntity
  8
filco-cutouts
  6
ByLayer
 62
    2
370
   -1
100
AcDbLine
 10
14.6201364
 20
-9.258260300000002
 11
13.2202064
 21
-9.258260300000002
  0
LINE
  5
296
100
AcDbEntity
  8
filco-cutouts
  6
ByLayer
 62
    2
370
   -1
100
AcDbLine
 10
13.2202064
 20
-9.258260300000002
 11
13.2202064
 21
-7.858330300000002
  0
LINE
  5
297
100
AcDbEntity
  8
filco-cutouts
  6
ByLayer
 62
    2
370
   -1
100
AcDbLine
 10
11.3152064
 20
-7.858330300000002
 11
12.7151364
 21
-7.858330300000002
  0
LINE
  5
298
100
AcDbEntity
  8
filco-cutouts
  6
ByLayer
 62
    2
370
   -1
100
AcDbLine
 10
12.7151364
 20
-7.858330300000002
 11
12.7151364
 21
-9.258260300000002
  0
LINE
  5
299
100
AcDbEntity
  8
filco-cutouts
  6
ByLayer
 62
    2
370
   -1
100
AcDbLine
 10
12.7151364
 20
-9.258260300000002
 11
11.3152064
 21
-9.258260300000002
  0
LINE
  5
29A
100
AcDbEntity
  8
filco-cutouts
  6
ByLayer
 62
    2
370
   -1
100
AcDbLine
 10
11.3152064
 20
-9.258260300000002
 11
11.3152064
 21
-7.858330300000002
  0
LINE
  5
29B
100
AcDbEntity
  8
filco-cutouts
  6
ByLayer
 62
    2
370
   -1
100
AcDbLine
 10
9.4102064
 20
-7.858330300000002
 11
10.8101364
 21
-7.858330300000002
  0
LINE
  5
29C
100
AcDbEntity
  8
filco-cutouts
  6
ByLayer
 62
    2
370
   -1
100
AcDbLine
 10
10.8101364
 20
-7.858330300000002
 11
10.8101364
 21
-9.258260300000002
  0
LINE
  5
29D
100
AcDbEntity
  8
filco-cutouts
  6
ByLayer
 62
    2
370
   -1
100
AcDbLine
 10
10.8101364
 20
-9.258260300000002
 11
9.4102064
 21
-9.258260300000002
  0
LINE
  5
29E
100
AcDbEntity
  8
filco-cutouts
  6
ByLayer
 62
    2
370
   -1
100
AcDbLine
 10
9.4102064
 20
-9.258260300000002
 11
9.4102064
 21
-7.858330300000002
  0
LINE
  5
29F
100
AcDbEntity
  8
filco-cutouts
  6
ByLayer
 62
    2
370
   -1
100
AcDbLine
 10
7.5052014
 20
-7.858330300000002
 11
8.905156399999999
 21
-7.858330300000002
  0
LINE
  5
2A0
100
AcDbEntity
  8
filco-cutouts
  6
ByLayer
 62
    2
370
   -1
100
AcDbLine
 10
8.905156399999999
 20
-7.858330300000002
 11
8.905156399999999
 21
-9.258260300000002
  0
LINE
  5
2A1
100
AcDbEntity
  8
filco-cutouts
  6
ByLayer
 62
    2
370
   -1
100
AcDbLine
 10
8.905156399999999
 20
-9.258260300000002
 11
7.5052014
 21
-9.258260300000002
  0
LINE
  5
2A2
100
AcDbEntity
  8
filco-cutouts
  6
ByLayer
 62
    2
370
   -1
100
AcDbLine
 10
7.5052014
 20
-9.258260300000002
 11
7.5052014
 21
-7.858330300000002
  0
LINE
  5
2A3
100
AcDbEntity
  8
acoustic-cutouts
  6
ByLayer
 62
  256
370
   -1
100
AcDbLine
 10
7.421428899999998
 20
-13.0182953
 11
7.421428899999998
 21
-11.7182953
  0
LINE
  5
2A4
100
AcDbEntity
  8
acoustic-cutouts
  6
ByLayer
 62
  256
370
   -1
100
AcDbLine
 10
7.471428899999997
 20
-11.6682953
 11
7.571428899999996
 21
-11.6682953
  0
ARC
  5
2A5
100
AcDbEntity
  8
acoustic-cutouts
  6
ByLayer
 62
  256
370
   -1
100
AcDbCircle
 10
7.471428899999997
 20
-11.7182953
 40
0.0499999999999989
100
AcDbArc
 50
89.99999999999594
 51
180
  0
ARC
  5
2A6
100
AcDbEntity
  8
acoustic-cutouts
  6
ByLayer
 62
  256
370
   -1
100
AcDbCircle
 10
7.571428899999996
 20
-13.0182953
 40
0.0500000000000007
100
AcDbArc
 50
-89.99999999999801
 51
0
  0
LINE
  5
2A7
100
AcDbEntity
  8
acoustic-cutouts
  6
ByLayer
 62
  256
370
   -1
100
AcDbLine
 10
7.621428899999997
 20
-11.7182953
 11
7.621428899999997
 21
-13.0182953
  0
ARC
  5
2A8
100
AcDbEntity
  8
acoustic-cutouts
  6
ByLayer
 62
  256
370
   -1
100
AcDbCircle
 10
7.571428899999996
 20
-11.7182953
 40
0.0499999999999989
100
AcDbArc
 50
-1.984666121233234e-012
 51
90
  0
LINE
  5
2A9
100
AcDbEntity
  8
acoustic-cutouts
  6
ByLayer
 62
  256
370
   -1
100
AcDbLine
 10
7.571428899999996
 20
-13.0682953
 11
7.471428899999997
 21
-13.0682953
  0
ARC
  5
2AA
100
AcDbEntity
  8
acoustic-cutouts
  6
ByLayer
 62
  256
370
   -1
100
AcDbCircle
 10
7.471428899999997
 20
-13.0182953
 40
0.0500000000000007
100
AcDbArc
 50
180
 51
-89.99999999999592
  0
LINE
  5
2AB
100
AcDbEntity
  8
acoustic-cutouts
  6
ByLayer
 62
  256
370
   -1
100
AcDbLine
 10
7.571428899999996
 20
-13.0682953
 11
7.471428899999997
 21
-13.0682953
  0
ARC
  5
2AC
100
AcDbEntity
  8
acoustic-cutouts
  6
ByLayer
 62
  256
370
   -1
100
AcDbCircle
 10
7.471428899999997
 20
-13.0182953
 40
0.0500000000000007
100
AcDbArc
 50
180
 51
-89.99999999999592
  0
LINE
  5
2AD
100
AcDbEntity
  8
acoustic-cutouts
  6
ByLayer
 62
  256
370
   -1
100
AcDbLine
 10
7.471428899999997
 20
-11.6682953
 11
7.571428899999996
 21
-11.6682953
  0
ARC
  5
2AE
100
AcDbEntity
  8
acoustic-cutouts
  6
ByLayer
 62
  256
370
   -1
100
AcDbCircle
 10
7.471428899999997
 20
-11.7182953
 40
0.0499999999999989
100
AcDbArc
 50
89.99999999999594
 51
180
  0
ARC
  5
2AF
100
AcDbEntity
  8
acoustic-cutouts
  6
ByLayer
 62
  256
370
   -1
100
AcDbCircle
 10
7.571428899999996
 20
-11.7182953
 40
0.0499999999999989
100
AcDbArc
 50
-1.984666121233234e-012
 51
90
  0
LINE
  5
2B0
100
AcDbEntity
  8
acoustic-cutouts
  6
ByLayer
 62
  256
370
   -1
100
AcDbLine
 10
7.621428899999997
 20
-11.7182953
 11
7.621428899999997
 21
-13.0182953
  0
ARC
  5
2B1
100
AcDbEntity
  8
acoustic-cutouts
  6
ByLayer
 62
  256
370
   -1
100
AcDbCircle
 10
7.571428899999996
 20
-13.0182953
 40
0.0500000000000007
100
AcDbArc
 50
-89.99999999999801
 51
0
  0
LINE
  5
2B2
100
AcDbEntity
  8
acoustic-cutouts
  6
ByLayer
 62
  256
370
   -1
100
AcDbLine
 10
7.421428899999998
 20
-13.0182953
 11
7.421428899999998
 21
-11.7182953
  0
LINE
  5
2B3
100
AcDbEntity
  8
brutal_ansi_fixed v3_0
  6
ByLayer
 62
    7
370
   -1
100
AcDbLine
 10
12.562947398061
 20
-7.605795250609999
 11
20.9924104
 21
-7.605795299999981
  0
ENDSEC
  0
SECTION
  2
OBJECTS
  0
DICTIONARY
  5
C
330
0
100
AcDbDictionary
281
    1
  3
ACAD_GROUP
350
D
  0
DICTIONARY
  5
D
330
C
100
AcDbDictionary
281
    1
  0
ENDSEC
  0
EOF
