  0
SECTION
  2
HEADER
  9
$ACADVER
  1
AC1009
  9
$EXTMIN
 10
0.0
 20
0.0
 30
0.0
  9
$EXTMAX
 10
1000.0
 20
1000.0
 30
0.0
  9
$FILLMODE
 70
 0
  9
$SPLFRAME
 70
 1
  0
ENDSEC
  0
SECTION
  2
TABLES
  0
TABLE
  2
LAYER
 70
1
  0
LAYER
  2
0
 70
     0
 62
     7
  6
CONTINUOUS
  0
ENDTAB
  0
ENDSEC
  0
SECTION
  2
ENTITIES
  0
LINE
  8
0
 62
     0
 10
0.0950846
 20
95.5075
 30
0.0
 11
285.845
 21
95.5075
 31
0.0
  0
LINE
  8
0
 62
     0
 10
285.845
 20
95.5075
 30
0.0
 11
285.845
 21
0.257693
 31
0.0
  0
LINE
  8
0
 62
     0
 10
285.845
 20
0.257693
 30
0.0
 11
0.0950846
 21
0.257693
 31
0.0
  0
LINE
  8
0
 62
     0
 10
0.0950846
 20
0.257693
 30
0.0
 11
0.0950846
 21
95.5075
 31
0.0
  0
LINE
  8
0
 62
     0
 10
171.588
 20
5.9104
 30
0.0
 11
174.254
 21
5.9104
 31
0.0
  0
LINE
  8
0
 62
     0
 10
174.254
 20
5.9104
 30
0.0
 11
174.254
 21
0.704176
 31
0.0
  0
LINE
  8
0
 62
     0
 10
174.254
 20
0.704176
 30
0.0
 11
171.588
 21
0.704176
 31
0.0
  0
LINE
  8
0
 62
     0
 10
171.588
 20
0.704176
 30
0.0
 11
171.588
 21
5.9104
 31
0.0
  0
LINE
  8
0
 62
     0
 10
87.8706
 20
5.9104
 30
0.0
 11
90.5372
 21
5.9104
 31
0.0
  0
LINE
  8
0
 62
     0
 10
90.5372
 20
5.9104
 30
0.0
 11
90.5372
 21
0.704176
 31
0.0
  0
LINE
  8
0
 62
     0
 10
90.5372
 20
0.704176
 30
0.0
 11
87.8706
 21
0.704176
 31
0.0
  0
LINE
  8
0
 62
     0
 10
87.8706
 20
0.704176
 30
0.0
 11
87.8706
 21
5.9104
 31
0.0
  0
LINE
  8
0
 62
     0
 10
266.138
 20
16.1837
 30
0.0
 11
281.737
 21
16.1837
 31
0.0
  0
LINE
  8
0
 62
     0
 10
281.737
 20
16.1837
 30
0.0
 11
281.737
 21
3.38308
 31
0.0
  0
LINE
  8
0
 62
     0
 10
281.737
 20
3.38308
 30
0.0
 11
266.138
 21
3.38308
 31
0.0
  0
LINE
  8
0
 62
     0
 10
266.138
 20
3.38308
 30
0.0
 11
266.138
 21
16.1837
 31
0.0
  0
LINE
  8
0
 62
     0
 10
242.325
 20
16.1837
 30
0.0
 11
257.926
 21
16.1837
 31
0.0
  0
LINE
  8
0
 62
     0
 10
257.926
 20
16.1837
 30
0.0
 11
257.926
 21
3.38308
 31
0.0
  0
LINE
  8
0
 62
     0
 10
257.926
 20
3.38308
 30
0.0
 11
242.325
 21
3.38308
 31
0.0
  0
LINE
  8
0
 62
     0
 10
242.325
 20
3.38308
 30
0.0
 11
242.325
 21
16.1837
 31
0.0
  0
LINE
  8
0
 62
     0
 10
218.513
 20
16.1837
 30
0.0
 11
234.112
 21
16.1837
 31
0.0
  0
LINE
  8
0
 62
     0
 10
234.112
 20
16.1837
 30
0.0
 11
234.112
 21
3.38308
 31
0.0
  0
LINE
  8
0
 62
     0
 10
234.112
 20
3.38308
 30
0.0
 11
218.513
 21
3.38308
 31
0.0
  0
LINE
  8
0
 62
     0
 10
218.513
 20
3.38308
 30
0.0
 11
218.513
 21
16.1837
 31
0.0
  0
LINE
  8
0
 62
     0
 10
194.7
 20
16.1837
 30
0.0
 11
210.301
 21
16.1837
 31
0.0
  0
LINE
  8
0
 62
     0
 10
210.301
 20
16.1837
 30
0.0
 11
210.301
 21
3.38308
 31
0.0
  0
LINE
  8
0
 62
     0
 10
210.301
 20
3.38308
 30
0.0
 11
194.7
 21
3.38308
 31
0.0
  0
LINE
  8
0
 62
     0
 10
194.7
 20
3.38308
 30
0.0
 11
194.7
 21
16.1837
 31
0.0
  0
LINE
  8
0
 62
     0
 10
123.263
 20
16.1837
 30
0.0
 11
138.862
 21
16.1837
 31
0.0
  0
LINE
  8
0
 62
     0
 10
138.862
 20
16.1837
 30
0.0
 11
138.862
 21
3.38308
 31
0.0
  0
LINE
  8
0
 62
     0
 10
138.862
 20
3.38308
 30
0.0
 11
123.263
 21
3.38308
 31
0.0
  0
LINE
  8
0
 62
     0
 10
123.263
 20
3.38308
 30
0.0
 11
123.263
 21
16.1837
 31
0.0
  0
LINE
  8
0
 62
     0
 10
51.8252
 20
16.1837
 30
0.0
 11
67.4261
 21
16.1837
 31
0.0
  0
LINE
  8
0
 62
     0
 10
67.4261
 20
16.1837
 30
0.0
 11
67.4261
 21
3.38308
 31
0.0
  0
LINE
  8
0
 62
     0
 10
67.4261
 20
3.38308
 30
0.0
 11
51.8252
 21
3.38308
 31
0.0
  0
LINE
  8
0
 62
     0
 10
51.8252
 20
3.38308
 30
0.0
 11
51.8252
 21
16.1837
 31
0.0
  0
LINE
  8
0
 62
     0
 10
28.0128
 20
16.1837
 30
0.0
 11
43.6122
 21
16.1837
 31
0.0
  0
LINE
  8
0
 62
     0
 10
43.6122
 20
16.1837
 30
0.0
 11
43.6122
 21
3.38308
 31
0.0
  0
LINE
  8
0
 62
     0
 10
43.6122
 20
3.38308
 30
0.0
 11
28.0128
 21
3.38308
 31
0.0
  0
LINE
  8
0
 62
     0
 10
28.0128
 20
3.38308
 30
0.0
 11
28.0128
 21
16.1837
 31
0.0
  0
LINE
  8
0
 62
     0
 10
4.20028
 20
16.1837
 30
0.0
 11
19.801
 21
16.1837
 31
0.0
  0
LINE
  8
0
 62
     0
 10
19.801
 20
16.1837
 30
0.0
 11
19.801
 21
3.38308
 31
0.0
  0
LINE
  8
0
 62
     0
 10
19.801
 20
3.38308
 30
0.0
 11
4.20028
 21
3.38308
 31
0.0
  0
LINE
  8
0
 62
     0
 10
4.20028
 20
3.38308
 30
0.0
 11
4.20028
 21
16.1837
 31
0.0
  0
LINE
  8
0
 62
     0
 10
272.413
 20
24.9604
 30
0.0
 11
275.08
 21
24.9604
 31
0.0
  0
LINE
  8
0
 62
     0
 10
275.08
 20
24.9604
 30
0.0
 11
275.08
 21
19.7528
 31
0.0
  0
LINE
  8
0
 62
     0
 10
275.08
 20
19.7528
 30
0.0
 11
272.413
 21
19.7528
 31
0.0
  0
LINE
  8
0
 62
     0
 10
272.413
 20
19.7528
 30
0.0
 11
272.413
 21
24.9604
 31
0.0
  0
LINE
  8
0
 62
     0
 10
244.221
 20
24.9604
 30
0.0
 11
246.888
 21
24.9604
 31
0.0
  0
LINE
  8
0
 62
     0
 10
246.888
 20
24.9604
 30
0.0
 11
246.888
 21
19.7528
 31
0.0
  0
LINE
  8
0
 62
     0
 10
246.888
 20
19.7528
 30
0.0
 11
244.221
 21
19.7528
 31
0.0
  0
LINE
  8
0
 62
     0
 10
244.221
 20
19.7528
 30
0.0
 11
244.221
 21
24.9604
 31
0.0
  0
LINE
  8
0
 62
     0
 10
34.2883
 20
24.9604
 30
0.0
 11
36.9549
 21
24.9604
 31
0.0
  0
LINE
  8
0
 62
     0
 10
36.9549
 20
24.9604
 30
0.0
 11
36.9549
 21
19.7528
 31
0.0
  0
LINE
  8
0
 62
     0
 10
36.9549
 20
19.7528
 30
0.0
 11
34.2883
 21
19.7528
 31
0.0
  0
LINE
  8
0
 62
     0
 10
34.2883
 20
19.7528
 30
0.0
 11
34.2883
 21
24.9604
 31
0.0
  0
LINE
  8
0
 62
     0
 10
6.09646
 20
24.9604
 30
0.0
 11
8.76293
 21
24.9604
 31
0.0
  0
LINE
  8
0
 62
     0
 10
8.76293
 20
24.9604
 30
0.0
 11
8.76293
 21
19.7528
 31
0.0
  0
LINE
  8
0
 62
     0
 10
8.76293
 20
19.7528
 30
0.0
 11
6.09646
 21
19.7528
 31
0.0
  0
LINE
  8
0
 62
     0
 10
6.09646
 20
19.7528
 30
0.0
 11
6.09646
 21
24.9604
 31
0.0
  0
LINE
  8
0
 62
     0
 10
251.849
 20
35.2337
 30
0.0
 11
267.451
 21
35.2337
 31
0.0
  0
LINE
  8
0
 62
     0
 10
267.451
 20
35.2337
 30
0.0
 11
267.451
 21
22.4331
 31
0.0
  0
LINE
  8
0
 62
     0
 10
267.451
 20
22.4331
 30
0.0
 11
251.849
 21
22.4331
 31
0.0
  0
LINE
  8
0
 62
     0
 10
251.849
 20
22.4331
 30
0.0
 11
251.849
 21
35.2337
 31
0.0
  0
LINE
  8
0
 62
     0
 10
216.131
 20
35.2337
 30
0.0
 11
231.731
 21
35.2337
 31
0.0
  0
LINE
  8
0
 62
     0
 10
231.731
 20
35.2337
 30
0.0
 11
231.731
 21
22.4331
 31
0.0
  0
LINE
  8
0
 62
     0
 10
231.731
 20
22.4331
 30
0.0
 11
216.131
 21
22.4331
 31
0.0
  0
LINE
  8
0
 62
     0
 10
216.131
 20
22.4331
 30
0.0
 11
216.131
 21
35.2337
 31
0.0
  0
LINE
  8
0
 62
     0
 10
197.081
 20
35.2337
 30
0.0
 11
212.681
 21
35.2337
 31
0.0
  0
LINE
  8
0
 62
     0
 10
212.681
 20
35.2337
 30
0.0
 11
212.681
 21
22.4331
 31
0.0
  0
LINE
  8
0
 62
     0
 10
212.681
 20
22.4331
 30
0.0
 11
197.081
 21
22.4331
 31
0.0
  0
LINE
  8
0
 62
     0
 10
197.081
 20
22.4331
 30
0.0
 11
197.081
 21
35.2337
 31
0.0
  0
LINE
  8
0
 62
     0
 10
178.031
 20
35.2337
 30
0.0
 11
193.631
 21
35.2337
 31
0.0
  0
LINE
  8
0
 62
     0
 10
193.631
 20
35.2337
 30
0.0
 11
193.631
 21
22.4331
 31
0.0
  0
LINE
  8
0
 62
     0
 10
193.631
 20
22.4331
 30
0.0
 11
178.031
 21
22.4331
 31
0.0
  0
LINE
  8
0
 62
     0
 10
178.031
 20
22.4331
 30
0.0
 11
178.031
 21
35.2337
 31
0.0
  0
LINE
  8
0
 62
     0
 10
158.981
 20
35.2337
 30
0.0
 11
174.581
 21
35.2337
 31
0.0
  0
LINE
  8
0
 62
     0
 10
174.581
 20
35.2337
 30
0.0
 11
174.581
 21
22.4331
 31
0.0
  0
LINE
  8
0
 62
     0
 10
174.581
 20
22.4331
 30
0.0
 11
158.981
 21
22.4331
 31
0.0
  0
LINE
  8
0
 62
     0
 10
158.981
 20
22.4331
 30
0.0
 11
158.981
 21
35.2337
 31
0.0
  0
LINE
  8
0
 62
     0
 10
139.931
 20
35.2337
 30
0.0
 11
155.531
 21
35.2337
 31
0.0
  0
LINE
  8
0
 62
     0
 10
155.531
 20
35.2337
 30
0.0
 11
155.531
 21
22.4331
 31
0.0
  0
LINE
  8
0
 62
     0
 10
155.531
 20
22.4331
 30
0.0
 11
139.931
 21
22.4331
 31
0.0
  0
LINE
  8
0
 62
     0
 10
139.931
 20
22.4331
 30
0.0
 11
139.931
 21
35.2337
 31
0.0
  0
LINE
  8
0
 62
     0
 10
120.881
 20
35.2337
 30
0.0
 11
136.481
 21
35.2337
 31
0.0
  0
LINE
  8
0
 62
     0
 10
136.481
 20
35.2337
 30
0.0
 11
136.481
 21
22.4331
 31
0.0
  0
LINE
  8
0
 62
     0
 10
136.481
 20
22.4331
 30
0.0
 11
120.881
 21
22.4331
 31
0.0
  0
LINE
  8
0
 62
     0
 10
120.881
 20
22.4331
 30
0.0
 11
120.881
 21
35.2337
 31
0.0
  0
LINE
  8
0
 62
     0
 10
101.831
 20
35.2337
 30
0.0
 11
117.431
 21
35.2337
 31
0.0
  0
LINE
  8
0
 62
     0
 10
117.431
 20
35.2337
 30
0.0
 11
117.431
 21
22.4331
 31
0.0
  0
LINE
  8
0
 62
     0
 10
117.431
 20
22.4331
 30
0.0
 11
101.831
 21
22.4331
 31
0.0
  0
LINE
  8
0
 62
     0
 10
101.831
 20
22.4331
 30
0.0
 11
101.831
 21
35.2337
 31
0.0
  0
LINE
  8
0
 62
     0
 10
82.7814
 20
35.2337
 30
0.0
 11
98.3809
 21
35.2337
 31
0.0
  0
LINE
  8
0
 62
     0
 10
98.3809
 20
35.2337
 30
0.0
 11
98.3809
 21
22.4331
 31
0.0
  0
LINE
  8
0
 62
     0
 10
98.3809
 20
22.4331
 30
0.0
 11
82.7814
 21
22.4331
 31
0.0
  0
LINE
  8
0
 62
     0
 10
82.7814
 20
22.4331
 30
0.0
 11
82.7814
 21
35.2337
 31
0.0
  0
LINE
  8
0
 62
     0
 10
63.7314
 20
35.2337
 30
0.0
 11
79.3309
 21
35.2337
 31
0.0
  0
LINE
  8
0
 62
     0
 10
79.3309
 20
35.2337
 30
0.0
 11
79.3309
 21
22.4331
 31
0.0
  0
LINE
  8
0
 62
     0
 10
79.3309
 20
22.4331
 30
0.0
 11
63.7314
 21
22.4331
 31
0.0
  0
LINE
  8
0
 62
     0
 10
63.7314
 20
22.4331
 30
0.0
 11
63.7314
 21
35.2337
 31
0.0
  0
LINE
  8
0
 62
     0
 10
44.6814
 20
35.2337
 30
0.0
 11
60.2809
 21
35.2337
 31
0.0
  0
LINE
  8
0
 62
     0
 10
60.2809
 20
35.2337
 30
0.0
 11
60.2809
 21
22.4331
 31
0.0
  0
LINE
  8
0
 62
     0
 10
60.2809
 20
22.4331
 30
0.0
 11
44.6814
 21
22.4331
 31
0.0
  0
LINE
  8
0
 62
     0
 10
44.6814
 20
22.4331
 30
0.0
 11
44.6814
 21
35.2337
 31
0.0
  0
LINE
  8
0
 62
     0
 10
13.7253
 20
35.2337
 30
0.0
 11
29.326
 21
35.2337
 31
0.0
  0
LINE
  8
0
 62
     0
 10
29.326
 20
35.2337
 30
0.0
 11
29.326
 21
22.4331
 31
0.0
  0
LINE
  8
0
 62
     0
 10
29.326
 20
22.4331
 30
0.0
 11
13.7253
 21
22.4331
 31
0.0
  0
LINE
  8
0
 62
     0
 10
13.7253
 20
22.4331
 30
0.0
 11
13.7253
 21
35.2337
 31
0.0
  0
LINE
  8
0
 62
     0
 10
277.176
 20
44.0104
 30
0.0
 11
279.841
 21
44.0104
 31
0.0
  0
LINE
  8
0
 62
     0
 10
279.841
 20
44.0104
 30
0.0
 11
279.841
 21
38.8027
 31
0.0
  0
LINE
  8
0
 62
     0
 10
279.841
 20
38.8027
 30
0.0
 11
277.176
 21
38.8027
 31
0.0
  0
LINE
  8
0
 62
     0
 10
277.176
 20
38.8027
 30
0.0
 11
277.176
 21
44.0104
 31
0.0
  0
LINE
  8
0
 62
     0
 10
248.984
 20
44.0104
 30
0.0
 11
251.649
 21
44.0104
 31
0.0
  0
LINE
  8
0
 62
     0
 10
251.649
 20
44.0104
 30
0.0
 11
251.649
 21
38.8027
 31
0.0
  0
LINE
  8
0
 62
     0
 10
251.649
 20
38.8027
 30
0.0
 11
248.984
 21
38.8027
 31
0.0
  0
LINE
  8
0
 62
     0
 10
248.984
 20
38.8027
 30
0.0
 11
248.984
 21
44.0104
 31
0.0
  0
LINE
  8
0
 62
     0
 10
27.3678
 20
44.0104
 30
0.0
 11
30.033
 21
44.0104
 31
0.0
  0
LINE
  8
0
 62
     0
 10
30.033
 20
44.0104
 30
0.0
 11
30.033
 21
38.8027
 31
0.0
  0
LINE
  8
0
 62
     0
 10
30.033
 20
38.8027
 30
0.0
 11
27.3678
 21
38.8027
 31
0.0
  0
LINE
  8
0
 62
     0
 10
27.3678
 20
38.8027
 30
0.0
 11
27.3678
 21
44.0104
 31
0.0
  0
LINE
  8
0
 62
     0
 10
3.49195
 20
44.0104
 30
0.0
 11
6.15707
 21
44.0104
 31
0.0
  0
LINE
  8
0
 62
     0
 10
6.15707
 20
44.0104
 30
0.0
 11
6.15707
 21
38.8027
 31
0.0
  0
LINE
  8
0
 62
     0
 10
6.15707
 20
38.8027
 30
0.0
 11
3.49195
 21
38.8027
 31
0.0
  0
LINE
  8
0
 62
     0
 10
3.49195
 20
38.8027
 30
0.0
 11
3.49195
 21
44.0104
 31
0.0
  0
LINE
  8
0
 62
     0
 10
256.611
 20
54.2837
 30
0.0
 11
272.212
 21
54.2837
 31
0.0
  0
LINE
  8
0
 62
     0
 10
272.212
 20
54.2837
 30
0.0
 11
272.212
 21
41.4831
 31
0.0
  0
LINE
  8
0
 62
     0
 10
272.212
 20
41.4831
 30
0.0
 11
256.611
 21
41.4831
 31
0.0
  0
LINE
  8
0
 62
     0
 10
256.611
 20
41.4831
 30
0.0
 11
256.611
 21
54.2837
 31
0.0
  0
LINE
  8
0
 62
     0
 10
225.656
 20
54.2837
 30
0.0
 11
241.256
 21
54.2837
 31
0.0
  0
LINE
  8
0
 62
     0
 10
241.256
 20
54.2837
 30
0.0
 11
241.256
 21
41.4831
 31
0.0
  0
LINE
  8
0
 62
     0
 10
241.256
 20
41.4831
 30
0.0
 11
225.656
 21
41.4831
 31
0.0
  0
LINE
  8
0
 62
     0
 10
225.656
 20
41.4831
 30
0.0
 11
225.656
 21
54.2837
 31
0.0
  0
LINE
  8
0
 62
     0
 10
206.606
 20
54.2837
 30
0.0
 11
222.206
 21
54.2837
 31
0.0
  0
LINE
  8
0
 62
     0
 10
222.206
 20
54.2837
 30
0.0
 11
222.206
 21
41.4831
 31
0.0
  0
LINE
  8
0
 62
     0
 10
222.206
 20
41.4831
 30
0.0
 11
206.606
 21
41.4831
 31
0.0
  0
LINE
  8
0
 62
     0
 10
206.606
 20
41.4831
 30
0.0
 11
206.606
 21
54.2837
 31
0.0
  0
LINE
  8
0
 62
     0
 10
187.556
 20
54.2837
 30
0.0
 11
203.156
 21
54.2837
 31
0.0
  0
LINE
  8
0
 62
     0
 10
203.156
 20
54.2837
 30
0.0
 11
203.156
 21
41.4831
 31
0.0
  0
LINE
  8
0
 62
     0
 10
203.156
 20
41.4831
 30
0.0
 11
187.556
 21
41.4831
 31
0.0
  0
LINE
  8
0
 62
     0
 10
187.556
 20
41.4831
 30
0.0
 11
187.556
 21
54.2837
 31
0.0
  0
LINE
  8
0
 62
     0
 10
168.506
 20
54.2837
 30
0.0
 11
184.106
 21
54.2837
 31
0.0
  0
LINE
  8
0
 62
     0
 10
184.106
 20
54.2837
 30
0.0
 11
184.106
 21
41.4831
 31
0.0
  0
LINE
  8
0
 62
     0
 10
184.106
 20
41.4831
 30
0.0
 11
168.506
 21
41.4831
 31
0.0
  0
LINE
  8
0
 62
     0
 10
168.506
 20
41.4831
 30
0.0
 11
168.506
 21
54.2837
 31
0.0
  0
LINE
  8
0
 62
     0
 10
149.456
 20
54.2837
 30
0.0
 11
165.056
 21
54.2837
 31
0.0
  0
LINE
  8
0
 62
     0
 10
165.056
 20
54.2837
 30
0.0
 11
165.056
 21
41.4831
 31
0.0
  0
LINE
  8
0
 62
     0
 10
165.056
 20
41.4831
 30
0.0
 11
149.456
 21
41.4831
 31
0.0
  0
LINE
  8
0
 62
     0
 10
149.456
 20
41.4831
 30
0.0
 11
149.456
 21
54.2837
 31
0.0
  0
LINE
  8
0
 62
     0
 10
130.406
 20
54.2837
 30
0.0
 11
146.006
 21
54.2837
 31
0.0
  0
LINE
  8
0
 62
     0
 10
146.006
 20
54.2837
 30
0.0
 11
146.006
 21
41.4831
 31
0.0
  0
LINE
  8
0
 62
     0
 10
146.006
 20
41.4831
 30
0.0
 11
130.406
 21
41.4831
 31
0.0
  0
LINE
  8
0
 62
     0
 10
130.406
 20
41.4831
 30
0.0
 11
130.406
 21
54.2837
 31
0.0
  0
LINE
  8
0
 62
     0
 10
111.356
 20
54.2837
 30
0.0
 11
126.956
 21
54.2837
 31
0.0
  0
LINE
  8
0
 62
     0
 10
126.956
 20
54.2837
 30
0.0
 11
126.956
 21
41.4831
 31
0.0
  0
LINE
  8
0
 62
     0
 10
126.956
 20
41.4831
 30
0.0
 11
111.356
 21
41.4831
 31
0.0
  0
LINE
  8
0
 62
     0
 10
111.356
 20
41.4831
 30
0.0
 11
111.356
 21
54.2837
 31
0.0
  0
LINE
  8
0
 62
     0
 10
92.3064
 20
54.2837
 30
0.0
 11
107.906
 21
54.2837
 31
0.0
  0
LINE
  8
0
 62
     0
 10
107.906
 20
54.2837
 30
0.0
 11
107.906
 21
41.4831
 31
0.0
  0
LINE
  8
0
 62
     0
 10
107.906
 20
41.4831
 30
0.0
 11
92.3064
 21
41.4831
 31
0.0
  0
LINE
  8
0
 62
     0
 10
92.3064
 20
41.4831
 30
0.0
 11
92.3064
 21
54.2837
 31
0.0
  0
LINE
  8
0
 62
     0
 10
73.2564
 20
54.2837
 30
0.0
 11
88.8559
 21
54.2837
 31
0.0
  0
LINE
  8
0
 62
     0
 10
88.8559
 20
54.2837
 30
0.0
 11
88.8559
 21
41.4831
 31
0.0
  0
LINE
  8
0
 62
     0
 10
88.8559
 20
41.4831
 30
0.0
 11
73.2564
 21
41.4831
 31
0.0
  0
LINE
  8
0
 62
     0
 10
73.2564
 20
41.4831
 30
0.0
 11
73.2564
 21
54.2837
 31
0.0
  0
LINE
  8
0
 62
     0
 10
54.2064
 20
54.2837
 30
0.0
 11
69.8059
 21
54.2837
 31
0.0
  0
LINE
  8
0
 62
     0
 10
69.8059
 20
54.2837
 30
0.0
 11
69.8059
 21
41.4831
 31
0.0
  0
LINE
  8
0
 62
     0
 10
69.8059
 20
41.4831
 30
0.0
 11
54.2064
 21
41.4831
 31
0.0
  0
LINE
  8
0
 62
     0
 10
54.2064
 20
41.4831
 30
0.0
 11
54.2064
 21
54.2837
 31
0.0
  0
LINE
  8
0
 62
     0
 10
35.1565
 20
54.2837
 30
0.0
 11
50.7559
 21
54.2837
 31
0.0
  0
LINE
  8
0
 62
     0
 10
50.7559
 20
54.2837
 30
0.0
 11
50.7559
 21
41.4831
 31
0.0
  0
LINE
  8
0
 62
     0
 10
50.7559
 20
41.4831
 30
0.0
 11
35.1565
 21
41.4831
 31
0.0
  0
LINE
  8
0
 62
     0
 10
35.1565
 20
41.4831
 30
0.0
 11
35.1565
 21
54.2837
 31
0.0
  0
LINE
  8
0
 62
     0
 10
8.96278
 20
54.2837
 30
0.0
 11
24.5622
 21
54.2837
 31
0.0
  0
LINE
  8
0
 62
     0
 10
24.5622
 20
54.2837
 30
0.0
 11
24.5622
 21
41.4831
 31
0.0
  0
LINE
  8
0
 62
     0
 10
24.5622
 20
41.4831
 30
0.0
 11
8.96278
 21
41.4831
 31
0.0
  0
LINE
  8
0
 62
     0
 10
8.96278
 20
41.4831
 30
0.0
 11
8.96278
 21
54.2837
 31
0.0
  0
LINE
  8
0
 62
     0
 10
263.756
 20
73.3337
 30
0.0
 11
279.356
 21
73.3337
 31
0.0
  0
LINE
  8
0
 62
     0
 10
279.356
 20
73.3337
 30
0.0
 11
279.356
 21
60.5331
 31
0.0
  0
LINE
  8
0
 62
     0
 10
279.356
 20
60.5331
 30
0.0
 11
263.756
 21
60.5331
 31
0.0
  0
LINE
  8
0
 62
     0
 10
263.756
 20
60.5331
 30
0.0
 11
263.756
 21
73.3337
 31
0.0
  0
LINE
  8
0
 62
     0
 10
239.944
 20
73.3337
 30
0.0
 11
255.545
 21
73.3337
 31
0.0
  0
LINE
  8
0
 62
     0
 10
255.545
 20
73.3337
 30
0.0
 11
255.545
 21
60.5331
 31
0.0
  0
LINE
  8
0
 62
     0
 10
255.545
 20
60.5331
 30
0.0
 11
239.944
 21
60.5331
 31
0.0
  0
LINE
  8
0
 62
     0
 10
239.944
 20
60.5331
 30
0.0
 11
239.944
 21
73.3337
 31
0.0
  0
LINE
  8
0
 62
     0
 10
220.894
 20
73.3337
 30
0.0
 11
236.495
 21
73.3337
 31
0.0
  0
LINE
  8
0
 62
     0
 10
236.495
 20
73.3337
 30
0.0
 11
236.495
 21
60.5331
 31
0.0
  0
LINE
  8
0
 62
     0
 10
236.495
 20
60.5331
 30
0.0
 11
220.894
 21
60.5331
 31
0.0
  0
LINE
  8
0
 62
     0
 10
220.894
 20
60.5331
 30
0.0
 11
220.894
 21
73.3337
 31
0.0
  0
LINE
  8
0
 62
     0
 10
201.844
 20
73.3337
 30
0.0
 11
217.445
 21
73.3337
 31
0.0
  0
LINE
  8
0
 62
     0
 10
217.445
 20
73.3337
 30
0.0
 11
217.445
 21
60.5331
 31
0.0
  0
LINE
  8
0
 62
     0
 10
217.445
 20
60.5331
 30
0.0
 11
201.844
 21
60.5331
 31
0.0
  0
LINE
  8
0
 62
     0
 10
201.844
 20
60.5331
 30
0.0
 11
201.844
 21
73.3337
 31
0.0
  0
LINE
  8
0
 62
     0
 10
182.794
 20
73.3337
 30
0.0
 11
198.395
 21
73.3337
 31
0.0
  0
LINE
  8
0
 62
     0
 10
198.395
 20
73.3337
 30
0.0
 11
198.395
 21
60.5331
 31
0.0
  0
LINE
  8
0
 62
     0
 10
198.395
 20
60.5331
 30
0.0
 11
182.794
 21
60.5331
 31
0.0
  0
LINE
  8
0
 62
     0
 10
182.794
 20
60.5331
 30
0.0
 11
182.794
 21
73.3337
 31
0.0
  0
LINE
  8
0
 62
     0
 10
163.744
 20
73.3337
 30
0.0
 11
179.345
 21
73.3337
 31
0.0
  0
LINE
  8
0
 62
     0
 10
179.345
 20
73.3337
 30
0.0
 11
179.345
 21
60.5331
 31
0.0
  0
LINE
  8
0
 62
     0
 10
179.345
 20
60.5331
 30
0.0
 11
163.744
 21
60.5331
 31
0.0
  0
LINE
  8
0
 62
     0
 10
163.744
 20
60.5331
 30
0.0
 11
163.744
 21
73.3337
 31
0.0
  0
LINE
  8
0
 62
     0
 10
144.694
 20
73.3337
 30
0.0
 11
160.295
 21
73.3337
 31
0.0
  0
LINE
  8
0
 62
     0
 10
160.295
 20
73.3337
 30
0.0
 11
160.295
 21
60.5331
 31
0.0
  0
LINE
  8
0
 62
     0
 10
160.295
 20
60.5331
 30
0.0
 11
144.694
 21
60.5331
 31
0.0
  0
LINE
  8
0
 62
     0
 10
144.694
 20
60.5331
 30
0.0
 11
144.694
 21
73.3337
 31
0.0
  0
LINE
  8
0
 62
     0
 10
125.644
 20
73.3337
 30
0.0
 11
141.245
 21
73.3337
 31
0.0
  0
LINE
  8
0
 62
     0
 10
141.245
 20
73.3337
 30
0.0
 11
141.245
 21
60.5331
 31
0.0
  0
LINE
  8
0
 62
     0
 10
141.245
 20
60.5331
 30
0.0
 11
125.644
 21
60.5331
 31
0.0
  0
LINE
  8
0
 62
     0
 10
125.644
 20
60.5331
 30
0.0
 11
125.644
 21
73.3337
 31
0.0
  0
LINE
  8
0
 62
     0
 10
106.594
 20
73.3337
 30
0.0
 11
122.195
 21
73.3337
 31
0.0
  0
LINE
  8
0
 62
     0
 10
122.195
 20
73.3337
 30
0.0
 11
122.195
 21
60.5331
 31
0.0
  0
LINE
  8
0
 62
     0
 10
122.195
 20
60.5331
 30
0.0
 11
106.594
 21
60.5331
 31
0.0
  0
LINE
  8
0
 62
     0
 10
106.594
 20
60.5331
 30
0.0
 11
106.594
 21
73.3337
 31
0.0
  0
LINE
  8
0
 62
     0
 10
87.5439
 20
73.3337
 30
0.0
 11
103.145
 21
73.3337
 31
0.0
  0
LINE
  8
0
 62
     0
 10
103.145
 20
73.3337
 30
0.0
 11
103.145
 21
60.5331
 31
0.0
  0
LINE
  8
0
 62
     0
 10
103.145
 20
60.5331
 30
0.0
 11
87.5439
 21
60.5331
 31
0.0
  0
LINE
  8
0
 62
     0
 10
87.5439
 20
60.5331
 30
0.0
 11
87.5439
 21
73.3337
 31
0.0
  0
LINE
  8
0
 62
     0
 10
68.4939
 20
73.3337
 30
0.0
 11
84.0948
 21
73.3337
 31
0.0
  0
LINE
  8
0
 62
     0
 10
84.0948
 20
73.3337
 30
0.0
 11
84.0948
 21
60.5331
 31
0.0
  0
LINE
  8
0
 62
     0
 10
84.0948
 20
60.5331
 30
0.0
 11
68.4939
 21
60.5331
 31
0.0
  0
LINE
  8
0
 62
     0
 10
68.4939
 20
60.5331
 30
0.0
 11
68.4939
 21
73.3337
 31
0.0
  0
LINE
  8
0
 62
     0
 10
49.4439
 20
73.3337
 30
0.0
 11
65.0448
 21
73.3337
 31
0.0
  0
LINE
  8
0
 62
     0
 10
65.0448
 20
73.3337
 30
0.0
 11
65.0448
 21
60.5331
 31
0.0
  0
LINE
  8
0
 62
     0
 10
65.0448
 20
60.5331
 30
0.0
 11
49.4439
 21
60.5331
 31
0.0
  0
LINE
  8
0
 62
     0
 10
49.4439
 20
60.5331
 30
0.0
 11
49.4439
 21
73.3337
 31
0.0
  0
LINE
  8
0
 62
     0
 10
30.394
 20
73.3337
 30
0.0
 11
45.9948
 21
73.3337
 31
0.0
  0
LINE
  8
0
 62
     0
 10
45.9948
 20
73.3337
 30
0.0
 11
45.9948
 21
60.5331
 31
0.0
  0
LINE
  8
0
 62
     0
 10
45.9948
 20
60.5331
 30
0.0
 11
30.394
 21
60.5331
 31
0.0
  0
LINE
  8
0
 62
     0
 10
30.394
 20
60.5331
 30
0.0
 11
30.394
 21
73.3337
 31
0.0
  0
LINE
  8
0
 62
     0
 10
6.58153
 20
73.3337
 30
0.0
 11
22.1809
 21
73.3337
 31
0.0
  0
LINE
  8
0
 62
     0
 10
22.1809
 20
73.3337
 30
0.0
 11
22.1809
 21
60.5331
 31
0.0
  0
LINE
  8
0
 62
     0
 10
22.1809
 20
60.5331
 30
0.0
 11
6.58153
 21
60.5331
 31
0.0
  0
LINE
  8
0
 62
     0
 10
6.58153
 20
60.5331
 30
0.0
 11
6.58153
 21
73.3337
 31
0.0
  0
LINE
  8
0
 62
     0
 10
279.557
 20
82.1104
 30
0.0
 11
282.224
 21
82.1104
 31
0.0
  0
LINE
  8
0
 62
     0
 10
282.224
 20
82.1104
 30
0.0
 11
282.224
 21
76.9027
 31
0.0
  0
LINE
  8
0
 62
     0
 10
282.224
 20
76.9027
 30
0.0
 11
279.557
 21
76.9027
 31
0.0
  0
LINE
  8
0
 62
     0
 10
279.557
 20
76.9027
 30
0.0
 11
279.557
 21
82.1104
 31
0.0
  0
LINE
  8
0
 62
     0
 10
251.365
 20
82.1104
 30
0.0
 11
254.032
 21
82.1104
 31
0.0
  0
LINE
  8
0
 62
     0
 10
254.032
 20
82.1104
 30
0.0
 11
254.032
 21
76.9027
 31
0.0
  0
LINE
  8
0
 62
     0
 10
254.032
 20
76.9027
 30
0.0
 11
251.365
 21
76.9027
 31
0.0
  0
LINE
  8
0
 62
     0
 10
251.365
 20
76.9027
 30
0.0
 11
251.365
 21
82.1104
 31
0.0
  0
LINE
  8
0
 62
     0
 10
258.994
 20
92.3837
 30
0.0
 11
274.595
 21
92.3837
 31
0.0
  0
LINE
  8
0
 62
     0
 10
274.595
 20
92.3837
 30
0.0
 11
274.595
 21
79.5831
 31
0.0
  0
LINE
  8
0
 62
     0
 10
274.595
 20
79.5831
 30
0.0
 11
258.994
 21
79.5831
 31
0.0
  0
LINE
  8
0
 62
     0
 10
258.994
 20
79.5831
 30
0.0
 11
258.994
 21
92.3837
 31
0.0
  0
LINE
  8
0
 62
     0
 10
230.419
 20
92.3837
 30
0.0
 11
246.02
 21
92.3837
 31
0.0
  0
LINE
  8
0
 62
     0
 10
246.02
 20
92.3837
 30
0.0
 11
246.02
 21
79.5831
 31
0.0
  0
LINE
  8
0
 62
     0
 10
246.02
 20
79.5831
 30
0.0
 11
230.419
 21
79.5831
 31
0.0
  0
LINE
  8
0
 62
     0
 10
230.419
 20
79.5831
 30
0.0
 11
230.419
 21
92.3837
 31
0.0
  0
LINE
  8
0
 62
     0
 10
211.369
 20
92.3837
 30
0.0
 11
226.97
 21
92.3837
 31
0.0
  0
LINE
  8
0
 62
     0
 10
226.97
 20
92.3837
 30
0.0
 11
226.97
 21
79.5831
 31
0.0
  0
LINE
  8
0
 62
     0
 10
226.97
 20
79.5831
 30
0.0
 11
211.369
 21
79.5831
 31
0.0
  0
LINE
  8
0
 62
     0
 10
211.369
 20
79.5831
 30
0.0
 11
211.369
 21
92.3837
 31
0.0
  0
LINE
  8
0
 62
     0
 10
192.319
 20
92.3837
 30
0.0
 11
207.92
 21
92.3837
 31
0.0
  0
LINE
  8
0
 62
     0
 10
207.92
 20
92.3837
 30
0.0
 11
207.92
 21
79.5831
 31
0.0
  0
LINE
  8
0
 62
     0
 10
207.92
 20
79.5831
 30
0.0
 11
192.319
 21
79.5831
 31
0.0
  0
LINE
  8
0
 62
     0
 10
192.319
 20
79.5831
 30
0.0
 11
192.319
 21
92.3837
 31
0.0
  0
LINE
  8
0
 62
     0
 10
173.269
 20
92.3837
 30
0.0
 11
188.87
 21
92.3837
 31
0.0
  0
LINE
  8
0
 62
     0
 10
188.87
 20
92.3837
 30
0.0
 11
188.87
 21
79.5831
 31
0.0
  0
LINE
  8
0
 62
     0
 10
188.87
 20
79.5831
 30
0.0
 11
173.269
 21
79.5831
 31
0.0
  0
LINE
  8
0
 62
     0
 10
173.269
 20
79.5831
 30
0.0
 11
173.269
 21
92.3837
 31
0.0
  0
LINE
  8
0
 62
     0
 10
154.219
 20
92.3837
 30
0.0
 11
169.82
 21
92.3837
 31
0.0
  0
LINE
  8
0
 62
     0
 10
169.82
 20
92.3837
 30
0.0
 11
169.82
 21
79.5831
 31
0.0
  0
LINE
  8
0
 62
     0
 10
169.82
 20
79.5831
 30
0.0
 11
154.219
 21
79.5831
 31
0.0
  0
LINE
  8
0
 62
     0
 10
154.219
 20
79.5831
 30
0.0
 11
154.219
 21
92.3837
 31
0.0
  0
LINE
  8
0
 62
     0
 10
135.169
 20
92.3837
 30
0.0
 11
150.77
 21
92.3837
 31
0.0
  0
LINE
  8
0
 62
     0
 10
150.77
 20
92.3837
 30
0.0
 11
150.77
 21
79.5831
 31
0.0
  0
LINE
  8
0
 62
     0
 10
150.77
 20
79.5831
 30
0.0
 11
135.169
 21
79.5831
 31
0.0
  0
LINE
  8
0
 62
     0
 10
135.169
 20
79.5831
 30
0.0
 11
135.169
 21
92.3837
 31
0.0
  0
LINE
  8
0
 62
     0
 10
116.119
 20
92.3837
 30
0.0
 11
131.72
 21
92.3837
 31
0.0
  0
LINE
  8
0
 62
     0
 10
131.72
 20
92.3837
 30
0.0
 11
131.72
 21
79.5831
 31
0.0
  0
LINE
  8
0
 62
     0
 10
131.72
 20
79.5831
 30
0.0
 11
116.119
 21
79.5831
 31
0.0
  0
LINE
  8
0
 62
     0
 10
116.119
 20
79.5831
 30
0.0
 11
116.119
 21
92.3837
 31
0.0
  0
LINE
  8
0
 62
     0
 10
97.0689
 20
92.3837
 30
0.0
 11
112.668
 21
92.3837
 31
0.0
  0
LINE
  8
0
 62
     0
 10
112.668
 20
92.3837
 30
0.0
 11
112.668
 21
79.5831
 31
0.0
  0
LINE
  8
0
 62
     0
 10
112.668
 20
79.5831
 30
0.0
 11
97.0689
 21
79.5831
 31
0.0
  0
LINE
  8
0
 62
     0
 10
97.0689
 20
79.5831
 30
0.0
 11
97.0689
 21
92.3837
 31
0.0
  0
LINE
  8
0
 62
     0
 10
78.0189
 20
92.3837
 30
0.0
 11
93.6184
 21
92.3837
 31
0.0
  0
LINE
  8
0
 62
     0
 10
93.6184
 20
92.3837
 30
0.0
 11
93.6184
 21
79.5831
 31
0.0
  0
LINE
  8
0
 62
     0
 10
93.6184
 20
79.5831
 30
0.0
 11
78.0189
 21
79.5831
 31
0.0
  0
LINE
  8
0
 62
     0
 10
78.0189
 20
79.5831
 30
0.0
 11
78.0189
 21
92.3837
 31
0.0
  0
LINE
  8
0
 62
     0
 10
58.9689
 20
92.3837
 30
0.0
 11
74.5698
 21
92.3837
 31
0.0
  0
LINE
  8
0
 62
     0
 10
74.5698
 20
92.3837
 30
0.0
 11
74.5698
 21
79.5831
 31
0.0
  0
LINE
  8
0
 62
     0
 10
74.5698
 20
79.5831
 30
0.0
 11
58.9689
 21
79.5831
 31
0.0
  0
LINE
  8
0
 62
     0
 10
58.9689
 20
79.5831
 30
0.0
 11
58.9689
 21
92.3837
 31
0.0
  0
LINE
  8
0
 62
     0
 10
39.9189
 20
92.3837
 30
0.0
 11
55.5198
 21
92.3837
 31
0.0
  0
LINE
  8
0
 62
     0
 10
55.5198
 20
92.3837
 30
0.0
 11
55.5198
 21
79.5831
 31
0.0
  0
LINE
  8
0
 62
     0
 10
55.5198
 20
79.5831
 30
0.0
 11
39.9189
 21
79.5831
 31
0.0
  0
LINE
  8
0
 62
     0
 10
39.9189
 20
79.5831
 30
0.0
 11
39.9189
 21
92.3837
 31
0.0
  0
LINE
  8
0
 62
     0
 10
20.869
 20
92.3837
 30
0.0
 11
36.4698
 21
92.3837
 31
0.0
  0
LINE
  8
0
 62
     0
 10
36.4698
 20
92.3837
 30
0.0
 11
36.4698
 21
79.5831
 31
0.0
  0
LINE
  8
0
 62
     0
 10
36.4698
 20
79.5831
 30
0.0
 11
20.869
 21
79.5831
 31
0.0
  0
LINE
  8
0
 62
     0
 10
20.869
 20
79.5831
 30
0.0
 11
20.869
 21
92.3837
 31
0.0
  0
LINE
  8
0
 62
     0
 10
1.81901
 20
92.3837
 30
0.0
 11
17.4198
 21
92.3837
 31
0.0
  0
LINE
  8
0
 62
     0
 10
17.4198
 20
92.3837
 30
0.0
 11
17.4198
 21
79.5831
 31
0.0
  0
LINE
  8
0
 62
     0
 10
17.4198
 20
79.5831
 30
0.0
 11
1.81901
 21
79.5831
 31
0.0
  0
LINE
  8
0
 62
     0
 10
1.81901
 20
79.5831
 30
0.0
 11
1.81901
 21
92.3837
 31
0.0
  0
ENDSEC
  0
EOF
