  0
SECTION
  2
HEADER
  9
$ACADVER
  1
AC1009
  9
$EXTMIN
 10
0.0
 20
0.0
 30
0.0
  9
$EXTMAX
 10
1000.0
 20
1000.0
 30
0.0
  9
$FILLMODE
 70
 0
  9
$SPLFRAME
 70
 1
  0
ENDSEC
  0
SECTION
  2
TABLES
  0
TABLE
  2
LAYER
 70
1
  0
LAYER
  2
0
 70
     0
 62
     7
  6
CONTINUOUS
  0
ENDTAB
  0
ENDSEC
  0
SECTION
  2
ENTITIES
  0
LINE
  8
0
 62
     0
 10
284.47
 20
95.1548
 30
0.0
 11
284.548
 21
95.1523
 31
0.0
  0
LINE
  8
0
 62
     0
 10
284.548
 20
95.1523
 30
0.0
 11
284.627
 21
95.1424
 31
0.0
  0
LINE
  8
0
 62
     0
 10
284.627
 20
95.1424
 30
0.0
 11
284.704
 21
95.1272
 31
0.0
  0
LINE
  8
0
 62
     0
 10
284.704
 20
95.1272
 30
0.0
 11
284.78
 21
95.1068
 31
0.0
  0
LINE
  8
0
 62
     0
 10
284.78
 20
95.1068
 30
0.0
 11
284.853
 21
95.0793
 31
0.0
  0
LINE
  8
0
 62
     0
 10
284.853
 20
95.0793
 30
0.0
 11
284.923
 21
95.0461
 31
0.0
  0
LINE
  8
0
 62
     0
 10
284.923
 20
95.0461
 30
0.0
 11
284.993
 21
95.0076
 31
0.0
  0
LINE
  8
0
 62
     0
 10
284.993
 20
95.0076
 30
0.0
 11
285.057
 21
94.9646
 31
0.0
  0
LINE
  8
0
 62
     0
 10
285.057
 20
94.9646
 30
0.0
 11
285.119
 21
94.9152
 31
0.0
  0
LINE
  8
0
 62
     0
 10
285.119
 20
94.9152
 30
0.0
 11
285.178
 21
94.8627
 31
0.0
  0
LINE
  8
0
 62
     0
 10
285.178
 20
94.8627
 30
0.0
 11
285.232
 21
94.8048
 31
0.0
  0
LINE
  8
0
 62
     0
 10
285.232
 20
94.8048
 30
0.0
 11
285.28
 21
94.7431
 31
0.0
  0
LINE
  8
0
 62
     0
 10
285.28
 20
94.7431
 30
0.0
 11
285.323
 21
94.6781
 31
0.0
  0
LINE
  8
0
 62
     0
 10
285.323
 20
94.6781
 30
0.0
 11
285.361
 21
94.6079
 31
0.0
  0
LINE
  8
0
 62
     0
 10
285.361
 20
94.6079
 30
0.0
 11
285.393
 21
94.5374
 31
0.0
  0
LINE
  8
0
 62
     0
 10
285.393
 20
94.5374
 30
0.0
 11
285.422
 21
94.4644
 31
0.0
  0
LINE
  8
0
 62
     0
 10
285.422
 20
94.4644
 30
0.0
 11
285.443
 21
94.3889
 31
0.0
  0
LINE
  8
0
 62
     0
 10
285.443
 20
94.3889
 30
0.0
 11
285.458
 21
94.3116
 31
0.0
  0
LINE
  8
0
 62
     0
 10
285.458
 20
94.3116
 30
0.0
 11
285.466
 21
94.2329
 31
0.0
  0
LINE
  8
0
 62
     0
 10
285.466
 20
94.2329
 30
0.0
 11
285.47
 21
94.1546
 31
0.0
  0
LINE
  8
0
 62
     0
 10
285.47
 20
94.1546
 30
0.0
 11
285.47
 21
40.991
 31
0.0
  0
LINE
  8
0
 62
     0
 10
285.47
 20
40.991
 30
0.0
 11
281.97
 21
40.991
 31
0.0
  0
LINE
  8
0
 62
     0
 10
281.97
 20
40.991
 30
0.0
 11
281.197
 21
40.87
 31
0.0
  0
LINE
  8
0
 62
     0
 10
281.197
 20
40.87
 30
0.0
 11
280.501
 21
40.5144
 31
0.0
  0
LINE
  8
0
 62
     0
 10
280.501
 20
40.5144
 30
0.0
 11
279.947
 21
39.9616
 31
0.0
  0
LINE
  8
0
 62
     0
 10
279.947
 20
39.9616
 30
0.0
 11
279.593
 21
39.2645
 31
0.0
  0
LINE
  8
0
 62
     0
 10
279.593
 20
39.2645
 30
0.0
 11
279.47
 21
38.4926
 31
0.0
  0
LINE
  8
0
 62
     0
 10
279.47
 20
38.4926
 30
0.0
 11
279.593
 21
37.7183
 31
0.0
  0
LINE
  8
0
 62
     0
 10
279.593
 20
37.7183
 30
0.0
 11
279.947
 21
37.0223
 31
0.0
  0
LINE
  8
0
 62
     0
 10
279.947
 20
37.0223
 30
0.0
 11
280.501
 21
36.4684
 31
0.0
  0
LINE
  8
0
 62
     0
 10
280.501
 20
36.4684
 30
0.0
 11
281.197
 21
36.1128
 31
0.0
  0
LINE
  8
0
 62
     0
 10
281.197
 20
36.1128
 30
0.0
 11
281.97
 21
35.9914
 31
0.0
  0
LINE
  8
0
 62
     0
 10
281.97
 20
35.9914
 30
0.0
 11
285.47
 21
35.9914
 31
0.0
  0
LINE
  8
0
 62
     0
 10
285.47
 20
35.9914
 30
0.0
 11
285.47
 21
1.22783
 31
0.0
  0
LINE
  8
0
 62
     0
 10
285.47
 20
1.22783
 30
0.0
 11
285.466
 21
1.14928
 31
0.0
  0
LINE
  8
0
 62
     0
 10
285.466
 20
1.14928
 30
0.0
 11
285.458
 21
1.07211
 31
0.0
  0
LINE
  8
0
 62
     0
 10
285.458
 20
1.07211
 30
0.0
 11
285.443
 21
0.994943
 31
0.0
  0
LINE
  8
0
 62
     0
 10
285.443
 20
0.994943
 30
0.0
 11
285.422
 21
0.919152
 31
0.0
  0
LINE
  8
0
 62
     0
 10
285.422
 20
0.919152
 30
0.0
 11
285.393
 21
0.846116
 31
0.0
  0
LINE
  8
0
 62
     0
 10
285.393
 20
0.846116
 30
0.0
 11
285.361
 21
0.774457
 31
0.0
  0
LINE
  8
0
 62
     0
 10
285.361
 20
0.774457
 30
0.0
 11
285.323
 21
0.706935
 31
0.0
  0
LINE
  8
0
 62
     0
 10
285.323
 20
0.706935
 30
0.0
 11
285.28
 21
0.640789
 31
0.0
  0
LINE
  8
0
 62
     0
 10
285.28
 20
0.640789
 30
0.0
 11
285.232
 21
0.578778
 31
0.0
  0
LINE
  8
0
 62
     0
 10
285.232
 20
0.578778
 30
0.0
 11
285.178
 21
0.520898
 31
0.0
  0
LINE
  8
0
 62
     0
 10
285.178
 20
0.520898
 30
0.0
 11
285.119
 21
0.467155
 31
0.0
  0
LINE
  8
0
 62
     0
 10
285.119
 20
0.467155
 30
0.0
 11
285.057
 21
0.418924
 31
0.0
  0
LINE
  8
0
 62
     0
 10
285.057
 20
0.418924
 30
0.0
 11
284.993
 21
0.374826
 31
0.0
  0
LINE
  8
0
 62
     0
 10
284.993
 20
0.374826
 30
0.0
 11
284.923
 21
0.337619
 31
0.0
  0
LINE
  8
0
 62
     0
 10
284.923
 20
0.337619
 30
0.0
 11
284.853
 21
0.304546
 31
0.0
  0
LINE
  8
0
 62
     0
 10
284.853
 20
0.304546
 30
0.0
 11
284.78
 21
0.276986
 31
0.0
  0
LINE
  8
0
 62
     0
 10
284.78
 20
0.276986
 30
0.0
 11
284.704
 21
0.256315
 31
0.0
  0
LINE
  8
0
 62
     0
 10
284.704
 20
0.256315
 30
0.0
 11
284.627
 21
0.241157
 31
0.0
  0
LINE
  8
0
 62
     0
 10
284.627
 20
0.241157
 30
0.0
 11
284.548
 21
0.232888
 31
0.0
  0
LINE
  8
0
 62
     0
 10
284.548
 20
0.232888
 30
0.0
 11
284.47
 21
0.227376
 31
0.0
  0
LINE
  8
0
 62
     0
 10
284.47
 20
0.227376
 30
0.0
 11
1.09554
 21
0.227376
 31
0.0
  0
LINE
  8
0
 62
     0
 10
1.09554
 20
0.227376
 30
0.0
 11
1.01699
 21
0.232888
 31
0.0
  0
LINE
  8
0
 62
     0
 10
1.01699
 20
0.232888
 30
0.0
 11
0.938445
 21
0.241157
 31
0.0
  0
LINE
  8
0
 62
     0
 10
0.938445
 20
0.241157
 30
0.0
 11
0.861275
 21
0.256315
 31
0.0
  0
LINE
  8
0
 62
     0
 10
0.861275
 20
0.256315
 30
0.0
 11
0.785481
 21
0.276986
 31
0.0
  0
LINE
  8
0
 62
     0
 10
0.785481
 20
0.276986
 30
0.0
 11
0.712445
 21
0.304546
 31
0.0
  0
LINE
  8
0
 62
     0
 10
0.712445
 20
0.304546
 30
0.0
 11
0.642165
 21
0.337619
 31
0.0
  0
LINE
  8
0
 62
     0
 10
0.642165
 20
0.337619
 30
0.0
 11
0.571885
 21
0.374826
 31
0.0
  0
LINE
  8
0
 62
     0
 10
0.571885
 20
0.374826
 30
0.0
 11
0.507118
 21
0.418924
 31
0.0
  0
LINE
  8
0
 62
     0
 10
0.507118
 20
0.418924
 30
0.0
 11
0.445107
 21
0.467155
 31
0.0
  0
LINE
  8
0
 62
     0
 10
0.445107
 20
0.467155
 30
0.0
 11
0.38723
 21
0.520898
 31
0.0
  0
LINE
  8
0
 62
     0
 10
0.38723
 20
0.520898
 30
0.0
 11
0.334863
 21
0.578778
 31
0.0
  0
LINE
  8
0
 62
     0
 10
0.334863
 20
0.578778
 30
0.0
 11
0.285254
 21
0.640789
 31
0.0
  0
LINE
  8
0
 62
     0
 10
0.285254
 20
0.640789
 30
0.0
 11
0.242535
 21
0.706935
 31
0.0
  0
LINE
  8
0
 62
     0
 10
0.242535
 20
0.706935
 30
0.0
 11
0.20395
 21
0.774457
 31
0.0
  0
LINE
  8
0
 62
     0
 10
0.20395
 20
0.774457
 30
0.0
 11
0.170877
 21
0.846116
 31
0.0
  0
LINE
  8
0
 62
     0
 10
0.170877
 20
0.846116
 30
0.0
 11
0.143316
 21
0.919152
 31
0.0
  0
LINE
  8
0
 62
     0
 10
0.143316
 20
0.919152
 30
0.0
 11
0.122645
 21
0.994943
 31
0.0
  0
LINE
  8
0
 62
     0
 10
0.122645
 20
0.994943
 30
0.0
 11
0.107487
 21
1.07211
 31
0.0
  0
LINE
  8
0
 62
     0
 10
0.107487
 20
1.07211
 30
0.0
 11
0.0978408
 21
1.14928
 31
0.0
  0
LINE
  8
0
 62
     0
 10
0.0978408
 20
1.14928
 30
0.0
 11
0.0950846
 21
1.22921
 31
0.0
  0
LINE
  8
0
 62
     0
 10
0.0950846
 20
1.22921
 30
0.0
 11
0.0950846
 21
35.9914
 31
0.0
  0
LINE
  8
0
 62
     0
 10
0.0950846
 20
35.9914
 30
0.0
 11
3.5953
 21
35.9914
 31
0.0
  0
LINE
  8
0
 62
     0
 10
3.5953
 20
35.9914
 30
0.0
 11
4.36838
 21
36.1128
 31
0.0
  0
LINE
  8
0
 62
     0
 10
4.36838
 20
36.1128
 30
0.0
 11
5.0643
 21
36.4684
 31
0.0
  0
LINE
  8
0
 62
     0
 10
5.0643
 20
36.4684
 30
0.0
 11
5.61689
 21
37.0223
 31
0.0
  0
LINE
  8
0
 62
     0
 10
5.61689
 20
37.0223
 30
0.0
 11
5.97242
 21
37.7183
 31
0.0
  0
LINE
  8
0
 62
     0
 10
5.97242
 20
37.7183
 30
0.0
 11
6.09505
 21
38.4912
 31
0.0
  0
LINE
  8
0
 62
     0
 10
6.09505
 20
38.4912
 30
0.0
 11
5.97242
 21
39.2645
 31
0.0
  0
LINE
  8
0
 62
     0
 10
5.97242
 20
39.2645
 30
0.0
 11
5.61689
 21
39.9616
 31
0.0
  0
LINE
  8
0
 62
     0
 10
5.61689
 20
39.9616
 30
0.0
 11
5.0643
 21
40.5144
 31
0.0
  0
LINE
  8
0
 62
     0
 10
5.0643
 20
40.5144
 30
0.0
 11
4.36838
 21
40.87
 31
0.0
  0
LINE
  8
0
 62
     0
 10
4.36838
 20
40.87
 30
0.0
 11
3.59668
 21
40.991
 31
0.0
  0
LINE
  8
0
 62
     0
 10
3.59668
 20
40.991
 30
0.0
 11
0.0950846
 21
40.991
 31
0.0
  0
LINE
  8
0
 62
     0
 10
0.0950846
 20
40.991
 30
0.0
 11
0.0950846
 21
94.1546
 31
0.0
  0
LINE
  8
0
 62
     0
 10
0.0950846
 20
94.1546
 30
0.0
 11
0.0978408
 21
94.2329
 31
0.0
  0
LINE
  8
0
 62
     0
 10
0.0978408
 20
94.2329
 30
0.0
 11
0.107487
 21
94.3116
 31
0.0
  0
LINE
  8
0
 62
     0
 10
0.107487
 20
94.3116
 30
0.0
 11
0.122645
 21
94.3889
 31
0.0
  0
LINE
  8
0
 62
     0
 10
0.122645
 20
94.3889
 30
0.0
 11
0.143316
 21
94.4644
 31
0.0
  0
LINE
  8
0
 62
     0
 10
0.143316
 20
94.4644
 30
0.0
 11
0.170877
 21
94.5374
 31
0.0
  0
LINE
  8
0
 62
     0
 10
0.170877
 20
94.5374
 30
0.0
 11
0.20395
 21
94.6079
 31
0.0
  0
LINE
  8
0
 62
     0
 10
0.20395
 20
94.6079
 30
0.0
 11
0.242535
 21
94.6781
 31
0.0
  0
LINE
  8
0
 62
     0
 10
0.242535
 20
94.6781
 30
0.0
 11
0.285254
 21
94.7431
 31
0.0
  0
LINE
  8
0
 62
     0
 10
0.285254
 20
94.7431
 30
0.0
 11
0.334863
 21
94.8048
 31
0.0
  0
LINE
  8
0
 62
     0
 10
0.334863
 20
94.8048
 30
0.0
 11
0.38723
 21
94.8627
 31
0.0
  0
LINE
  8
0
 62
     0
 10
0.38723
 20
94.8627
 30
0.0
 11
0.445107
 21
94.9152
 31
0.0
  0
LINE
  8
0
 62
     0
 10
0.445107
 20
94.9152
 30
0.0
 11
0.507118
 21
94.9646
 31
0.0
  0
LINE
  8
0
 62
     0
 10
0.507118
 20
94.9646
 30
0.0
 11
0.571885
 21
95.0076
 31
0.0
  0
LINE
  8
0
 62
     0
 10
0.571885
 20
95.0076
 30
0.0
 11
0.642165
 21
95.0461
 31
0.0
  0
LINE
  8
0
 62
     0
 10
0.642165
 20
95.0461
 30
0.0
 11
0.712445
 21
95.0793
 31
0.0
  0
LINE
  8
0
 62
     0
 10
0.712445
 20
95.0793
 30
0.0
 11
0.785481
 21
95.1068
 31
0.0
  0
LINE
  8
0
 62
     0
 10
0.785481
 20
95.1068
 30
0.0
 11
0.861275
 21
95.1272
 31
0.0
  0
LINE
  8
0
 62
     0
 10
0.861275
 20
95.1272
 30
0.0
 11
0.938445
 21
95.1424
 31
0.0
  0
LINE
  8
0
 62
     0
 10
0.938445
 20
95.1424
 30
0.0
 11
1.01699
 21
95.1523
 31
0.0
  0
LINE
  8
0
 62
     0
 10
1.01699
 20
95.1523
 30
0.0
 11
1.09554
 21
95.1548
 31
0.0
  0
LINE
  8
0
 62
     0
 10
1.09554
 20
95.1548
 30
0.0
 11
284.47
 21
95.1548
 31
0.0
  0
LINE
  8
0
 62
     0
 10
123.075
 20
15.9921
 30
0.0
 11
123.075
 21
11.8925
 31
0.0
  0
LINE
  8
0
 62
     0
 10
123.075
 20
11.8925
 30
0.0
 11
84.2518
 21
11.8925
 31
0.0
  0
LINE
  8
0
 62
     0
 10
84.2518
 20
11.8925
 30
0.0
 11
84.2518
 21
15.1226
 31
0.0
  0
LINE
  8
0
 62
     0
 10
84.2518
 20
15.1226
 30
0.0
 11
77.501
 21
15.1226
 31
0.0
  0
LINE
  8
0
 62
     0
 10
77.501
 20
15.1226
 30
0.0
 11
77.501
 21
11.8925
 31
0.0
  0
LINE
  8
0
 62
     0
 10
77.501
 20
11.8925
 30
0.0
 11
76.677
 21
11.8925
 31
0.0
  0
LINE
  8
0
 62
     0
 10
76.677
 20
11.8925
 30
0.0
 11
76.677
 21
9.09228
 31
0.0
  0
LINE
  8
0
 62
     0
 10
76.677
 20
9.09228
 30
0.0
 11
77.501
 21
9.09228
 31
0.0
  0
LINE
  8
0
 62
     0
 10
77.501
 20
9.09228
 30
0.0
 11
77.501
 21
2.82222
 31
0.0
  0
LINE
  8
0
 62
     0
 10
77.501
 20
2.82222
 30
0.0
 11
79.2261
 21
2.82222
 31
0.0
  0
LINE
  8
0
 62
     0
 10
79.2261
 20
2.82222
 30
0.0
 11
79.2261
 21
1.62195
 31
0.0
  0
LINE
  8
0
 62
     0
 10
79.2261
 20
1.62195
 30
0.0
 11
82.5267
 21
1.62195
 31
0.0
  0
LINE
  8
0
 62
     0
 10
82.5267
 20
1.62195
 30
0.0
 11
82.5267
 21
2.82222
 31
0.0
  0
LINE
  8
0
 62
     0
 10
82.5267
 20
2.82222
 30
0.0
 11
84.2518
 21
2.82222
 31
0.0
  0
LINE
  8
0
 62
     0
 10
84.2518
 20
2.82222
 30
0.0
 11
84.2518
 21
7.29259
 31
0.0
  0
LINE
  8
0
 62
     0
 10
84.2518
 20
7.29259
 30
0.0
 11
123.075
 21
7.29259
 31
0.0
  0
LINE
  8
0
 62
     0
 10
123.075
 20
7.29259
 30
0.0
 11
123.075
 21
3.19154
 31
0.0
  0
LINE
  8
0
 62
     0
 10
123.075
 20
3.19154
 30
0.0
 11
138.676
 21
3.19154
 31
0.0
  0
LINE
  8
0
 62
     0
 10
138.676
 20
3.19154
 30
0.0
 11
138.676
 21
7.29259
 31
0.0
  0
LINE
  8
0
 62
     0
 10
138.676
 20
7.29259
 30
0.0
 11
177.501
 21
7.29259
 31
0.0
  0
LINE
  8
0
 62
     0
 10
177.501
 20
7.29259
 30
0.0
 11
177.501
 21
2.82222
 31
0.0
  0
LINE
  8
0
 62
     0
 10
177.501
 20
2.82222
 30
0.0
 11
179.226
 21
2.82222
 31
0.0
  0
LINE
  8
0
 62
     0
 10
179.226
 20
2.82222
 30
0.0
 11
179.226
 21
1.62195
 31
0.0
  0
LINE
  8
0
 62
     0
 10
179.226
 20
1.62195
 30
0.0
 11
182.527
 21
1.62195
 31
0.0
  0
LINE
  8
0
 62
     0
 10
182.527
 20
1.62195
 30
0.0
 11
182.527
 21
2.82222
 31
0.0
  0
LINE
  8
0
 62
     0
 10
182.527
 20
2.82222
 30
0.0
 11
184.252
 21
2.82222
 31
0.0
  0
LINE
  8
0
 62
     0
 10
184.252
 20
2.82222
 30
0.0
 11
184.252
 21
9.09228
 31
0.0
  0
LINE
  8
0
 62
     0
 10
184.252
 20
9.09228
 30
0.0
 11
185.076
 21
9.09228
 31
0.0
  0
LINE
  8
0
 62
     0
 10
185.076
 20
9.09228
 30
0.0
 11
185.076
 21
11.8925
 31
0.0
  0
LINE
  8
0
 62
     0
 10
185.076
 20
11.8925
 30
0.0
 11
184.252
 21
11.8925
 31
0.0
  0
LINE
  8
0
 62
     0
 10
184.252
 20
11.8925
 30
0.0
 11
184.252
 21
15.1226
 31
0.0
  0
LINE
  8
0
 62
     0
 10
184.252
 20
15.1226
 30
0.0
 11
177.501
 21
15.1226
 31
0.0
  0
LINE
  8
0
 62
     0
 10
177.501
 20
15.1226
 30
0.0
 11
177.501
 21
11.8925
 31
0.0
  0
LINE
  8
0
 62
     0
 10
177.501
 20
11.8925
 30
0.0
 11
138.676
 21
11.8925
 31
0.0
  0
LINE
  8
0
 62
     0
 10
138.676
 20
11.8925
 30
0.0
 11
138.676
 21
15.9921
 31
0.0
  0
LINE
  8
0
 62
     0
 10
138.676
 20
15.9921
 30
0.0
 11
123.075
 21
15.9921
 31
0.0
  0
LINE
  8
0
 62
     0
 10
265.95
 20
15.9921
 30
0.0
 11
281.551
 21
15.9921
 31
0.0
  0
LINE
  8
0
 62
     0
 10
281.551
 20
15.9921
 30
0.0
 11
281.551
 21
3.19154
 31
0.0
  0
LINE
  8
0
 62
     0
 10
281.551
 20
3.19154
 30
0.0
 11
265.95
 21
3.19154
 31
0.0
  0
LINE
  8
0
 62
     0
 10
265.95
 20
3.19154
 30
0.0
 11
265.95
 21
15.9921
 31
0.0
  0
LINE
  8
0
 62
     0
 10
242.138
 20
15.9921
 30
0.0
 11
257.737
 21
15.9921
 31
0.0
  0
LINE
  8
0
 62
     0
 10
257.737
 20
15.9921
 30
0.0
 11
257.737
 21
3.19154
 31
0.0
  0
LINE
  8
0
 62
     0
 10
257.737
 20
3.19154
 30
0.0
 11
242.138
 21
3.19154
 31
0.0
  0
LINE
  8
0
 62
     0
 10
242.138
 20
3.19154
 30
0.0
 11
242.138
 21
15.9921
 31
0.0
  0
LINE
  8
0
 62
     0
 10
218.325
 20
15.9921
 30
0.0
 11
233.926
 21
15.9921
 31
0.0
  0
LINE
  8
0
 62
     0
 10
233.926
 20
15.9921
 30
0.0
 11
233.926
 21
3.19154
 31
0.0
  0
LINE
  8
0
 62
     0
 10
233.926
 20
3.19154
 30
0.0
 11
218.325
 21
3.19154
 31
0.0
  0
LINE
  8
0
 62
     0
 10
218.325
 20
3.19154
 30
0.0
 11
218.325
 21
15.9921
 31
0.0
  0
LINE
  8
0
 62
     0
 10
194.513
 20
15.9921
 30
0.0
 11
210.114
 21
15.9921
 31
0.0
  0
LINE
  8
0
 62
     0
 10
210.114
 20
15.9921
 30
0.0
 11
210.114
 21
3.19154
 31
0.0
  0
LINE
  8
0
 62
     0
 10
210.114
 20
3.19154
 30
0.0
 11
194.513
 21
3.19154
 31
0.0
  0
LINE
  8
0
 62
     0
 10
194.513
 20
3.19154
 30
0.0
 11
194.513
 21
15.9921
 31
0.0
  0
LINE
  8
0
 62
     0
 10
51.6378
 20
15.9921
 30
0.0
 11
67.2387
 21
15.9921
 31
0.0
  0
LINE
  8
0
 62
     0
 10
67.2387
 20
15.9921
 30
0.0
 11
67.2387
 21
3.19154
 31
0.0
  0
LINE
  8
0
 62
     0
 10
67.2387
 20
3.19154
 30
0.0
 11
51.6378
 21
3.19154
 31
0.0
  0
LINE
  8
0
 62
     0
 10
51.6378
 20
3.19154
 30
0.0
 11
51.6378
 21
15.9921
 31
0.0
  0
LINE
  8
0
 62
     0
 10
27.8253
 20
15.9921
 30
0.0
 11
43.4262
 21
15.9921
 31
0.0
  0
LINE
  8
0
 62
     0
 10
43.4262
 20
15.9921
 30
0.0
 11
43.4262
 21
3.19154
 31
0.0
  0
LINE
  8
0
 62
     0
 10
43.4262
 20
3.19154
 30
0.0
 11
27.8253
 21
3.19154
 31
0.0
  0
LINE
  8
0
 62
     0
 10
27.8253
 20
3.19154
 30
0.0
 11
27.8253
 21
15.9921
 31
0.0
  0
LINE
  8
0
 62
     0
 10
4.01285
 20
15.9921
 30
0.0
 11
19.6136
 21
15.9921
 31
0.0
  0
LINE
  8
0
 62
     0
 10
19.6136
 20
15.9921
 30
0.0
 11
19.6136
 21
3.19154
 31
0.0
  0
LINE
  8
0
 62
     0
 10
19.6136
 20
3.19154
 30
0.0
 11
4.01285
 21
3.19154
 31
0.0
  0
LINE
  8
0
 62
     0
 10
4.01285
 20
3.19154
 30
0.0
 11
4.01285
 21
15.9921
 31
0.0
  0
LINE
  8
0
 62
     0
 10
190.009
 20
12.1695
 30
0.0
 11
189.312
 21
11.8139
 31
0.0
  0
LINE
  8
0
 62
     0
 10
189.312
 20
11.8139
 30
0.0
 11
188.759
 21
11.2613
 31
0.0
  0
LINE
  8
0
 62
     0
 10
188.759
 20
11.2613
 30
0.0
 11
188.406
 21
10.564
 31
0.0
  0
LINE
  8
0
 62
     0
 10
188.406
 20
10.564
 30
0.0
 11
188.283
 21
9.79096
 31
0.0
  0
LINE
  8
0
 62
     0
 10
188.283
 20
9.79096
 30
0.0
 11
188.406
 21
9.01788
 31
0.0
  0
LINE
  8
0
 62
     0
 10
188.406
 20
9.01788
 30
0.0
 11
188.759
 21
8.32196
 31
0.0
  0
LINE
  8
0
 62
     0
 10
188.759
 20
8.32196
 30
0.0
 11
189.312
 21
7.76799
 31
0.0
  0
LINE
  8
0
 62
     0
 10
189.312
 20
7.76799
 30
0.0
 11
190.009
 21
7.41384
 31
0.0
  0
LINE
  8
0
 62
     0
 10
190.009
 20
7.41384
 30
0.0
 11
190.783
 21
7.29121
 31
0.0
  0
LINE
  8
0
 62
     0
 10
190.783
 20
7.29121
 30
0.0
 11
191.556
 21
7.41384
 31
0.0
  0
LINE
  8
0
 62
     0
 10
191.556
 20
7.41384
 30
0.0
 11
192.253
 21
7.76799
 31
0.0
  0
LINE
  8
0
 62
     0
 10
192.253
 20
7.76799
 30
0.0
 11
192.805
 21
8.32196
 31
0.0
  0
LINE
  8
0
 62
     0
 10
192.805
 20
8.32196
 30
0.0
 11
193.161
 21
9.01788
 31
0.0
  0
LINE
  8
0
 62
     0
 10
193.161
 20
9.01788
 30
0.0
 11
193.282
 21
9.79096
 31
0.0
  0
LINE
  8
0
 62
     0
 10
193.282
 20
9.79096
 30
0.0
 11
193.161
 21
10.564
 31
0.0
  0
LINE
  8
0
 62
     0
 10
193.161
 20
10.564
 30
0.0
 11
192.805
 21
11.2613
 31
0.0
  0
LINE
  8
0
 62
     0
 10
192.805
 20
11.2613
 30
0.0
 11
192.253
 21
11.8139
 31
0.0
  0
LINE
  8
0
 62
     0
 10
192.253
 20
11.8139
 30
0.0
 11
191.556
 21
12.1695
 31
0.0
  0
LINE
  8
0
 62
     0
 10
191.556
 20
12.1695
 30
0.0
 11
190.783
 21
12.2921
 31
0.0
  0
LINE
  8
0
 62
     0
 10
190.783
 20
12.2921
 30
0.0
 11
190.009
 21
12.1695
 31
0.0
  0
LINE
  8
0
 62
     0
 10
251.661
 20
35.0421
 30
0.0
 11
251.661
 21
30.9411
 31
0.0
  0
LINE
  8
0
 62
     0
 10
251.661
 20
30.9411
 30
0.0
 11
250.938
 21
30.9411
 31
0.0
  0
LINE
  8
0
 62
     0
 10
250.938
 20
30.9411
 30
0.0
 11
250.938
 21
34.1726
 31
0.0
  0
LINE
  8
0
 62
     0
 10
250.938
 20
34.1726
 30
0.0
 11
244.187
 21
34.1726
 31
0.0
  0
LINE
  8
0
 62
     0
 10
244.187
 20
34.1726
 30
0.0
 11
244.187
 21
30.9411
 31
0.0
  0
LINE
  8
0
 62
     0
 10
244.187
 20
30.9411
 30
0.0
 11
243.363
 21
30.9411
 31
0.0
  0
LINE
  8
0
 62
     0
 10
243.363
 20
30.9411
 30
0.0
 11
243.363
 21
28.1423
 31
0.0
  0
LINE
  8
0
 62
     0
 10
243.363
 20
28.1423
 30
0.0
 11
244.187
 21
28.1423
 31
0.0
  0
LINE
  8
0
 62
     0
 10
244.187
 20
28.1423
 30
0.0
 11
244.187
 21
21.8722
 31
0.0
  0
LINE
  8
0
 62
     0
 10
244.187
 20
21.8722
 30
0.0
 11
245.914
 21
21.8722
 31
0.0
  0
LINE
  8
0
 62
     0
 10
245.914
 20
21.8722
 30
0.0
 11
245.914
 21
20.672
 31
0.0
  0
LINE
  8
0
 62
     0
 10
245.914
 20
20.672
 30
0.0
 11
249.213
 21
20.672
 31
0.0
  0
LINE
  8
0
 62
     0
 10
249.213
 20
20.672
 30
0.0
 11
249.213
 21
21.8722
 31
0.0
  0
LINE
  8
0
 62
     0
 10
249.213
 20
21.8722
 30
0.0
 11
250.938
 21
21.8722
 31
0.0
  0
LINE
  8
0
 62
     0
 10
250.938
 20
21.8722
 30
0.0
 11
250.938
 21
26.3426
 31
0.0
  0
LINE
  8
0
 62
     0
 10
250.938
 20
26.3426
 30
0.0
 11
251.661
 21
26.3426
 31
0.0
  0
LINE
  8
0
 62
     0
 10
251.661
 20
26.3426
 30
0.0
 11
251.661
 21
22.2415
 31
0.0
  0
LINE
  8
0
 62
     0
 10
251.661
 20
22.2415
 30
0.0
 11
267.262
 21
22.2415
 31
0.0
  0
LINE
  8
0
 62
     0
 10
267.262
 20
22.2415
 30
0.0
 11
267.262
 21
26.3426
 31
0.0
  0
LINE
  8
0
 62
     0
 10
267.262
 20
26.3426
 30
0.0
 11
267.987
 21
26.3426
 31
0.0
  0
LINE
  8
0
 62
     0
 10
267.987
 20
26.3426
 30
0.0
 11
267.987
 21
21.8722
 31
0.0
  0
LINE
  8
0
 62
     0
 10
267.987
 20
21.8722
 30
0.0
 11
269.712
 21
21.8722
 31
0.0
  0
LINE
  8
0
 62
     0
 10
269.712
 20
21.8722
 30
0.0
 11
269.712
 21
20.672
 31
0.0
  0
LINE
  8
0
 62
     0
 10
269.712
 20
20.672
 30
0.0
 11
273.013
 21
20.672
 31
0.0
  0
LINE
  8
0
 62
     0
 10
273.013
 20
20.672
 30
0.0
 11
273.013
 21
21.8722
 31
0.0
  0
LINE
  8
0
 62
     0
 10
273.013
 20
21.8722
 30
0.0
 11
274.738
 21
21.8722
 31
0.0
  0
LINE
  8
0
 62
     0
 10
274.738
 20
21.8722
 30
0.0
 11
274.738
 21
28.1423
 31
0.0
  0
LINE
  8
0
 62
     0
 10
274.738
 20
28.1423
 30
0.0
 11
275.562
 21
28.1423
 31
0.0
  0
LINE
  8
0
 62
     0
 10
275.562
 20
28.1423
 30
0.0
 11
275.562
 21
30.9411
 31
0.0
  0
LINE
  8
0
 62
     0
 10
275.562
 20
30.9411
 30
0.0
 11
274.738
 21
30.9411
 31
0.0
  0
LINE
  8
0
 62
     0
 10
274.738
 20
30.9411
 30
0.0
 11
274.738
 21
34.1726
 31
0.0
  0
LINE
  8
0
 62
     0
 10
274.738
 20
34.1726
 30
0.0
 11
267.987
 21
34.1726
 31
0.0
  0
LINE
  8
0
 62
     0
 10
267.987
 20
34.1726
 30
0.0
 11
267.987
 21
30.9411
 31
0.0
  0
LINE
  8
0
 62
     0
 10
267.987
 20
30.9411
 30
0.0
 11
267.262
 21
30.9411
 31
0.0
  0
LINE
  8
0
 62
     0
 10
267.262
 20
30.9411
 30
0.0
 11
267.262
 21
35.0421
 31
0.0
  0
LINE
  8
0
 62
     0
 10
267.262
 20
35.0421
 30
0.0
 11
251.661
 21
35.0421
 31
0.0
  0
LINE
  8
0
 62
     0
 10
13.5378
 20
35.0421
 30
0.0
 11
13.5378
 21
30.9411
 31
0.0
  0
LINE
  8
0
 62
     0
 10
13.5378
 20
30.9411
 30
0.0
 11
12.813
 21
30.9411
 31
0.0
  0
LINE
  8
0
 62
     0
 10
12.813
 20
30.9411
 30
0.0
 11
12.813
 21
34.1726
 31
0.0
  0
LINE
  8
0
 62
     0
 10
12.813
 20
34.1726
 30
0.0
 11
6.06337
 21
34.1726
 31
0.0
  0
LINE
  8
0
 62
     0
 10
6.06337
 20
34.1726
 30
0.0
 11
6.06337
 21
30.9411
 31
0.0
  0
LINE
  8
0
 62
     0
 10
6.06337
 20
30.9411
 30
0.0
 11
5.23794
 21
30.9411
 31
0.0
  0
LINE
  8
0
 62
     0
 10
5.23794
 20
30.9411
 30
0.0
 11
5.23794
 21
28.1423
 31
0.0
  0
LINE
  8
0
 62
     0
 10
5.23794
 20
28.1423
 30
0.0
 11
6.06337
 21
28.1423
 31
0.0
  0
LINE
  8
0
 62
     0
 10
6.06337
 20
28.1423
 30
0.0
 11
6.06337
 21
21.8722
 31
0.0
  0
LINE
  8
0
 62
     0
 10
6.06337
 20
21.8722
 30
0.0
 11
7.78866
 21
21.8722
 31
0.0
  0
LINE
  8
0
 62
     0
 10
7.78866
 20
21.8722
 30
0.0
 11
7.78866
 21
20.672
 31
0.0
  0
LINE
  8
0
 62
     0
 10
7.78866
 20
20.672
 30
0.0
 11
11.0877
 21
20.672
 31
0.0
  0
LINE
  8
0
 62
     0
 10
11.0877
 20
20.672
 30
0.0
 11
11.0877
 21
21.8722
 31
0.0
  0
LINE
  8
0
 62
     0
 10
11.0877
 20
21.8722
 30
0.0
 11
12.813
 21
21.8722
 31
0.0
  0
LINE
  8
0
 62
     0
 10
12.813
 20
21.8722
 30
0.0
 11
12.813
 21
26.3426
 31
0.0
  0
LINE
  8
0
 62
     0
 10
12.813
 20
26.3426
 30
0.0
 11
13.5378
 21
26.3426
 31
0.0
  0
LINE
  8
0
 62
     0
 10
13.5378
 20
26.3426
 30
0.0
 11
13.5378
 21
22.2415
 31
0.0
  0
LINE
  8
0
 62
     0
 10
13.5378
 20
22.2415
 30
0.0
 11
29.1373
 21
22.2415
 31
0.0
  0
LINE
  8
0
 62
     0
 10
29.1373
 20
22.2415
 30
0.0
 11
29.1373
 21
26.3426
 31
0.0
  0
LINE
  8
0
 62
     0
 10
29.1373
 20
26.3426
 30
0.0
 11
29.8634
 21
26.3426
 31
0.0
  0
LINE
  8
0
 62
     0
 10
29.8634
 20
26.3426
 30
0.0
 11
29.8634
 21
21.8722
 31
0.0
  0
LINE
  8
0
 62
     0
 10
29.8634
 20
21.8722
 30
0.0
 11
31.5874
 21
21.8722
 31
0.0
  0
LINE
  8
0
 62
     0
 10
31.5874
 20
21.8722
 30
0.0
 11
31.5874
 21
20.672
 31
0.0
  0
LINE
  8
0
 62
     0
 10
31.5874
 20
20.672
 30
0.0
 11
34.8878
 21
20.672
 31
0.0
  0
LINE
  8
0
 62
     0
 10
34.8878
 20
20.672
 30
0.0
 11
34.8878
 21
21.8722
 31
0.0
  0
LINE
  8
0
 62
     0
 10
34.8878
 20
21.8722
 30
0.0
 11
36.613
 21
21.8722
 31
0.0
  0
LINE
  8
0
 62
     0
 10
36.613
 20
21.8722
 30
0.0
 11
36.613
 21
28.1423
 31
0.0
  0
LINE
  8
0
 62
     0
 10
36.613
 20
28.1423
 30
0.0
 11
37.4385
 21
28.1423
 31
0.0
  0
LINE
  8
0
 62
     0
 10
37.4385
 20
28.1423
 30
0.0
 11
37.4385
 21
30.9411
 31
0.0
  0
LINE
  8
0
 62
     0
 10
37.4385
 20
30.9411
 30
0.0
 11
36.613
 21
30.9411
 31
0.0
  0
LINE
  8
0
 62
     0
 10
36.613
 20
30.9411
 30
0.0
 11
36.613
 21
34.1726
 31
0.0
  0
LINE
  8
0
 62
     0
 10
36.613
 20
34.1726
 30
0.0
 11
29.8634
 21
34.1726
 31
0.0
  0
LINE
  8
0
 62
     0
 10
29.8634
 20
34.1726
 30
0.0
 11
29.8634
 21
30.9411
 31
0.0
  0
LINE
  8
0
 62
     0
 10
29.8634
 20
30.9411
 30
0.0
 11
29.1373
 21
30.9411
 31
0.0
  0
LINE
  8
0
 62
     0
 10
29.1373
 20
30.9411
 30
0.0
 11
29.1373
 21
35.0421
 31
0.0
  0
LINE
  8
0
 62
     0
 10
29.1373
 20
35.0421
 30
0.0
 11
13.5378
 21
35.0421
 31
0.0
  0
LINE
  8
0
 62
     0
 10
215.944
 20
35.0421
 30
0.0
 11
231.545
 21
35.0421
 31
0.0
  0
LINE
  8
0
 62
     0
 10
231.545
 20
35.0421
 30
0.0
 11
231.545
 21
22.2415
 31
0.0
  0
LINE
  8
0
 62
     0
 10
231.545
 20
22.2415
 30
0.0
 11
215.944
 21
22.2415
 31
0.0
  0
LINE
  8
0
 62
     0
 10
215.944
 20
22.2415
 30
0.0
 11
215.944
 21
35.0421
 31
0.0
  0
LINE
  8
0
 62
     0
 10
196.896
 20
35.0421
 30
0.0
 11
212.495
 21
35.0421
 31
0.0
  0
LINE
  8
0
 62
     0
 10
212.495
 20
35.0421
 30
0.0
 11
212.495
 21
22.2415
 31
0.0
  0
LINE
  8
0
 62
     0
 10
212.495
 20
22.2415
 30
0.0
 11
196.896
 21
22.2415
 31
0.0
  0
LINE
  8
0
 62
     0
 10
196.896
 20
22.2415
 30
0.0
 11
196.896
 21
35.0421
 31
0.0
  0
LINE
  8
0
 62
     0
 10
177.846
 20
35.0421
 30
0.0
 11
193.445
 21
35.0421
 31
0.0
  0
LINE
  8
0
 62
     0
 10
193.445
 20
35.0421
 30
0.0
 11
193.445
 21
22.2415
 31
0.0
  0
LINE
  8
0
 62
     0
 10
193.445
 20
22.2415
 30
0.0
 11
177.846
 21
22.2415
 31
0.0
  0
LINE
  8
0
 62
     0
 10
177.846
 20
22.2415
 30
0.0
 11
177.846
 21
35.0421
 31
0.0
  0
LINE
  8
0
 62
     0
 10
158.794
 20
35.0421
 30
0.0
 11
174.395
 21
35.0421
 31
0.0
  0
LINE
  8
0
 62
     0
 10
174.395
 20
35.0421
 30
0.0
 11
174.395
 21
22.2415
 31
0.0
  0
LINE
  8
0
 62
     0
 10
174.395
 20
22.2415
 30
0.0
 11
158.794
 21
22.2415
 31
0.0
  0
LINE
  8
0
 62
     0
 10
158.794
 20
22.2415
 30
0.0
 11
158.794
 21
35.0421
 31
0.0
  0
LINE
  8
0
 62
     0
 10
139.746
 20
35.0421
 30
0.0
 11
155.345
 21
35.0421
 31
0.0
  0
LINE
  8
0
 62
     0
 10
155.345
 20
35.0421
 30
0.0
 11
155.345
 21
22.2415
 31
0.0
  0
LINE
  8
0
 62
     0
 10
155.345
 20
22.2415
 30
0.0
 11
139.746
 21
22.2415
 31
0.0
  0
LINE
  8
0
 62
     0
 10
139.746
 20
22.2415
 30
0.0
 11
139.746
 21
35.0421
 31
0.0
  0
LINE
  8
0
 62
     0
 10
120.694
 20
35.0421
 30
0.0
 11
136.295
 21
35.0421
 31
0.0
  0
LINE
  8
0
 62
     0
 10
136.295
 20
35.0421
 30
0.0
 11
136.295
 21
22.2415
 31
0.0
  0
LINE
  8
0
 62
     0
 10
136.295
 20
22.2415
 30
0.0
 11
120.694
 21
22.2415
 31
0.0
  0
LINE
  8
0
 62
     0
 10
120.694
 20
22.2415
 30
0.0
 11
120.694
 21
35.0421
 31
0.0
  0
LINE
  8
0
 62
     0
 10
101.646
 20
35.0421
 30
0.0
 11
117.245
 21
35.0421
 31
0.0
  0
LINE
  8
0
 62
     0
 10
117.245
 20
35.0421
 30
0.0
 11
117.245
 21
22.2415
 31
0.0
  0
LINE
  8
0
 62
     0
 10
117.245
 20
22.2415
 30
0.0
 11
101.646
 21
22.2415
 31
0.0
  0
LINE
  8
0
 62
     0
 10
101.646
 20
22.2415
 30
0.0
 11
101.646
 21
35.0421
 31
0.0
  0
LINE
  8
0
 62
     0
 10
82.5955
 20
35.0421
 30
0.0
 11
98.195
 21
35.0421
 31
0.0
  0
LINE
  8
0
 62
     0
 10
98.195
 20
35.0421
 30
0.0
 11
98.195
 21
22.2415
 31
0.0
  0
LINE
  8
0
 62
     0
 10
98.195
 20
22.2415
 30
0.0
 11
82.5955
 21
22.2415
 31
0.0
  0
LINE
  8
0
 62
     0
 10
82.5955
 20
22.2415
 30
0.0
 11
82.5955
 21
35.0421
 31
0.0
  0
LINE
  8
0
 62
     0
 10
63.5455
 20
35.0421
 30
0.0
 11
79.145
 21
35.0421
 31
0.0
  0
LINE
  8
0
 62
     0
 10
79.145
 20
35.0421
 30
0.0
 11
79.145
 21
22.2415
 31
0.0
  0
LINE
  8
0
 62
     0
 10
79.145
 20
22.2415
 30
0.0
 11
63.5455
 21
22.2415
 31
0.0
  0
LINE
  8
0
 62
     0
 10
63.5455
 20
22.2415
 30
0.0
 11
63.5455
 21
35.0421
 31
0.0
  0
LINE
  8
0
 62
     0
 10
44.4941
 20
35.0421
 30
0.0
 11
60.095
 21
35.0421
 31
0.0
  0
LINE
  8
0
 62
     0
 10
60.095
 20
35.0421
 30
0.0
 11
60.095
 21
22.2415
 31
0.0
  0
LINE
  8
0
 62
     0
 10
60.095
 20
22.2415
 30
0.0
 11
44.4941
 21
22.2415
 31
0.0
  0
LINE
  8
0
 62
     0
 10
44.4941
 20
22.2415
 30
0.0
 11
44.4941
 21
35.0421
 31
0.0
  0
LINE
  8
0
 62
     0
 10
256.425
 20
54.0921
 30
0.0
 11
256.425
 21
49.9925
 31
0.0
  0
LINE
  8
0
 62
     0
 10
256.425
 20
49.9925
 30
0.0
 11
255.7
 21
49.9925
 31
0.0
  0
LINE
  8
0
 62
     0
 10
255.7
 20
49.9925
 30
0.0
 11
255.7
 21
53.2211
 31
0.0
  0
LINE
  8
0
 62
     0
 10
255.7
 20
53.2211
 30
0.0
 11
248.951
 21
53.2211
 31
0.0
  0
LINE
  8
0
 62
     0
 10
248.951
 20
53.2211
 30
0.0
 11
248.951
 21
49.9925
 31
0.0
  0
LINE
  8
0
 62
     0
 10
248.951
 20
49.9925
 30
0.0
 11
248.127
 21
49.9925
 31
0.0
  0
LINE
  8
0
 62
     0
 10
248.127
 20
49.9925
 30
0.0
 11
248.127
 21
47.1911
 31
0.0
  0
LINE
  8
0
 62
     0
 10
248.127
 20
47.1911
 30
0.0
 11
248.951
 21
47.1911
 31
0.0
  0
LINE
  8
0
 62
     0
 10
248.951
 20
47.1911
 30
0.0
 11
248.951
 21
40.9222
 31
0.0
  0
LINE
  8
0
 62
     0
 10
248.951
 20
40.9222
 30
0.0
 11
250.676
 21
40.9222
 31
0.0
  0
LINE
  8
0
 62
     0
 10
250.676
 20
40.9222
 30
0.0
 11
250.676
 21
39.7221
 31
0.0
  0
LINE
  8
0
 62
     0
 10
250.676
 20
39.7221
 30
0.0
 11
253.974
 21
39.7221
 31
0.0
  0
LINE
  8
0
 62
     0
 10
253.974
 20
39.7221
 30
0.0
 11
253.974
 21
40.9222
 31
0.0
  0
LINE
  8
0
 62
     0
 10
253.974
 20
40.9222
 30
0.0
 11
255.7
 21
40.9222
 31
0.0
  0
LINE
  8
0
 62
     0
 10
255.7
 20
40.9222
 30
0.0
 11
255.7
 21
45.3926
 31
0.0
  0
LINE
  8
0
 62
     0
 10
255.7
 20
45.3926
 30
0.0
 11
256.425
 21
45.3926
 31
0.0
  0
LINE
  8
0
 62
     0
 10
256.425
 20
45.3926
 30
0.0
 11
256.425
 21
41.2916
 31
0.0
  0
LINE
  8
0
 62
     0
 10
256.425
 20
41.2916
 30
0.0
 11
272.026
 21
41.2916
 31
0.0
  0
LINE
  8
0
 62
     0
 10
272.026
 20
41.2916
 30
0.0
 11
272.026
 21
45.3926
 31
0.0
  0
LINE
  8
0
 62
     0
 10
272.026
 20
45.3926
 30
0.0
 11
272.751
 21
45.3926
 31
0.0
  0
LINE
  8
0
 62
     0
 10
272.751
 20
45.3926
 30
0.0
 11
272.751
 21
40.9222
 31
0.0
  0
LINE
  8
0
 62
     0
 10
272.751
 20
40.9222
 30
0.0
 11
274.475
 21
40.9222
 31
0.0
  0
LINE
  8
0
 62
     0
 10
274.475
 20
40.9222
 30
0.0
 11
274.475
 21
39.7221
 31
0.0
  0
LINE
  8
0
 62
     0
 10
274.475
 20
39.7221
 30
0.0
 11
277.775
 21
39.7221
 31
0.0
  0
LINE
  8
0
 62
     0
 10
277.775
 20
39.7221
 30
0.0
 11
277.775
 21
40.9222
 31
0.0
  0
LINE
  8
0
 62
     0
 10
277.775
 20
40.9222
 30
0.0
 11
279.501
 21
40.9222
 31
0.0
  0
LINE
  8
0
 62
     0
 10
279.501
 20
40.9222
 30
0.0
 11
279.501
 21
47.1911
 31
0.0
  0
LINE
  8
0
 62
     0
 10
279.501
 20
47.1911
 30
0.0
 11
280.326
 21
47.1911
 31
0.0
  0
LINE
  8
0
 62
     0
 10
280.326
 20
47.1911
 30
0.0
 11
280.326
 21
49.9925
 31
0.0
  0
LINE
  8
0
 62
     0
 10
280.326
 20
49.9925
 30
0.0
 11
279.501
 21
49.9925
 31
0.0
  0
LINE
  8
0
 62
     0
 10
279.501
 20
49.9925
 30
0.0
 11
279.501
 21
53.2211
 31
0.0
  0
LINE
  8
0
 62
     0
 10
279.501
 20
53.2211
 30
0.0
 11
272.751
 21
53.2211
 31
0.0
  0
LINE
  8
0
 62
     0
 10
272.751
 20
53.2211
 30
0.0
 11
272.751
 21
49.9925
 31
0.0
  0
LINE
  8
0
 62
     0
 10
272.751
 20
49.9925
 30
0.0
 11
272.026
 21
49.9925
 31
0.0
  0
LINE
  8
0
 62
     0
 10
272.026
 20
49.9925
 30
0.0
 11
272.026
 21
54.0921
 31
0.0
  0
LINE
  8
0
 62
     0
 10
272.026
 20
54.0921
 30
0.0
 11
256.425
 21
54.0921
 31
0.0
  0
LINE
  8
0
 62
     0
 10
225.471
 20
54.0921
 30
0.0
 11
241.07
 21
54.0921
 31
0.0
  0
LINE
  8
0
 62
     0
 10
241.07
 20
54.0921
 30
0.0
 11
241.07
 21
41.2916
 31
0.0
  0
LINE
  8
0
 62
     0
 10
241.07
 20
41.2916
 30
0.0
 11
225.471
 21
41.2916
 31
0.0
  0
LINE
  8
0
 62
     0
 10
225.471
 20
41.2916
 30
0.0
 11
225.471
 21
54.0921
 31
0.0
  0
LINE
  8
0
 62
     0
 10
206.419
 20
54.0921
 30
0.0
 11
222.02
 21
54.0921
 31
0.0
  0
LINE
  8
0
 62
     0
 10
222.02
 20
54.0921
 30
0.0
 11
222.02
 21
41.2916
 31
0.0
  0
LINE
  8
0
 62
     0
 10
222.02
 20
41.2916
 30
0.0
 11
206.419
 21
41.2916
 31
0.0
  0
LINE
  8
0
 62
     0
 10
206.419
 20
41.2916
 30
0.0
 11
206.419
 21
54.0921
 31
0.0
  0
LINE
  8
0
 62
     0
 10
187.371
 20
54.0921
 30
0.0
 11
202.97
 21
54.0921
 31
0.0
  0
LINE
  8
0
 62
     0
 10
202.97
 20
54.0921
 30
0.0
 11
202.97
 21
41.2916
 31
0.0
  0
LINE
  8
0
 62
     0
 10
202.97
 20
41.2916
 30
0.0
 11
187.371
 21
41.2916
 31
0.0
  0
LINE
  8
0
 62
     0
 10
187.371
 20
41.2916
 30
0.0
 11
187.371
 21
54.0921
 31
0.0
  0
LINE
  8
0
 62
     0
 10
168.319
 20
54.0921
 30
0.0
 11
183.92
 21
54.0921
 31
0.0
  0
LINE
  8
0
 62
     0
 10
183.92
 20
54.0921
 30
0.0
 11
183.92
 21
41.2916
 31
0.0
  0
LINE
  8
0
 62
     0
 10
183.92
 20
41.2916
 30
0.0
 11
168.319
 21
41.2916
 31
0.0
  0
LINE
  8
0
 62
     0
 10
168.319
 20
41.2916
 30
0.0
 11
168.319
 21
54.0921
 31
0.0
  0
LINE
  8
0
 62
     0
 10
149.269
 20
54.0921
 30
0.0
 11
164.87
 21
54.0921
 31
0.0
  0
LINE
  8
0
 62
     0
 10
164.87
 20
54.0921
 30
0.0
 11
164.87
 21
41.2916
 31
0.0
  0
LINE
  8
0
 62
     0
 10
164.87
 20
41.2916
 30
0.0
 11
149.269
 21
41.2916
 31
0.0
  0
LINE
  8
0
 62
     0
 10
149.269
 20
41.2916
 30
0.0
 11
149.269
 21
54.0921
 31
0.0
  0
LINE
  8
0
 62
     0
 10
111.169
 20
54.0921
 30
0.0
 11
111.169
 21
41.2916
 31
0.0
  0
LINE
  8
0
 62
     0
 10
111.169
 20
41.2916
 30
0.0
 11
126.77
 21
41.2916
 31
0.0
  0
LINE
  8
0
 62
     0
 10
126.77
 20
41.2916
 30
0.0
 11
126.77
 21
45.9133
 31
0.0
  0
LINE
  8
0
 62
     0
 10
126.77
 20
45.9133
 30
0.0
 11
127.014
 21
45.6696
 31
0.0
  0
LINE
  8
0
 62
     0
 10
127.014
 20
45.6696
 30
0.0
 11
127.711
 21
45.314
 31
0.0
  0
LINE
  8
0
 62
     0
 10
127.711
 20
45.314
 30
0.0
 11
128.484
 21
45.1901
 31
0.0
  0
LINE
  8
0
 62
     0
 10
128.484
 20
45.1901
 30
0.0
 11
129.256
 21
45.314
 31
0.0
  0
LINE
  8
0
 62
     0
 10
129.256
 20
45.314
 30
0.0
 11
129.953
 21
45.6696
 31
0.0
  0
LINE
  8
0
 62
     0
 10
129.953
 20
45.6696
 30
0.0
 11
130.219
 21
45.9355
 31
0.0
  0
LINE
  8
0
 62
     0
 10
130.219
 20
45.9355
 30
0.0
 11
130.219
 21
41.2916
 31
0.0
  0
LINE
  8
0
 62
     0
 10
130.219
 20
41.2916
 30
0.0
 11
145.82
 21
41.2916
 31
0.0
  0
LINE
  8
0
 62
     0
 10
145.82
 20
41.2916
 30
0.0
 11
145.82
 21
54.0921
 31
0.0
  0
LINE
  8
0
 62
     0
 10
145.82
 20
54.0921
 30
0.0
 11
130.219
 21
54.0921
 31
0.0
  0
LINE
  8
0
 62
     0
 10
130.219
 20
54.0921
 30
0.0
 11
130.219
 21
49.4482
 31
0.0
  0
LINE
  8
0
 62
     0
 10
130.219
 20
49.4482
 30
0.0
 11
129.953
 21
49.7141
 31
0.0
  0
LINE
  8
0
 62
     0
 10
129.953
 20
49.7141
 30
0.0
 11
129.256
 21
50.0697
 31
0.0
  0
LINE
  8
0
 62
     0
 10
129.256
 20
50.0697
 30
0.0
 11
128.484
 21
50.1908
 31
0.0
  0
LINE
  8
0
 62
     0
 10
128.484
 20
50.1908
 30
0.0
 11
127.711
 21
50.0697
 31
0.0
  0
LINE
  8
0
 62
     0
 10
127.711
 20
50.0697
 30
0.0
 11
127.014
 21
49.7141
 31
0.0
  0
LINE
  8
0
 62
     0
 10
127.014
 20
49.7141
 30
0.0
 11
126.77
 21
49.47
 31
0.0
  0
LINE
  8
0
 62
     0
 10
126.77
 20
49.47
 30
0.0
 11
126.77
 21
54.0921
 31
0.0
  0
LINE
  8
0
 62
     0
 10
126.77
 20
54.0921
 30
0.0
 11
111.169
 21
54.0921
 31
0.0
  0
LINE
  8
0
 62
     0
 10
92.1191
 20
54.0921
 30
0.0
 11
107.719
 21
54.0921
 31
0.0
  0
LINE
  8
0
 62
     0
 10
107.719
 20
54.0921
 30
0.0
 11
107.719
 21
41.2916
 31
0.0
  0
LINE
  8
0
 62
     0
 10
107.719
 20
41.2916
 30
0.0
 11
92.1191
 21
41.2916
 31
0.0
  0
LINE
  8
0
 62
     0
 10
92.1191
 20
41.2916
 30
0.0
 11
92.1191
 21
54.0921
 31
0.0
  0
LINE
  8
0
 62
     0
 10
73.0691
 20
54.0921
 30
0.0
 11
88.67
 21
54.0921
 31
0.0
  0
LINE
  8
0
 62
     0
 10
88.67
 20
54.0921
 30
0.0
 11
88.67
 21
41.2916
 31
0.0
  0
LINE
  8
0
 62
     0
 10
88.67
 20
41.2916
 30
0.0
 11
73.0691
 21
41.2916
 31
0.0
  0
LINE
  8
0
 62
     0
 10
73.0691
 20
41.2916
 30
0.0
 11
73.0691
 21
54.0921
 31
0.0
  0
LINE
  8
0
 62
     0
 10
54.0205
 20
54.0921
 30
0.0
 11
69.62
 21
54.0921
 31
0.0
  0
LINE
  8
0
 62
     0
 10
69.62
 20
54.0921
 30
0.0
 11
69.62
 21
41.2916
 31
0.0
  0
LINE
  8
0
 62
     0
 10
69.62
 20
41.2916
 30
0.0
 11
54.0205
 21
41.2916
 31
0.0
  0
LINE
  8
0
 62
     0
 10
54.0205
 20
41.2916
 30
0.0
 11
54.0205
 21
54.0921
 31
0.0
  0
LINE
  8
0
 62
     0
 10
34.9705
 20
54.0921
 30
0.0
 11
50.5686
 21
54.0921
 31
0.0
  0
LINE
  8
0
 62
     0
 10
50.5686
 20
54.0921
 30
0.0
 11
50.5686
 21
41.2916
 31
0.0
  0
LINE
  8
0
 62
     0
 10
50.5686
 20
41.2916
 30
0.0
 11
34.9705
 21
41.2916
 31
0.0
  0
LINE
  8
0
 62
     0
 10
34.9705
 20
41.2916
 30
0.0
 11
34.9705
 21
54.0921
 31
0.0
  0
LINE
  8
0
 62
     0
 10
8.77672
 20
54.0921
 30
0.0
 11
24.3761
 21
54.0921
 31
0.0
  0
LINE
  8
0
 62
     0
 10
24.3761
 20
54.0921
 30
0.0
 11
24.3761
 21
41.2916
 31
0.0
  0
LINE
  8
0
 62
     0
 10
24.3761
 20
41.2916
 30
0.0
 11
8.77672
 21
41.2916
 31
0.0
  0
LINE
  8
0
 62
     0
 10
8.77672
 20
41.2916
 30
0.0
 11
8.77672
 21
54.0921
 31
0.0
  0
LINE
  8
0
 62
     0
 10
263.569
 20
73.1421
 30
0.0
 11
279.17
 21
73.1421
 31
0.0
  0
LINE
  8
0
 62
     0
 10
279.17
 20
73.1421
 30
0.0
 11
279.17
 21
60.343
 31
0.0
  0
LINE
  8
0
 62
     0
 10
279.17
 20
60.343
 30
0.0
 11
263.569
 21
60.343
 31
0.0
  0
LINE
  8
0
 62
     0
 10
263.569
 20
60.343
 30
0.0
 11
263.569
 21
73.1421
 31
0.0
  0
LINE
  8
0
 62
     0
 10
239.758
 20
73.1421
 30
0.0
 11
255.356
 21
73.1421
 31
0.0
  0
LINE
  8
0
 62
     0
 10
255.356
 20
73.1421
 30
0.0
 11
255.356
 21
60.343
 31
0.0
  0
LINE
  8
0
 62
     0
 10
255.356
 20
60.343
 30
0.0
 11
239.758
 21
60.343
 31
0.0
  0
LINE
  8
0
 62
     0
 10
239.758
 20
60.343
 30
0.0
 11
239.758
 21
73.1421
 31
0.0
  0
LINE
  8
0
 62
     0
 10
220.707
 20
73.1421
 30
0.0
 11
236.306
 21
73.1421
 31
0.0
  0
LINE
  8
0
 62
     0
 10
236.306
 20
73.1421
 30
0.0
 11
236.306
 21
60.343
 31
0.0
  0
LINE
  8
0
 62
     0
 10
236.306
 20
60.343
 30
0.0
 11
220.707
 21
60.343
 31
0.0
  0
LINE
  8
0
 62
     0
 10
220.707
 20
60.343
 30
0.0
 11
220.707
 21
73.1421
 31
0.0
  0
LINE
  8
0
 62
     0
 10
201.658
 20
73.1421
 30
0.0
 11
217.257
 21
73.1421
 31
0.0
  0
LINE
  8
0
 62
     0
 10
217.257
 20
73.1421
 30
0.0
 11
217.257
 21
60.343
 31
0.0
  0
LINE
  8
0
 62
     0
 10
217.257
 20
60.343
 30
0.0
 11
201.658
 21
60.343
 31
0.0
  0
LINE
  8
0
 62
     0
 10
201.658
 20
60.343
 30
0.0
 11
201.658
 21
73.1421
 31
0.0
  0
LINE
  8
0
 62
     0
 10
182.608
 20
73.1421
 30
0.0
 11
198.206
 21
73.1421
 31
0.0
  0
LINE
  8
0
 62
     0
 10
198.206
 20
73.1421
 30
0.0
 11
198.206
 21
60.343
 31
0.0
  0
LINE
  8
0
 62
     0
 10
198.206
 20
60.343
 30
0.0
 11
182.608
 21
60.343
 31
0.0
  0
LINE
  8
0
 62
     0
 10
182.608
 20
60.343
 30
0.0
 11
182.608
 21
73.1421
 31
0.0
  0
LINE
  8
0
 62
     0
 10
163.557
 20
73.1421
 30
0.0
 11
179.157
 21
73.1421
 31
0.0
  0
LINE
  8
0
 62
     0
 10
179.157
 20
73.1421
 30
0.0
 11
179.157
 21
60.343
 31
0.0
  0
LINE
  8
0
 62
     0
 10
179.157
 20
60.343
 30
0.0
 11
163.557
 21
60.343
 31
0.0
  0
LINE
  8
0
 62
     0
 10
163.557
 20
60.343
 30
0.0
 11
163.557
 21
73.1421
 31
0.0
  0
LINE
  8
0
 62
     0
 10
144.508
 20
73.1421
 30
0.0
 11
160.107
 21
73.1421
 31
0.0
  0
LINE
  8
0
 62
     0
 10
160.107
 20
73.1421
 30
0.0
 11
160.107
 21
60.343
 31
0.0
  0
LINE
  8
0
 62
     0
 10
160.107
 20
60.343
 30
0.0
 11
144.508
 21
60.343
 31
0.0
  0
LINE
  8
0
 62
     0
 10
144.508
 20
60.343
 30
0.0
 11
144.508
 21
73.1421
 31
0.0
  0
LINE
  8
0
 62
     0
 10
125.457
 20
73.1421
 30
0.0
 11
141.056
 21
73.1421
 31
0.0
  0
LINE
  8
0
 62
     0
 10
141.056
 20
73.1421
 30
0.0
 11
141.056
 21
60.343
 31
0.0
  0
LINE
  8
0
 62
     0
 10
141.056
 20
60.343
 30
0.0
 11
125.457
 21
60.343
 31
0.0
  0
LINE
  8
0
 62
     0
 10
125.457
 20
60.343
 30
0.0
 11
125.457
 21
73.1421
 31
0.0
  0
LINE
  8
0
 62
     0
 10
106.408
 20
73.1421
 30
0.0
 11
122.007
 21
73.1421
 31
0.0
  0
LINE
  8
0
 62
     0
 10
122.007
 20
73.1421
 30
0.0
 11
122.007
 21
60.343
 31
0.0
  0
LINE
  8
0
 62
     0
 10
122.007
 20
60.343
 30
0.0
 11
106.408
 21
60.343
 31
0.0
  0
LINE
  8
0
 62
     0
 10
106.408
 20
60.343
 30
0.0
 11
106.408
 21
73.1421
 31
0.0
  0
LINE
  8
0
 62
     0
 10
87.358
 20
73.1421
 30
0.0
 11
102.956
 21
73.1421
 31
0.0
  0
LINE
  8
0
 62
     0
 10
102.956
 20
73.1421
 30
0.0
 11
102.956
 21
60.343
 31
0.0
  0
LINE
  8
0
 62
     0
 10
102.956
 20
60.343
 30
0.0
 11
87.358
 21
60.343
 31
0.0
  0
LINE
  8
0
 62
     0
 10
87.358
 20
60.343
 30
0.0
 11
87.358
 21
73.1421
 31
0.0
  0
LINE
  8
0
 62
     0
 10
68.308
 20
73.1421
 30
0.0
 11
83.9075
 21
73.1421
 31
0.0
  0
LINE
  8
0
 62
     0
 10
83.9075
 20
73.1421
 30
0.0
 11
83.9075
 21
60.343
 31
0.0
  0
LINE
  8
0
 62
     0
 10
83.9075
 20
60.343
 30
0.0
 11
68.308
 21
60.343
 31
0.0
  0
LINE
  8
0
 62
     0
 10
68.308
 20
60.343
 30
0.0
 11
68.308
 21
73.1421
 31
0.0
  0
LINE
  8
0
 62
     0
 10
49.2566
 20
73.1421
 30
0.0
 11
64.8575
 21
73.1421
 31
0.0
  0
LINE
  8
0
 62
     0
 10
64.8575
 20
73.1421
 30
0.0
 11
64.8575
 21
60.343
 31
0.0
  0
LINE
  8
0
 62
     0
 10
64.8575
 20
60.343
 30
0.0
 11
49.2566
 21
60.343
 31
0.0
  0
LINE
  8
0
 62
     0
 10
49.2566
 20
60.343
 30
0.0
 11
49.2566
 21
73.1421
 31
0.0
  0
LINE
  8
0
 62
     0
 10
30.2066
 20
73.1421
 30
0.0
 11
45.8075
 21
73.1421
 31
0.0
  0
LINE
  8
0
 62
     0
 10
45.8075
 20
73.1421
 30
0.0
 11
45.8075
 21
60.343
 31
0.0
  0
LINE
  8
0
 62
     0
 10
45.8075
 20
60.343
 30
0.0
 11
30.2066
 21
60.343
 31
0.0
  0
LINE
  8
0
 62
     0
 10
30.2066
 20
60.343
 30
0.0
 11
30.2066
 21
73.1421
 31
0.0
  0
LINE
  8
0
 62
     0
 10
6.39547
 20
73.1421
 30
0.0
 11
21.9949
 21
73.1421
 31
0.0
  0
LINE
  8
0
 62
     0
 10
21.9949
 20
73.1421
 30
0.0
 11
21.9949
 21
60.343
 31
0.0
  0
LINE
  8
0
 62
     0
 10
21.9949
 20
60.343
 30
0.0
 11
6.39547
 21
60.343
 31
0.0
  0
LINE
  8
0
 62
     0
 10
6.39547
 20
60.343
 30
0.0
 11
6.39547
 21
73.1421
 31
0.0
  0
LINE
  8
0
 62
     0
 10
259.559
 20
69.4697
 30
0.0
 11
258.863
 21
69.1141
 31
0.0
  0
LINE
  8
0
 62
     0
 10
258.863
 20
69.1141
 30
0.0
 11
258.309
 21
68.5617
 31
0.0
  0
LINE
  8
0
 62
     0
 10
258.309
 20
68.5617
 30
0.0
 11
257.955
 21
67.8642
 31
0.0
  0
LINE
  8
0
 62
     0
 10
257.955
 20
67.8642
 30
0.0
 11
257.832
 21
67.0913
 31
0.0
  0
LINE
  8
0
 62
     0
 10
257.832
 20
67.0913
 30
0.0
 11
257.955
 21
66.3194
 31
0.0
  0
LINE
  8
0
 62
     0
 10
257.955
 20
66.3194
 30
0.0
 11
258.309
 21
65.6223
 31
0.0
  0
LINE
  8
0
 62
     0
 10
258.309
 20
65.6223
 30
0.0
 11
258.863
 21
65.0695
 31
0.0
  0
LINE
  8
0
 62
     0
 10
258.863
 20
65.0695
 30
0.0
 11
259.559
 21
64.7139
 31
0.0
  0
LINE
  8
0
 62
     0
 10
259.559
 20
64.7139
 30
0.0
 11
260.332
 21
64.5901
 31
0.0
  0
LINE
  8
0
 62
     0
 10
260.332
 20
64.5901
 30
0.0
 11
261.105
 21
64.7139
 31
0.0
  0
LINE
  8
0
 62
     0
 10
261.105
 20
64.7139
 30
0.0
 11
261.801
 21
65.0695
 31
0.0
  0
LINE
  8
0
 62
     0
 10
261.801
 20
65.0695
 30
0.0
 11
262.355
 21
65.6223
 31
0.0
  0
LINE
  8
0
 62
     0
 10
262.355
 20
65.6223
 30
0.0
 11
262.709
 21
66.3194
 31
0.0
  0
LINE
  8
0
 62
     0
 10
262.709
 20
66.3194
 30
0.0
 11
262.832
 21
67.0913
 31
0.0
  0
LINE
  8
0
 62
     0
 10
262.832
 20
67.0913
 30
0.0
 11
262.709
 21
67.8642
 31
0.0
  0
LINE
  8
0
 62
     0
 10
262.709
 20
67.8642
 30
0.0
 11
262.355
 21
68.5617
 31
0.0
  0
LINE
  8
0
 62
     0
 10
262.355
 20
68.5617
 30
0.0
 11
261.801
 21
69.1141
 31
0.0
  0
LINE
  8
0
 62
     0
 10
261.801
 20
69.1141
 30
0.0
 11
261.105
 21
69.4697
 31
0.0
  0
LINE
  8
0
 62
     0
 10
261.105
 20
69.4697
 30
0.0
 11
260.332
 21
69.5911
 31
0.0
  0
LINE
  8
0
 62
     0
 10
260.332
 20
69.5911
 30
0.0
 11
259.559
 21
69.4697
 31
0.0
  0
LINE
  8
0
 62
     0
 10
24.7096
 20
69.4697
 30
0.0
 11
24.0137
 21
69.1141
 31
0.0
  0
LINE
  8
0
 62
     0
 10
24.0137
 20
69.1141
 30
0.0
 11
23.4597
 21
68.5617
 31
0.0
  0
LINE
  8
0
 62
     0
 10
23.4597
 20
68.5617
 30
0.0
 11
23.1056
 21
67.8642
 31
0.0
  0
LINE
  8
0
 62
     0
 10
23.1056
 20
67.8642
 30
0.0
 11
22.9829
 21
67.0913
 31
0.0
  0
LINE
  8
0
 62
     0
 10
22.9829
 20
67.0913
 30
0.0
 11
23.1056
 21
66.3194
 31
0.0
  0
LINE
  8
0
 62
     0
 10
23.1056
 20
66.3194
 30
0.0
 11
23.4597
 21
65.6223
 31
0.0
  0
LINE
  8
0
 62
     0
 10
23.4597
 20
65.6223
 30
0.0
 11
24.0137
 21
65.0695
 31
0.0
  0
LINE
  8
0
 62
     0
 10
24.0137
 20
65.0695
 30
0.0
 11
24.7096
 21
64.7139
 31
0.0
  0
LINE
  8
0
 62
     0
 10
24.7096
 20
64.7139
 30
0.0
 11
25.4841
 21
64.5901
 31
0.0
  0
LINE
  8
0
 62
     0
 10
25.4841
 20
64.5901
 30
0.0
 11
26.2558
 21
64.7139
 31
0.0
  0
LINE
  8
0
 62
     0
 10
26.2558
 20
64.7139
 30
0.0
 11
26.953
 21
65.0695
 31
0.0
  0
LINE
  8
0
 62
     0
 10
26.953
 20
65.0695
 30
0.0
 11
27.5029
 21
65.6223
 31
0.0
  0
LINE
  8
0
 62
     0
 10
27.5029
 20
65.6223
 30
0.0
 11
27.8612
 21
66.3194
 31
0.0
  0
LINE
  8
0
 62
     0
 10
27.8612
 20
66.3194
 30
0.0
 11
27.9824
 21
67.0913
 31
0.0
  0
LINE
  8
0
 62
     0
 10
27.9824
 20
67.0913
 30
0.0
 11
27.8612
 21
67.8642
 31
0.0
  0
LINE
  8
0
 62
     0
 10
27.8612
 20
67.8642
 30
0.0
 11
27.5029
 21
68.5617
 31
0.0
  0
LINE
  8
0
 62
     0
 10
27.5029
 20
68.5617
 30
0.0
 11
26.953
 21
69.1141
 31
0.0
  0
LINE
  8
0
 62
     0
 10
26.953
 20
69.1141
 30
0.0
 11
26.2558
 21
69.4697
 31
0.0
  0
LINE
  8
0
 62
     0
 10
26.2558
 20
69.4697
 30
0.0
 11
25.4841
 21
69.5911
 31
0.0
  0
LINE
  8
0
 62
     0
 10
25.4841
 20
69.5911
 30
0.0
 11
24.7096
 21
69.4697
 31
0.0
  0
LINE
  8
0
 62
     0
 10
258.807
 20
92.1921
 30
0.0
 11
258.807
 21
88.0925
 31
0.0
  0
LINE
  8
0
 62
     0
 10
258.807
 20
88.0925
 30
0.0
 11
258.082
 21
88.0925
 31
0.0
  0
LINE
  8
0
 62
     0
 10
258.082
 20
88.0925
 30
0.0
 11
258.082
 21
91.3225
 31
0.0
  0
LINE
  8
0
 62
     0
 10
258.082
 20
91.3225
 30
0.0
 11
251.332
 21
91.3225
 31
0.0
  0
LINE
  8
0
 62
     0
 10
251.332
 20
91.3225
 30
0.0
 11
251.332
 21
88.0925
 31
0.0
  0
LINE
  8
0
 62
     0
 10
251.332
 20
88.0925
 30
0.0
 11
250.508
 21
88.0925
 31
0.0
  0
LINE
  8
0
 62
     0
 10
250.508
 20
88.0925
 30
0.0
 11
250.508
 21
85.2921
 31
0.0
  0
LINE
  8
0
 62
     0
 10
250.508
 20
85.2921
 30
0.0
 11
251.332
 21
85.2921
 31
0.0
  0
LINE
  8
0
 62
     0
 10
251.332
 20
85.2921
 30
0.0
 11
251.332
 21
79.0208
 31
0.0
  0
LINE
  8
0
 62
     0
 10
251.332
 20
79.0208
 30
0.0
 11
253.056
 21
79.0208
 31
0.0
  0
LINE
  8
0
 62
     0
 10
253.056
 20
79.0208
 30
0.0
 11
253.056
 21
77.8221
 31
0.0
  0
LINE
  8
0
 62
     0
 10
253.056
 20
77.8221
 30
0.0
 11
256.357
 21
77.8221
 31
0.0
  0
LINE
  8
0
 62
     0
 10
256.357
 20
77.8221
 30
0.0
 11
256.357
 21
79.0208
 31
0.0
  0
LINE
  8
0
 62
     0
 10
256.357
 20
79.0208
 30
0.0
 11
258.082
 21
79.0208
 31
0.0
  0
LINE
  8
0
 62
     0
 10
258.082
 20
79.0208
 30
0.0
 11
258.082
 21
83.4926
 31
0.0
  0
LINE
  8
0
 62
     0
 10
258.082
 20
83.4926
 30
0.0
 11
258.807
 21
83.4926
 31
0.0
  0
LINE
  8
0
 62
     0
 10
258.807
 20
83.4926
 30
0.0
 11
258.807
 21
79.393
 31
0.0
  0
LINE
  8
0
 62
     0
 10
258.807
 20
79.393
 30
0.0
 11
274.406
 21
79.393
 31
0.0
  0
LINE
  8
0
 62
     0
 10
274.406
 20
79.393
 30
0.0
 11
274.406
 21
83.4926
 31
0.0
  0
LINE
  8
0
 62
     0
 10
274.406
 20
83.4926
 30
0.0
 11
275.131
 21
83.4926
 31
0.0
  0
LINE
  8
0
 62
     0
 10
275.131
 20
83.4926
 30
0.0
 11
275.131
 21
79.0208
 31
0.0
  0
LINE
  8
0
 62
     0
 10
275.131
 20
79.0208
 30
0.0
 11
276.856
 21
79.0208
 31
0.0
  0
LINE
  8
0
 62
     0
 10
276.856
 20
79.0208
 30
0.0
 11
276.856
 21
77.8221
 31
0.0
  0
LINE
  8
0
 62
     0
 10
276.856
 20
77.8221
 30
0.0
 11
280.157
 21
77.8221
 31
0.0
  0
LINE
  8
0
 62
     0
 10
280.157
 20
77.8221
 30
0.0
 11
280.157
 21
79.0208
 31
0.0
  0
LINE
  8
0
 62
     0
 10
280.157
 20
79.0208
 30
0.0
 11
281.882
 21
79.0208
 31
0.0
  0
LINE
  8
0
 62
     0
 10
281.882
 20
79.0208
 30
0.0
 11
281.882
 21
85.2921
 31
0.0
  0
LINE
  8
0
 62
     0
 10
281.882
 20
85.2921
 30
0.0
 11
282.706
 21
85.2921
 31
0.0
  0
LINE
  8
0
 62
     0
 10
282.706
 20
85.2921
 30
0.0
 11
282.706
 21
88.0925
 31
0.0
  0
LINE
  8
0
 62
     0
 10
282.706
 20
88.0925
 30
0.0
 11
281.882
 21
88.0925
 31
0.0
  0
LINE
  8
0
 62
     0
 10
281.882
 20
88.0925
 30
0.0
 11
281.882
 21
91.3225
 31
0.0
  0
LINE
  8
0
 62
     0
 10
281.882
 20
91.3225
 30
0.0
 11
275.131
 21
91.3225
 31
0.0
  0
LINE
  8
0
 62
     0
 10
275.131
 20
91.3225
 30
0.0
 11
275.131
 21
88.0925
 31
0.0
  0
LINE
  8
0
 62
     0
 10
275.131
 20
88.0925
 30
0.0
 11
274.406
 21
88.0925
 31
0.0
  0
LINE
  8
0
 62
     0
 10
274.406
 20
88.0925
 30
0.0
 11
274.406
 21
92.1921
 31
0.0
  0
LINE
  8
0
 62
     0
 10
274.406
 20
92.1921
 30
0.0
 11
258.807
 21
92.1921
 31
0.0
  0
LINE
  8
0
 62
     0
 10
230.233
 20
92.1921
 30
0.0
 11
245.831
 21
92.1921
 31
0.0
  0
LINE
  8
0
 62
     0
 10
245.831
 20
92.1921
 30
0.0
 11
245.831
 21
79.393
 31
0.0
  0
LINE
  8
0
 62
     0
 10
245.831
 20
79.393
 30
0.0
 11
230.233
 21
79.393
 31
0.0
  0
LINE
  8
0
 62
     0
 10
230.233
 20
79.393
 30
0.0
 11
230.233
 21
92.1921
 31
0.0
  0
LINE
  8
0
 62
     0
 10
211.182
 20
92.1921
 30
0.0
 11
226.782
 21
92.1921
 31
0.0
  0
LINE
  8
0
 62
     0
 10
226.782
 20
92.1921
 30
0.0
 11
226.782
 21
79.393
 31
0.0
  0
LINE
  8
0
 62
     0
 10
226.782
 20
79.393
 30
0.0
 11
211.182
 21
79.393
 31
0.0
  0
LINE
  8
0
 62
     0
 10
211.182
 20
79.393
 30
0.0
 11
211.182
 21
92.1921
 31
0.0
  0
LINE
  8
0
 62
     0
 10
192.133
 20
92.1921
 30
0.0
 11
207.732
 21
92.1921
 31
0.0
  0
LINE
  8
0
 62
     0
 10
207.732
 20
92.1921
 30
0.0
 11
207.732
 21
79.393
 31
0.0
  0
LINE
  8
0
 62
     0
 10
207.732
 20
79.393
 30
0.0
 11
192.133
 21
79.393
 31
0.0
  0
LINE
  8
0
 62
     0
 10
192.133
 20
79.393
 30
0.0
 11
192.133
 21
92.1921
 31
0.0
  0
LINE
  8
0
 62
     0
 10
173.082
 20
92.1921
 30
0.0
 11
188.681
 21
92.1921
 31
0.0
  0
LINE
  8
0
 62
     0
 10
188.681
 20
92.1921
 30
0.0
 11
188.681
 21
79.393
 31
0.0
  0
LINE
  8
0
 62
     0
 10
188.681
 20
79.393
 30
0.0
 11
173.082
 21
79.393
 31
0.0
  0
LINE
  8
0
 62
     0
 10
173.082
 20
79.393
 30
0.0
 11
173.082
 21
92.1921
 31
0.0
  0
LINE
  8
0
 62
     0
 10
154.033
 20
92.1921
 30
0.0
 11
169.632
 21
92.1921
 31
0.0
  0
LINE
  8
0
 62
     0
 10
169.632
 20
92.1921
 30
0.0
 11
169.632
 21
79.393
 31
0.0
  0
LINE
  8
0
 62
     0
 10
169.632
 20
79.393
 30
0.0
 11
154.033
 21
79.393
 31
0.0
  0
LINE
  8
0
 62
     0
 10
154.033
 20
79.393
 30
0.0
 11
154.033
 21
92.1921
 31
0.0
  0
LINE
  8
0
 62
     0
 10
134.983
 20
92.1921
 30
0.0
 11
150.581
 21
92.1921
 31
0.0
  0
LINE
  8
0
 62
     0
 10
150.581
 20
92.1921
 30
0.0
 11
150.581
 21
79.393
 31
0.0
  0
LINE
  8
0
 62
     0
 10
150.581
 20
79.393
 30
0.0
 11
134.983
 21
79.393
 31
0.0
  0
LINE
  8
0
 62
     0
 10
134.983
 20
79.393
 30
0.0
 11
134.983
 21
92.1921
 31
0.0
  0
LINE
  8
0
 62
     0
 10
115.933
 20
92.1921
 30
0.0
 11
131.532
 21
92.1921
 31
0.0
  0
LINE
  8
0
 62
     0
 10
131.532
 20
92.1921
 30
0.0
 11
131.532
 21
79.393
 31
0.0
  0
LINE
  8
0
 62
     0
 10
131.532
 20
79.393
 30
0.0
 11
115.933
 21
79.393
 31
0.0
  0
LINE
  8
0
 62
     0
 10
115.933
 20
79.393
 30
0.0
 11
115.933
 21
92.1921
 31
0.0
  0
LINE
  8
0
 62
     0
 10
96.883
 20
92.1921
 30
0.0
 11
112.482
 21
92.1921
 31
0.0
  0
LINE
  8
0
 62
     0
 10
112.482
 20
92.1921
 30
0.0
 11
112.482
 21
79.393
 31
0.0
  0
LINE
  8
0
 62
     0
 10
112.482
 20
79.393
 30
0.0
 11
96.883
 21
79.393
 31
0.0
  0
LINE
  8
0
 62
     0
 10
96.883
 20
79.393
 30
0.0
 11
96.883
 21
92.1921
 31
0.0
  0
LINE
  8
0
 62
     0
 10
77.8316
 20
92.1921
 30
0.0
 11
93.4325
 21
92.1921
 31
0.0
  0
LINE
  8
0
 62
     0
 10
93.4325
 20
92.1921
 30
0.0
 11
93.4325
 21
79.393
 31
0.0
  0
LINE
  8
0
 62
     0
 10
93.4325
 20
79.393
 30
0.0
 11
77.8316
 21
79.393
 31
0.0
  0
LINE
  8
0
 62
     0
 10
77.8316
 20
79.393
 30
0.0
 11
77.8316
 21
92.1921
 31
0.0
  0
LINE
  8
0
 62
     0
 10
58.783
 20
92.1921
 30
0.0
 11
74.3825
 21
92.1921
 31
0.0
  0
LINE
  8
0
 62
     0
 10
74.3825
 20
92.1921
 30
0.0
 11
74.3825
 21
79.393
 31
0.0
  0
LINE
  8
0
 62
     0
 10
74.3825
 20
79.393
 30
0.0
 11
58.783
 21
79.393
 31
0.0
  0
LINE
  8
0
 62
     0
 10
58.783
 20
79.393
 30
0.0
 11
58.783
 21
92.1921
 31
0.0
  0
LINE
  8
0
 62
     0
 10
39.733
 20
92.1921
 30
0.0
 11
55.3311
 21
92.1921
 31
0.0
  0
LINE
  8
0
 62
     0
 10
55.3311
 20
92.1921
 30
0.0
 11
55.3311
 21
79.393
 31
0.0
  0
LINE
  8
0
 62
     0
 10
55.3311
 20
79.393
 30
0.0
 11
39.733
 21
79.393
 31
0.0
  0
LINE
  8
0
 62
     0
 10
39.733
 20
79.393
 30
0.0
 11
39.733
 21
92.1921
 31
0.0
  0
LINE
  8
0
 62
     0
 10
20.683
 20
92.1921
 30
0.0
 11
36.2825
 21
92.1921
 31
0.0
  0
LINE
  8
0
 62
     0
 10
36.2825
 20
92.1921
 30
0.0
 11
36.2825
 21
79.393
 31
0.0
  0
LINE
  8
0
 62
     0
 10
36.2825
 20
79.393
 30
0.0
 11
20.683
 21
79.393
 31
0.0
  0
LINE
  8
0
 62
     0
 10
20.683
 20
79.393
 30
0.0
 11
20.683
 21
92.1921
 31
0.0
  0
LINE
  8
0
 62
     0
 10
1.63298
 20
92.1921
 30
0.0
 11
17.2324
 21
92.1921
 31
0.0
  0
LINE
  8
0
 62
     0
 10
17.2324
 20
92.1921
 30
0.0
 11
17.2324
 21
79.393
 31
0.0
  0
LINE
  8
0
 62
     0
 10
17.2324
 20
79.393
 30
0.0
 11
1.63298
 21
79.393
 31
0.0
  0
LINE
  8
0
 62
     0
 10
1.63298
 20
79.393
 30
0.0
 11
1.63298
 21
92.1921
 31
0.0
  0
ENDSEC
  0
EOF
